<?xml version="1.0" encoding="utf-8"?>
<!-- Generator: Adobe Illustrator 25.4.6, SVG Export Plug-In . SVG Version: 6.00 Build 0)  -->
<svg version="1.1" xmlns="http://www.w3.org/2000/svg" xmlns:xlink="http://www.w3.org/1999/xlink" x="0px" y="0px"
	 viewBox="0 0 850.39 170.08" enable-background="new 0 0 850.39 170.08" xml:space="preserve">
<g id="ingombro">
	<rect y="0" fill="none" width="850.39" height="170.08"/>
</g>
<g id="ship">
	<rect x="147.45" y="76.36" fill="none" stroke="#000000" stroke-width="0.2" width="28.62" height="17.46"/>
	<path fill="none" stroke="#000000" stroke-width="0.2" d="M661.16,120.54c0-1.07-0.87-1.94-1.94-1.94c-1.07,0-1.94,0.87-1.94,1.94
		c0,1.07,0.87,1.94,1.94,1.94C660.29,122.49,661.16,121.62,661.16,120.54z"/>
	<path fill="none" stroke="#000000" stroke-width="0.2" d="M661.16,49.58c0-1.07-0.87-1.94-1.94-1.94c-1.07,0-1.94,0.87-1.94,1.94
		s0.87,1.94,1.94,1.94C660.29,51.52,661.16,50.65,661.16,49.58z"/>
	<path fill="none" stroke="#000000" stroke-width="0.2" d="M617.52,92.36h4.79c0.2,0,0.36-0.16,0.36-0.36v-1.43
		c0-0.2-0.16-0.36-0.36-0.36h-4.79c-0.2,0-0.36,0.16-0.36,0.36V92C617.16,92.2,617.32,92.36,617.52,92.36L617.52,92.36z"/>
	<path fill="none" stroke="#000000" stroke-width="0.2" d="M624.22,92.36h1.91c0.2,0,0.36-0.16,0.36-0.36v-1.43
		c0-0.2-0.16-0.36-0.36-0.36h-1.91c-0.2,0-0.36,0.16-0.36,0.36V92C623.86,92.2,624.02,92.36,624.22,92.36L624.22,92.36z"/>
	<path fill="none" stroke="#000000" stroke-width="0.2" d="M624.22,77.77H629c0.2,0,0.36,0.16,0.36,0.36v0.96
		c0,0.2-0.16,0.36-0.36,0.36h-4.78c-0.2,0-0.36-0.16-0.36-0.36v-0.96C623.86,77.93,624.02,77.77,624.22,77.77L624.22,77.77z"/>
	<path fill="none" stroke="#000000" stroke-width="0.2" d="M617.52,77.77h4.79c0.2,0,0.36,0.16,0.36,0.36v0.96
		c0,0.2-0.16,0.36-0.36,0.36h-4.79c-0.2,0-0.36-0.16-0.36-0.36v-0.96C617.16,77.93,617.32,77.77,617.52,77.77L617.52,77.77z"/>
	<path fill="none" stroke="#000000" stroke-width="0.2" d="M136.32,63.69h5.21c0.2,0,0.36,0.16,0.36,0.36v1.67
		c0,0.2-0.16,0.36-0.36,0.36h-5.21c-0.2,0-0.36-0.16-0.36-0.36v-1.67C135.96,63.85,136.12,63.69,136.32,63.69L136.32,63.69z"/>
	<path fill="none" stroke="#000000" stroke-width="0.2" d="M136.32,106.44h5.21c0.2,0,0.36-0.16,0.36-0.36v-1.68
		c0-0.2-0.16-0.36-0.36-0.36h-5.21c-0.2,0-0.36,0.16-0.36,0.36v1.68C135.96,106.28,136.12,106.44,136.32,106.44L136.32,106.44z"/>
	<path fill="none" stroke="#000000" stroke-width="0.2" d="M134.12,106.44h0.84c0.2,0,0.36-0.16,0.36-0.36v-1.68
		c0-0.2-0.16-0.36-0.36-0.36h-0.84c-0.2,0-0.36,0.16-0.36,0.36v1.68C133.76,106.28,133.92,106.44,134.12,106.44L134.12,106.44z"/>
	<path fill="none" stroke="#000000" stroke-width="0.2" d="M134.12,63.69h0.83c0.2,0,0.36,0.16,0.36,0.36v1.67
		c0,0.2-0.16,0.36-0.36,0.36h-0.83c-0.2,0-0.36-0.16-0.36-0.36v-1.67C133.76,63.85,133.92,63.69,134.12,63.69L134.12,63.69z"/>
	<line fill="none" stroke="#000000" stroke-width="0.2" x1="572.41" y1="55.67" x2="575.32" y2="56.85"/>
	<line fill="none" stroke="#000000" stroke-width="0.2" x1="572.77" y1="51.54" x2="572.77" y2="55.82"/>
	<line fill="none" stroke="#000000" stroke-width="0.2" x1="574.93" y1="51.54" x2="574.93" y2="56.69"/>
	<line fill="none" stroke="#000000" stroke-width="0.1" x1="572.77" y1="52.35" x2="574.93" y2="52.35"/>
	<line fill="none" stroke="#000000" stroke-width="0.1" x1="572.77" y1="52.92" x2="574.93" y2="52.92"/>
	<line fill="none" stroke="#000000" stroke-width="0.1" x1="572.77" y1="53.48" x2="574.93" y2="53.48"/>
	<line fill="none" stroke="#000000" stroke-width="0.1" x1="572.77" y1="54.04" x2="574.93" y2="54.04"/>
	<line fill="none" stroke="#000000" stroke-width="0.1" x1="572.77" y1="54.6" x2="574.93" y2="54.6"/>
	<line fill="none" stroke="#000000" stroke-width="0.1" x1="572.77" y1="55.16" x2="574.93" y2="55.16"/>
	<line fill="none" stroke="#000000" stroke-width="0.1" x1="572.77" y1="55.72" x2="574.93" y2="55.72"/>
	<line fill="none" stroke="#000000" stroke-width="0.1" x1="573.92" y1="56.28" x2="574.93" y2="56.28"/>
	<line fill="none" stroke="#000000" stroke-width="0.2" x1="572.41" y1="114.46" x2="575.32" y2="113.27"/>
	<line fill="none" stroke="#000000" stroke-width="0.2" x1="572.77" y1="118.59" x2="572.77" y2="114.31"/>
	<line fill="none" stroke="#000000" stroke-width="0.2" x1="574.93" y1="118.59" x2="574.93" y2="113.44"/>
	<line fill="none" stroke="#000000" stroke-width="0.1" x1="572.77" y1="117.77" x2="574.93" y2="117.77"/>
	<line fill="none" stroke="#000000" stroke-width="0.1" x1="572.77" y1="117.21" x2="574.93" y2="117.21"/>
	<line fill="none" stroke="#000000" stroke-width="0.1" x1="572.77" y1="116.65" x2="574.93" y2="116.65"/>
	<line fill="none" stroke="#000000" stroke-width="0.1" x1="572.77" y1="116.08" x2="574.93" y2="116.08"/>
	<line fill="none" stroke="#000000" stroke-width="0.1" x1="572.77" y1="115.53" x2="574.93" y2="115.53"/>
	<line fill="none" stroke="#000000" stroke-width="0.1" x1="572.77" y1="114.96" x2="574.93" y2="114.96"/>
	<line fill="none" stroke="#000000" stroke-width="0.1" x1="572.77" y1="114.4" x2="574.93" y2="114.4"/>
	<line fill="none" stroke="#000000" stroke-width="0.1" x1="573.92" y1="113.84" x2="574.93" y2="113.84"/>
	<line fill="none" stroke="#000000" stroke-width="0.2" x1="174.37" y1="107.16" x2="174.37" y2="103.93"/>
	<line fill="none" stroke="#000000" stroke-width="0.2" x1="182.17" y1="107.16" x2="174.37" y2="107.16"/>
	<line fill="none" stroke="#000000" stroke-width="0.2" x1="177.28" y1="104.57" x2="177.28" y2="103.93"/>
	<line fill="none" stroke="#000000" stroke-width="0.1" x1="177.28" y1="104.53" x2="177.28" y2="107.16"/>
	<line fill="none" stroke="#000000" stroke-width="0.2" x1="181.14" y1="104.17" x2="182.32" y2="107.56"/>
	<line fill="none" stroke="#000000" stroke-width="0.2" x1="176.98" y1="104.53" x2="181.26" y2="104.53"/>
	<line fill="none" stroke="#000000" stroke-width="0.1" x1="177.82" y1="104.53" x2="177.82" y2="107.16"/>
	<line fill="none" stroke="#000000" stroke-width="0.1" x1="178.39" y1="104.53" x2="178.39" y2="107.16"/>
	<line fill="none" stroke="#000000" stroke-width="0.1" x1="178.95" y1="104.53" x2="178.95" y2="107.16"/>
	<line fill="none" stroke="#000000" stroke-width="0.1" x1="179.51" y1="104.53" x2="179.51" y2="107.16"/>
	<line fill="none" stroke="#000000" stroke-width="0.1" x1="180.08" y1="104.53" x2="180.08" y2="107.16"/>
	<line fill="none" stroke="#000000" stroke-width="0.1" x1="180.64" y1="104.53" x2="180.64" y2="107.16"/>
	<line fill="none" stroke="#000000" stroke-width="0.1" x1="181.21" y1="104.53" x2="181.21" y2="107.16"/>
	<line fill="none" stroke="#000000" stroke-width="0.2" x1="181.77" y1="105.98" x2="181.77" y2="107.16"/>
	<line fill="none" stroke="#000000" stroke-width="0.2" x1="177.28" y1="65.67" x2="177.28" y2="66.19"/>
	<line fill="none" stroke="#000000" stroke-width="0.1" x1="177.28" y1="65.59" x2="177.28" y2="62.96"/>
	<line fill="none" stroke="#000000" stroke-width="0.2" x1="174.37" y1="62.96" x2="174.37" y2="66.19"/>
	<line fill="none" stroke="#000000" stroke-width="0.2" x1="182.12" y1="62.96" x2="174.37" y2="62.96"/>
	<line fill="none" stroke="#000000" stroke-width="0.2" x1="181.14" y1="65.95" x2="182.32" y2="62.57"/>
	<line fill="none" stroke="#000000" stroke-width="0.2" x1="176.98" y1="65.59" x2="181.25" y2="65.59"/>
	<line fill="none" stroke="#000000" stroke-width="0.1" x1="177.82" y1="65.59" x2="177.82" y2="62.96"/>
	<line fill="none" stroke="#000000" stroke-width="0.1" x1="178.39" y1="65.59" x2="178.39" y2="62.96"/>
	<line fill="none" stroke="#000000" stroke-width="0.1" x1="178.95" y1="65.59" x2="178.95" y2="62.96"/>
	<line fill="none" stroke="#000000" stroke-width="0.1" x1="179.51" y1="65.59" x2="179.51" y2="62.96"/>
	<line fill="none" stroke="#000000" stroke-width="0.1" x1="180.08" y1="65.59" x2="180.08" y2="62.96"/>
	<line fill="none" stroke="#000000" stroke-width="0.1" x1="180.64" y1="65.59" x2="180.64" y2="62.96"/>
	<line fill="none" stroke="#000000" stroke-width="0.1" x1="181.21" y1="65.59" x2="181.21" y2="62.96"/>
	<line fill="none" stroke="#000000" stroke-width="0.1" x1="181.77" y1="64.15" x2="181.77" y2="62.96"/>
	<rect x="575.65" y="92.6" fill="none" stroke="#000000" stroke-width="0.2" width="0.2" height="25.82"/>
	<rect x="575.65" y="51.58" fill="none" stroke="#000000" stroke-width="0.2" width="0.2" height="18.61"/>
	<polygon fill="none" stroke="#000000" stroke-width="0.2" points="572.69,118.71 572.9,118.71 572.9,122.47 572.69,122.47 
		572.69,118.71 	"/>
	<polygon fill="none" stroke="#000000" stroke-width="0.2" points="572.69,51.42 572.69,47.65 572.9,47.65 572.9,51.42 
		572.69,51.42 	"/>
	<line fill="none" stroke="#000000" stroke-width="0.2" x1="206.28" y1="92.61" x2="187.86" y2="103.26"/>
	<line fill="none" stroke="#000000" stroke-width="0.2" x1="187.14" y1="103.45" x2="177.28" y2="103.45"/>
	<rect x="138.73" y="106.83" fill="none" stroke="#000000" stroke-width="0.2" width="10.34" height="0.48"/>
	<rect x="149.07" y="102.97" fill="none" stroke="#000000" stroke-width="0.2" width="25.3" height="0.48"/>
	<path fill="none" stroke="#000000" stroke-width="0.2" d="M187.86,103.26c-0.22,0.13-0.46,0.19-0.72,0.19"/>
	<line fill="none" stroke="#000000" stroke-width="0.2" x1="206.28" y1="77.27" x2="187.14" y2="66.68"/>
	<line fill="none" stroke="#000000" stroke-width="0.2" x1="187.14" y1="66.68" x2="177.28" y2="66.68"/>
	<rect x="138.73" y="62.82" fill="none" stroke="#000000" stroke-width="0.2" width="10.34" height="0.48"/>
	<polygon fill="none" stroke="#000000" stroke-width="0.2" points="133.68,102.28 133.68,67.84 133.2,67.84 133.2,102.28 
		133.68,102.28 	"/>
	<rect x="149.07" y="66.68" fill="none" stroke="#000000" stroke-width="0.2" width="25.3" height="0.48"/>
	<line fill="none" stroke="#000000" stroke-width="0.2" x1="261.66" y1="78.89" x2="262.94" y2="78.89"/>
	<line fill="none" stroke="#000000" stroke-width="0.2" x1="262.94" y1="78.42" x2="258.85" y2="78.42"/>
	<line fill="none" stroke="#000000" stroke-width="0.2" x1="287.34" y1="77.36" x2="269.06" y2="77.36"/>
	<line fill="none" stroke="#000000" stroke-width="0.2" x1="289.17" y1="77.26" x2="270.35" y2="77.26"/>
	<line fill="none" stroke="#000000" stroke-width="0.2" x1="290.94" y1="77.15" x2="271.55" y2="77.15"/>
	<line fill="none" stroke="#000000" stroke-width="0.2" x1="266.16" y1="78.33" x2="258.55" y2="78.33"/>
	<line fill="none" stroke="#000000" stroke-width="0.2" x1="265.18" y1="78.81" x2="266.16" y2="78.81"/>
	<line fill="none" stroke="#000000" stroke-width="0.2" x1="268.39" y1="78.71" x2="269.11" y2="78.71"/>
	<line fill="none" stroke="#000000" stroke-width="0.2" x1="271.35" y1="78.61" x2="271.87" y2="78.61"/>
	<line fill="none" stroke="#000000" stroke-width="0.2" x1="274.1" y1="78.5" x2="274.44" y2="78.5"/>
	<line fill="none" stroke="#000000" stroke-width="0.2" x1="274.44" y1="78.02" x2="259.54" y2="78.02"/>
	<line fill="none" stroke="#000000" stroke-width="0.2" x1="276.86" y1="77.9" x2="260.32" y2="77.9"/>
	<line fill="none" stroke="#000000" stroke-width="0.2" x1="276.66" y1="78.38" x2="276.86" y2="78.38"/>
	<line fill="none" stroke="#000000" stroke-width="0.2" x1="279.14" y1="77.77" x2="262.81" y2="77.77"/>
	<line fill="none" stroke="#000000" stroke-width="0.2" x1="281.34" y1="77.67" x2="264.53" y2="77.67"/>
	<line fill="none" stroke="#000000" stroke-width="0.2" x1="283.43" y1="77.57" x2="266.17" y2="77.57"/>
	<line fill="none" stroke="#000000" stroke-width="0.2" x1="285.42" y1="77.47" x2="267.68" y2="77.47"/>
	<line fill="none" stroke="#000000" stroke-width="0.2" x1="269.11" y1="78.23" x2="258.16" y2="78.23"/>
	<line fill="none" stroke="#000000" stroke-width="0.2" x1="271.87" y1="78.13" x2="257.57" y2="78.13"/>
	<line fill="none" stroke="#000000" stroke-width="0.2" x1="234.95" y1="93.44" x2="234.95" y2="93.16"/>
	<line fill="none" stroke="#000000" stroke-width="0.2" x1="231.95" y1="93.44" x2="231.95" y2="93.16"/>
	<path fill="none" stroke="#000000" stroke-width="0.2" d="M238.08,93.91c-0.15-0.22-2.35-0.39-4.91-0.38
		c-2.35,0.01-4.22,0.18-4.36,0.38"/>
	<line fill="none" stroke="#000000" stroke-width="0.2" x1="241.33" y1="94.04" x2="241.1" y2="94.02"/>
	<line fill="none" stroke="#000000" stroke-width="0.2" x1="241.33" y1="94.33" x2="241.33" y2="94.04"/>
	<line fill="none" stroke="#000000" stroke-width="0.2" x1="238" y1="94.33" x2="237.95" y2="94.29"/>
	<line fill="none" stroke="#000000" stroke-width="0.2" x1="238" y1="94.62" x2="238" y2="94.33"/>
	<line fill="none" stroke="#000000" stroke-width="0.2" x1="233.45" y1="92.65" x2="233.45" y2="92.94"/>
	<line fill="none" stroke="#000000" stroke-width="0.2" x1="244.81" y1="93.64" x2="244.81" y2="93.93"/>
	<line fill="none" stroke="#000000" stroke-width="0.2" x1="231.95" y1="93.44" x2="228.9" y2="93.24"/>
	<line fill="none" stroke="#000000" stroke-width="0.2" x1="233.45" y1="92.94" x2="231.95" y2="93.44"/>
	<line fill="none" stroke="#000000" stroke-width="0.2" x1="234.95" y1="93.44" x2="233.45" y2="92.94"/>
	<line fill="none" stroke="#000000" stroke-width="0.2" x1="238" y1="93.24" x2="234.95" y2="93.44"/>
	<line fill="none" stroke="#000000" stroke-width="0.2" x1="237.55" y1="93.57" x2="238" y2="93.24"/>
	<line fill="none" stroke="#000000" stroke-width="0.2" x1="241.33" y1="93.54" x2="237.55" y2="93.57"/>
	<line fill="none" stroke="#000000" stroke-width="0.2" x1="239.05" y1="93.8" x2="241.33" y2="93.54"/>
	<line fill="none" stroke="#000000" stroke-width="0.2" x1="244.81" y1="93.93" x2="239.05" y2="93.8"/>
	<line fill="none" stroke="#000000" stroke-width="0.2" x1="239.05" y1="94.06" x2="244.81" y2="93.93"/>
	<line fill="none" stroke="#000000" stroke-width="0.2" x1="241.33" y1="94.33" x2="239.05" y2="94.06"/>
	<line fill="none" stroke="#000000" stroke-width="0.2" x1="237.55" y1="94.29" x2="241.33" y2="94.33"/>
	<line fill="none" stroke="#000000" stroke-width="0.2" x1="238" y1="94.62" x2="237.55" y2="94.29"/>
	<line fill="none" stroke="#000000" stroke-width="0.2" x1="234.95" y1="94.42" x2="238" y2="94.62"/>
	<line fill="none" stroke="#000000" stroke-width="0.2" x1="233.45" y1="94.92" x2="234.95" y2="94.42"/>
	<line fill="none" stroke="#000000" stroke-width="0.2" x1="231.96" y1="94.42" x2="233.45" y2="94.92"/>
	<line fill="none" stroke="#000000" stroke-width="0.2" x1="228.9" y1="94.33" x2="228.95" y2="94.29"/>
	<line fill="none" stroke="#000000" stroke-width="0.2" x1="228.89" y1="94.62" x2="228.9" y2="94.33"/>
	<line fill="none" stroke="#000000" stroke-width="0.2" x1="228.89" y1="94.62" x2="231.96" y2="94.42"/>
	<line fill="none" stroke="#000000" stroke-width="0.2" x1="229.34" y1="94.29" x2="228.89" y2="94.62"/>
	<line fill="none" stroke="#000000" stroke-width="0.2" x1="225.56" y1="94.04" x2="225.79" y2="94.02"/>
	<line fill="none" stroke="#000000" stroke-width="0.2" x1="225.56" y1="94.33" x2="225.56" y2="94.04"/>
	<line fill="none" stroke="#000000" stroke-width="0.2" x1="225.56" y1="94.33" x2="229.34" y2="94.29"/>
	<line fill="none" stroke="#000000" stroke-width="0.2" x1="227.84" y1="94.06" x2="225.56" y2="94.33"/>
	<line fill="none" stroke="#000000" stroke-width="0.2" x1="222.07" y1="93.93" x2="227.84" y2="94.06"/>
	<line fill="none" stroke="#000000" stroke-width="0.2" x1="227.84" y1="93.8" x2="222.07" y2="93.93"/>
	<line fill="none" stroke="#000000" stroke-width="0.2" x1="225.56" y1="93.54" x2="227.84" y2="93.8"/>
	<line fill="none" stroke="#000000" stroke-width="0.2" x1="225.56" y1="93.54" x2="229.34" y2="93.57"/>
	<line fill="none" stroke="#000000" stroke-width="0.2" x1="228.9" y1="93.24" x2="229.35" y2="93.57"/>
	<line fill="none" stroke="#000000" stroke-width="0.2" x1="228.9" y1="92.96" x2="228.9" y2="93.24"/>
	<line fill="none" stroke="#000000" stroke-width="0.2" x1="228.9" y1="92.96" x2="231.95" y2="93.16"/>
	<line fill="none" stroke="#000000" stroke-width="0.2" x1="237.95" y1="93.28" x2="241.33" y2="93.25"/>
	<line fill="none" stroke="#000000" stroke-width="0.2" x1="241.1" y1="93.56" x2="244.81" y2="93.64"/>
	<line fill="none" stroke="#000000" stroke-width="0.2" x1="225.56" y1="93.25" x2="225.56" y2="93.54"/>
	<line fill="none" stroke="#000000" stroke-width="0.2" x1="225.56" y1="93.25" x2="228.95" y2="93.28"/>
	<line fill="none" stroke="#000000" stroke-width="0.2" x1="222.07" y1="93.64" x2="222.07" y2="93.93"/>
	<line fill="none" stroke="#000000" stroke-width="0.2" x1="222.07" y1="93.64" x2="225.79" y2="93.56"/>
	<path fill="none" stroke="#000000" stroke-width="0.2" d="M238.08,93.91c-0.15,0.22-2.35,0.39-4.91,0.38
		c-2.35-0.01-4.22-0.17-4.36-0.38"/>
	<line fill="none" stroke="#000000" stroke-width="0.2" x1="238" y1="92.96" x2="238" y2="93.24"/>
	<line fill="none" stroke="#000000" stroke-width="0.2" x1="233.45" y1="92.65" x2="234.95" y2="93.16"/>
	<line fill="none" stroke="#000000" stroke-width="0.2" x1="234.95" y1="93.16" x2="238" y2="92.96"/>
	<line fill="none" stroke="#000000" stroke-width="0.2" x1="231.95" y1="93.16" x2="233.45" y2="92.65"/>
	<line fill="none" stroke="#000000" stroke-width="0.2" x1="241.33" y1="93.25" x2="241.33" y2="93.54"/>
	<line fill="none" stroke="#000000" stroke-width="0.2" x1="234.95" y1="76.68" x2="234.95" y2="76.97"/>
	<line fill="none" stroke="#000000" stroke-width="0.2" x1="231.95" y1="76.68" x2="231.95" y2="76.97"/>
	<path fill="none" stroke="#000000" stroke-width="0.2" d="M238.08,76.22c-0.15,0.22-2.35,0.39-4.91,0.38
		c-2.35-0.01-4.22-0.17-4.36-0.38"/>
	<path fill="none" stroke="#000000" stroke-width="0.2" d="M260.24,91.09c3.01-0.41,5.26-2.99,5.26-6.03"/>
	<path fill="none" stroke="#000000" stroke-width="0.2" d="M265.98,85.06c0,3.62-2.94,6.57-6.57,6.57"/>
	<line fill="none" stroke="#000000" stroke-width="0.2" x1="261.66" y1="91.23" x2="262.94" y2="91.23"/>
	<line fill="none" stroke="#000000" stroke-width="0.2" x1="262.94" y1="91.71" x2="258.85" y2="91.71"/>
	<path fill="none" stroke="#000000" stroke-width="0.2" d="M269.59,85.06c0,3.67-2.98,6.65-6.65,6.65"/>
	<path fill="none" stroke="#000000" stroke-width="0.2" d="M262.94,91.23c3.41,0,6.17-2.76,6.17-6.17"/>
	<path fill="none" stroke="#000000" stroke-width="0.2" d="M295.04,85.06c0,4.25-3.45,7.7-7.7,7.7"/>
	<path fill="none" stroke="#000000" stroke-width="0.2" d="M287.83,92.27c3.79-0.26,6.72-3.41,6.72-7.21"/>
	<path fill="none" stroke="#000000" stroke-width="0.2" d="M296.98,85.06c0,4.31-3.49,7.81-7.8,7.81"/>
	<path fill="none" stroke="#000000" stroke-width="0.2" d="M289.79,92.36c3.79-0.32,6.71-3.49,6.71-7.3"/>
	<path fill="none" stroke="#000000" stroke-width="0.2" d="M291.67,92.46c3.8-0.38,6.69-3.58,6.69-7.4"/>
	<path fill="none" stroke="#000000" stroke-width="0.2" d="M298.84,85.06c0,4.37-3.54,7.91-7.91,7.91"/>
	<path fill="none" stroke="#000000" stroke-width="0.2" d="M275.95,85.06c0,3.77-3.06,6.84-6.83,6.84"/>
	<path fill="none" stroke="#000000" stroke-width="0.2" d="M269.11,91.42c3.51,0,6.36-2.84,6.36-6.35"/>
	<path fill="none" stroke="#000000" stroke-width="0.2" d="M278.8,85.06c0,3.83-3.1,6.94-6.94,6.94"/>
	<path fill="none" stroke="#000000" stroke-width="0.2" d="M271.87,91.52c3.57,0,6.46-2.89,6.46-6.46"/>
	<line fill="none" stroke="#000000" stroke-width="0.2" x1="287.34" y1="92.76" x2="269.06" y2="92.76"/>
	<line fill="none" stroke="#000000" stroke-width="0.2" x1="289.17" y1="92.87" x2="270.35" y2="92.87"/>
	<line fill="none" stroke="#000000" stroke-width="0.2" x1="290.94" y1="92.97" x2="271.55" y2="92.97"/>
	<line fill="none" stroke="#000000" stroke-width="0.2" x1="266.16" y1="91.8" x2="258.55" y2="91.8"/>
	<path fill="none" stroke="#000000" stroke-width="0.2" d="M272.89,85.06c0,3.72-3.01,6.74-6.73,6.74"/>
	<path fill="none" stroke="#000000" stroke-width="0.2" d="M266.16,91.32c3.45,0,6.26-2.8,6.26-6.26"/>
	<line fill="none" stroke="#000000" stroke-width="0.2" x1="265.18" y1="91.32" x2="266.16" y2="91.32"/>
	<line fill="none" stroke="#000000" stroke-width="0.2" x1="268.39" y1="91.42" x2="269.11" y2="91.42"/>
	<line fill="none" stroke="#000000" stroke-width="0.2" x1="271.35" y1="91.52" x2="271.87" y2="91.52"/>
	<line fill="none" stroke="#000000" stroke-width="0.2" x1="274.1" y1="91.63" x2="274.44" y2="91.63"/>
	<line fill="none" stroke="#000000" stroke-width="0.2" x1="274.44" y1="92.11" x2="259.54" y2="92.11"/>
	<line fill="none" stroke="#000000" stroke-width="0.2" x1="276.86" y1="92.23" x2="260.32" y2="92.23"/>
	<line fill="none" stroke="#000000" stroke-width="0.2" x1="276.66" y1="91.75" x2="276.86" y2="91.75"/>
	<line fill="none" stroke="#000000" stroke-width="0.2" x1="279.14" y1="92.35" x2="262.81" y2="92.35"/>
	<line fill="none" stroke="#000000" stroke-width="0.2" x1="281.34" y1="92.46" x2="264.53" y2="92.46"/>
	<line fill="none" stroke="#000000" stroke-width="0.2" x1="283.43" y1="92.56" x2="266.17" y2="92.56"/>
	<line fill="none" stroke="#000000" stroke-width="0.2" x1="285.42" y1="92.66" x2="267.68" y2="92.66"/>
	<path fill="none" stroke="#000000" stroke-width="0.2" d="M274.44,91.63c3.63,0,6.57-2.94,6.57-6.57"/>
	<path fill="none" stroke="#000000" stroke-width="0.2" d="M281.49,85.06c0,3.89-3.16,7.05-7.05,7.05"/>
	<path fill="none" stroke="#000000" stroke-width="0.2" d="M276.86,91.75c3.69,0,6.69-2.99,6.69-6.68"/>
	<path fill="none" stroke="#000000" stroke-width="0.2" d="M284.03,85.06c0,3.96-3.21,7.17-7.17,7.17"/>
	<path fill="none" stroke="#000000" stroke-width="0.2" d="M279.14,91.88c3.76,0,6.82-3.05,6.82-6.82"/>
	<path fill="none" stroke="#000000" stroke-width="0.2" d="M286.44,85.06c0,4.03-3.27,7.29-7.29,7.29"/>
	<path fill="none" stroke="#000000" stroke-width="0.2" d="M281.47,91.97c3.76-0.07,6.78-3.14,6.78-6.91"/>
	<path fill="none" stroke="#000000" stroke-width="0.2" d="M288.73,85.06c0,4.08-3.31,7.39-7.39,7.39"/>
	<path fill="none" stroke="#000000" stroke-width="0.2" d="M290.92,85.06c0,4.14-3.36,7.5-7.5,7.5"/>
	<path fill="none" stroke="#000000" stroke-width="0.2" d="M283.67,92.07c3.78-0.13,6.77-3.23,6.77-7.01"/>
	<path fill="none" stroke="#000000" stroke-width="0.2" d="M285.8,92.17c3.78-0.2,6.75-3.32,6.75-7.11"/>
	<path fill="none" stroke="#000000" stroke-width="0.2" d="M293.02,85.06c0,4.2-3.4,7.6-7.6,7.6"/>
	<line fill="none" stroke="#000000" stroke-width="0.2" x1="269.11" y1="91.9" x2="258.16" y2="91.9"/>
	<line fill="none" stroke="#000000" stroke-width="0.2" x1="271.87" y1="92" x2="257.57" y2="92"/>
	<line fill="none" stroke="#000000" stroke-width="0.2" x1="213.86" y1="91.63" x2="212.71" y2="91.63"/>
	<path fill="none" stroke="#000000" stroke-width="0.2" d="M202.79,85.06c0,3.32,2.58,6.05,5.89,6.25"/>
	<path fill="none" stroke="#000000" stroke-width="0.2" d="M209.05,91.8c-3.72,0-6.74-3.02-6.74-6.74"/>
	<path fill="none" stroke="#000000" stroke-width="0.2" d="M200.61,85.06c0,3.44,2.74,6.27,6.19,6.35"/>
	<path fill="none" stroke="#000000" stroke-width="0.2" d="M206.97,91.9c-3.77,0-6.83-3.06-6.83-6.84"/>
	<path fill="none" stroke="#000000" stroke-width="0.2" d="M204.67,92c-3.83,0-6.94-3.11-6.94-6.94"/>
	<path fill="none" stroke="#000000" stroke-width="0.2" d="M198.21,85.06c0,3.57,2.89,6.46,6.46,6.46"/>
	<path fill="none" stroke="#000000" stroke-width="0.2" d="M195.51,85.06c0,3.63,2.94,6.57,6.57,6.57"/>
	<path fill="none" stroke="#000000" stroke-width="0.2" d="M202.08,92.11c-3.89,0-7.05-3.15-7.05-7.05"/>
	<path fill="none" stroke="#000000" stroke-width="0.2" d="M192.4,85.06c0,3.69,2.99,6.68,6.68,6.68"/>
	<path fill="none" stroke="#000000" stroke-width="0.2" d="M199.09,92.23c-3.95,0-7.16-3.21-7.16-7.17"/>
	<path fill="none" stroke="#000000" stroke-width="0.2" d="M195.48,92.35c-4.03,0-7.29-3.27-7.29-7.29"/>
	<path fill="none" stroke="#000000" stroke-width="0.2" d="M188.67,85.06c0,3.76,3.05,6.82,6.81,6.82"/>
	<line fill="none" stroke="#000000" stroke-width="0.2" x1="214.51" y1="91.8" x2="209.05" y2="91.8"/>
	<line fill="none" stroke="#000000" stroke-width="0.2" x1="215.08" y1="91.9" x2="206.97" y2="91.9"/>
	<line fill="none" stroke="#000000" stroke-width="0.2" x1="216.02" y1="92" x2="204.67" y2="92"/>
	<line fill="none" stroke="#000000" stroke-width="0.2" x1="202.08" y1="91.63" x2="202.44" y2="91.63"/>
	<line fill="none" stroke="#000000" stroke-width="0.2" x1="214.88" y1="92.11" x2="202.08" y2="92.11"/>
	<line fill="none" stroke="#000000" stroke-width="0.2" x1="199.09" y1="91.75" x2="199.85" y2="91.75"/>
	<line fill="none" stroke="#000000" stroke-width="0.2" x1="213.74" y1="92.23" x2="199.09" y2="92.23"/>
	<line fill="none" stroke="#000000" stroke-width="0.2" x1="195.48" y1="91.88" x2="196.87" y2="91.88"/>
	<line fill="none" stroke="#000000" stroke-width="0.2" x1="212.61" y1="92.35" x2="195.48" y2="92.35"/>
	<path fill="none" stroke="#000000" stroke-width="0.2" d="M208.33,85.06c0,2.27,1.27,4.34,3.29,5.36"/>
	<path fill="none" stroke="#000000" stroke-width="0.2" d="M213.48,91.49c-3.22-0.43-5.62-3.18-5.62-6.43"/>
	<path fill="none" stroke="#000000" stroke-width="0.2" d="M206.62,85.06c0,3.08,2.3,5.68,5.36,6.04"/>
	<path fill="none" stroke="#000000" stroke-width="0.2" d="M212.71,91.63c-3.63,0-6.57-2.94-6.57-6.57"/>
	<path fill="none" stroke="#000000" stroke-width="0.2" d="M204.78,85.06c0,3.19,2.43,5.86,5.61,6.14"/>
	<path fill="none" stroke="#000000" stroke-width="0.2" d="M210.95,91.71c-3.67,0-6.65-2.97-6.65-6.65"/>
	<line fill="none" stroke="#000000" stroke-width="0.2" x1="214.14" y1="91.71" x2="210.95" y2="91.71"/>
	<line fill="none" stroke="#000000" stroke-width="0.2" x1="241.33" y1="76.08" x2="241.1" y2="76.11"/>
	<line fill="none" stroke="#000000" stroke-width="0.2" x1="241.33" y1="75.8" x2="241.33" y2="76.08"/>
	<line fill="none" stroke="#000000" stroke-width="0.2" x1="238" y1="75.79" x2="237.95" y2="75.83"/>
	<line fill="none" stroke="#000000" stroke-width="0.2" x1="238" y1="75.51" x2="238" y2="75.79"/>
	<line fill="none" stroke="#000000" stroke-width="0.2" x1="233.45" y1="77.47" x2="233.45" y2="77.18"/>
	<line fill="none" stroke="#000000" stroke-width="0.2" x1="244.81" y1="76.48" x2="244.81" y2="76.19"/>
	<line fill="none" stroke="#000000" stroke-width="0.2" x1="231.95" y1="76.68" x2="228.9" y2="76.88"/>
	<line fill="none" stroke="#000000" stroke-width="0.2" x1="233.45" y1="77.18" x2="231.95" y2="76.68"/>
	<line fill="none" stroke="#000000" stroke-width="0.2" x1="234.95" y1="76.68" x2="233.45" y2="77.18"/>
	<line fill="none" stroke="#000000" stroke-width="0.2" x1="238" y1="76.88" x2="234.95" y2="76.68"/>
	<line fill="none" stroke="#000000" stroke-width="0.2" x1="237.55" y1="76.55" x2="238" y2="76.88"/>
	<line fill="none" stroke="#000000" stroke-width="0.2" x1="241.33" y1="76.59" x2="237.55" y2="76.55"/>
	<line fill="none" stroke="#000000" stroke-width="0.2" x1="239.05" y1="76.33" x2="241.33" y2="76.59"/>
	<line fill="none" stroke="#000000" stroke-width="0.2" x1="244.81" y1="76.19" x2="239.05" y2="76.33"/>
	<line fill="none" stroke="#000000" stroke-width="0.2" x1="239.05" y1="76.06" x2="244.81" y2="76.19"/>
	<line fill="none" stroke="#000000" stroke-width="0.2" x1="241.33" y1="75.8" x2="239.05" y2="76.06"/>
	<line fill="none" stroke="#000000" stroke-width="0.2" x1="237.55" y1="75.84" x2="241.33" y2="75.8"/>
	<line fill="none" stroke="#000000" stroke-width="0.2" x1="238" y1="75.51" x2="237.55" y2="75.84"/>
	<line fill="none" stroke="#000000" stroke-width="0.2" x1="234.95" y1="75.71" x2="238" y2="75.51"/>
	<line fill="none" stroke="#000000" stroke-width="0.2" x1="233.45" y1="75.2" x2="234.95" y2="75.71"/>
	<line fill="none" stroke="#000000" stroke-width="0.2" x1="231.96" y1="75.7" x2="233.45" y2="75.2"/>
	<line fill="none" stroke="#000000" stroke-width="0.2" x1="228.9" y1="75.79" x2="228.95" y2="75.83"/>
	<line fill="none" stroke="#000000" stroke-width="0.2" x1="228.89" y1="75.51" x2="228.9" y2="75.79"/>
	<line fill="none" stroke="#000000" stroke-width="0.2" x1="228.89" y1="75.51" x2="231.96" y2="75.7"/>
	<line fill="none" stroke="#000000" stroke-width="0.2" x1="229.34" y1="75.84" x2="228.89" y2="75.51"/>
	<line fill="none" stroke="#000000" stroke-width="0.2" x1="225.56" y1="76.08" x2="225.79" y2="76.11"/>
	<line fill="none" stroke="#000000" stroke-width="0.2" x1="225.56" y1="75.8" x2="225.56" y2="76.08"/>
	<line fill="none" stroke="#000000" stroke-width="0.2" x1="225.56" y1="75.8" x2="229.34" y2="75.84"/>
	<line fill="none" stroke="#000000" stroke-width="0.2" x1="227.84" y1="76.06" x2="225.56" y2="75.8"/>
	<line fill="none" stroke="#000000" stroke-width="0.2" x1="222.07" y1="76.19" x2="227.84" y2="76.06"/>
	<line fill="none" stroke="#000000" stroke-width="0.2" x1="227.84" y1="76.33" x2="222.07" y2="76.19"/>
	<line fill="none" stroke="#000000" stroke-width="0.2" x1="225.56" y1="76.59" x2="227.84" y2="76.33"/>
	<line fill="none" stroke="#000000" stroke-width="0.2" x1="225.56" y1="76.59" x2="229.34" y2="76.55"/>
	<line fill="none" stroke="#000000" stroke-width="0.2" x1="228.9" y1="76.88" x2="229.35" y2="76.55"/>
	<line fill="none" stroke="#000000" stroke-width="0.2" x1="228.9" y1="77.17" x2="228.9" y2="76.88"/>
	<line fill="none" stroke="#000000" stroke-width="0.2" x1="228.9" y1="77.17" x2="231.95" y2="76.97"/>
	<line fill="none" stroke="#000000" stroke-width="0.2" x1="237.95" y1="76.84" x2="241.33" y2="76.88"/>
	<line fill="none" stroke="#000000" stroke-width="0.2" x1="241.1" y1="76.56" x2="244.81" y2="76.48"/>
	<line fill="none" stroke="#000000" stroke-width="0.2" x1="225.56" y1="76.88" x2="225.56" y2="76.59"/>
	<line fill="none" stroke="#000000" stroke-width="0.2" x1="225.56" y1="76.88" x2="228.95" y2="76.84"/>
	<line fill="none" stroke="#000000" stroke-width="0.2" x1="222.07" y1="76.48" x2="222.07" y2="76.19"/>
	<line fill="none" stroke="#000000" stroke-width="0.2" x1="222.07" y1="76.48" x2="225.79" y2="76.56"/>
	<path fill="none" stroke="#000000" stroke-width="0.2" d="M238.08,76.22c-0.15-0.22-2.35-0.4-4.91-0.38
		c-2.35,0.01-4.22,0.18-4.36,0.38"/>
	<line fill="none" stroke="#000000" stroke-width="0.2" x1="238" y1="77.17" x2="238" y2="76.88"/>
	<line fill="none" stroke="#000000" stroke-width="0.2" x1="233.45" y1="77.47" x2="234.95" y2="76.97"/>
	<line fill="none" stroke="#000000" stroke-width="0.2" x1="234.95" y1="76.97" x2="238" y2="77.17"/>
	<line fill="none" stroke="#000000" stroke-width="0.2" x1="231.95" y1="76.97" x2="233.45" y2="77.47"/>
	<line fill="none" stroke="#000000" stroke-width="0.2" x1="241.33" y1="76.88" x2="241.33" y2="76.59"/>
	<path fill="none" stroke="#000000" stroke-width="0.2" d="M260.24,79.03c3.01,0.41,5.26,2.99,5.26,6.03"/>
	<path fill="none" stroke="#000000" stroke-width="0.2" d="M265.98,85.06c0-3.62-2.94-6.56-6.57-6.56"/>
	<path fill="none" stroke="#000000" stroke-width="0.2" d="M269.59,85.06c0-3.67-2.98-6.64-6.65-6.64"/>
	<path fill="none" stroke="#000000" stroke-width="0.2" d="M262.94,78.89c3.41,0,6.17,2.76,6.17,6.17"/>
	<path fill="none" stroke="#000000" stroke-width="0.2" d="M295.04,85.06c0-4.25-3.45-7.7-7.7-7.7"/>
	<path fill="none" stroke="#000000" stroke-width="0.2" d="M287.83,77.86c3.79,0.26,6.72,3.41,6.72,7.21"/>
	<path fill="none" stroke="#000000" stroke-width="0.2" d="M296.98,85.06c0-4.31-3.49-7.8-7.8-7.8"/>
	<path fill="none" stroke="#000000" stroke-width="0.2" d="M289.79,77.76c3.79,0.32,6.71,3.49,6.71,7.3"/>
	<path fill="none" stroke="#000000" stroke-width="0.2" d="M291.67,77.67c3.8,0.38,6.69,3.58,6.69,7.39"/>
	<path fill="none" stroke="#000000" stroke-width="0.2" d="M298.84,85.06c0-4.37-3.54-7.91-7.91-7.91"/>
	<path fill="none" stroke="#000000" stroke-width="0.2" d="M275.95,85.06c0-3.77-3.06-6.83-6.83-6.83"/>
	<path fill="none" stroke="#000000" stroke-width="0.2" d="M269.11,78.71c3.51,0,6.36,2.85,6.36,6.35"/>
	<path fill="none" stroke="#000000" stroke-width="0.2" d="M278.8,85.06c0-3.83-3.1-6.93-6.94-6.93"/>
	<path fill="none" stroke="#000000" stroke-width="0.2" d="M271.87,78.61c3.57,0,6.46,2.89,6.46,6.46"/>
	<path fill="none" stroke="#000000" stroke-width="0.2" d="M272.89,85.06c0-3.72-3.01-6.74-6.73-6.74"/>
	<path fill="none" stroke="#000000" stroke-width="0.2" d="M266.16,78.81c3.45,0,6.26,2.8,6.26,6.26"/>
	<path fill="none" stroke="#000000" stroke-width="0.2" d="M274.44,78.5c3.63,0,6.57,2.94,6.57,6.57"/>
	<path fill="none" stroke="#000000" stroke-width="0.2" d="M281.49,85.06c0-3.89-3.16-7.04-7.05-7.04"/>
	<path fill="none" stroke="#000000" stroke-width="0.2" d="M276.86,78.38c3.69,0,6.69,2.99,6.69,6.69"/>
	<path fill="none" stroke="#000000" stroke-width="0.2" d="M284.03,85.06c0-3.95-3.21-7.16-7.17-7.16"/>
	<path fill="none" stroke="#000000" stroke-width="0.2" d="M279.14,78.25c3.76,0,6.82,3.05,6.82,6.81"/>
	<path fill="none" stroke="#000000" stroke-width="0.2" d="M286.44,85.06c0-4.03-3.27-7.29-7.29-7.29"/>
	<path fill="none" stroke="#000000" stroke-width="0.2" d="M281.47,78.15c3.76,0.07,6.78,3.14,6.78,6.91"/>
	<path fill="none" stroke="#000000" stroke-width="0.2" d="M288.73,85.06c0-4.08-3.31-7.39-7.39-7.39"/>
	<path fill="none" stroke="#000000" stroke-width="0.2" d="M290.92,85.06c0-4.14-3.36-7.49-7.5-7.49"/>
	<path fill="none" stroke="#000000" stroke-width="0.2" d="M283.67,78.05c3.78,0.14,6.77,3.23,6.77,7.01"/>
	<path fill="none" stroke="#000000" stroke-width="0.2" d="M285.8,77.95c3.78,0.2,6.75,3.32,6.75,7.11"/>
	<path fill="none" stroke="#000000" stroke-width="0.2" d="M293.02,85.06c0-4.2-3.4-7.6-7.6-7.6"/>
	<line fill="none" stroke="#000000" stroke-width="0.2" x1="213.86" y1="78.5" x2="212.71" y2="78.5"/>
	<path fill="none" stroke="#000000" stroke-width="0.2" d="M202.79,85.06c0-3.31,2.58-6.05,5.89-6.25"/>
	<path fill="none" stroke="#000000" stroke-width="0.2" d="M209.05,78.33c-3.72,0-6.74,3.01-6.74,6.74"/>
	<path fill="none" stroke="#000000" stroke-width="0.2" d="M200.61,85.06c0-3.45,2.74-6.26,6.19-6.35"/>
	<path fill="none" stroke="#000000" stroke-width="0.2" d="M206.97,78.23c-3.77,0-6.83,3.06-6.83,6.83"/>
	<path fill="none" stroke="#000000" stroke-width="0.2" d="M204.67,78.13c-3.83,0-6.94,3.1-6.94,6.93"/>
	<path fill="none" stroke="#000000" stroke-width="0.2" d="M198.21,85.06c0-3.56,2.89-6.46,6.46-6.46"/>
	<path fill="none" stroke="#000000" stroke-width="0.2" d="M195.51,85.06c0-3.63,2.94-6.57,6.57-6.57"/>
	<path fill="none" stroke="#000000" stroke-width="0.2" d="M202.08,78.02c-3.89,0-7.05,3.15-7.05,7.04"/>
	<path fill="none" stroke="#000000" stroke-width="0.2" d="M192.4,85.06c0-3.69,2.99-6.69,6.68-6.69"/>
	<path fill="none" stroke="#000000" stroke-width="0.2" d="M199.09,77.9c-3.95,0-7.16,3.21-7.16,7.16"/>
	<path fill="none" stroke="#000000" stroke-width="0.2" d="M195.48,77.77c-4.03,0-7.29,3.26-7.29,7.29"/>
	<path fill="none" stroke="#000000" stroke-width="0.2" d="M188.67,85.06c0-3.76,3.05-6.81,6.81-6.81"/>
	<line fill="none" stroke="#000000" stroke-width="0.2" x1="214.51" y1="78.33" x2="209.05" y2="78.33"/>
	<line fill="none" stroke="#000000" stroke-width="0.2" x1="215.08" y1="78.23" x2="206.97" y2="78.23"/>
	<line fill="none" stroke="#000000" stroke-width="0.2" x1="216.02" y1="78.13" x2="204.67" y2="78.13"/>
	<line fill="none" stroke="#000000" stroke-width="0.2" x1="202.08" y1="78.5" x2="202.44" y2="78.5"/>
	<line fill="none" stroke="#000000" stroke-width="0.2" x1="214.88" y1="78.02" x2="202.08" y2="78.02"/>
	<line fill="none" stroke="#000000" stroke-width="0.2" x1="199.09" y1="78.38" x2="199.85" y2="78.38"/>
	<line fill="none" stroke="#000000" stroke-width="0.2" x1="213.74" y1="77.9" x2="199.09" y2="77.9"/>
	<line fill="none" stroke="#000000" stroke-width="0.2" x1="195.48" y1="78.25" x2="196.87" y2="78.25"/>
	<line fill="none" stroke="#000000" stroke-width="0.2" x1="212.61" y1="77.77" x2="195.48" y2="77.77"/>
	<path fill="none" stroke="#000000" stroke-width="0.2" d="M208.33,85.06c0-2.26,1.27-4.34,3.29-5.36"/>
	<path fill="none" stroke="#000000" stroke-width="0.2" d="M213.48,78.63c-3.22,0.43-5.62,3.18-5.62,6.43"/>
	<path fill="none" stroke="#000000" stroke-width="0.2" d="M206.62,85.06c0-3.08,2.3-5.67,5.36-6.04"/>
	<path fill="none" stroke="#000000" stroke-width="0.2" d="M212.71,78.5c-3.63,0-6.57,2.94-6.57,6.56"/>
	<path fill="none" stroke="#000000" stroke-width="0.2" d="M204.78,85.06c0-3.19,2.43-5.86,5.61-6.14"/>
	<path fill="none" stroke="#000000" stroke-width="0.2" d="M210.95,78.42c-3.67,0-6.65,2.97-6.65,6.64"/>
	<line fill="none" stroke="#000000" stroke-width="0.2" x1="214.14" y1="78.42" x2="210.95" y2="78.42"/>
	<line fill="none" stroke="#000000" stroke-width="0.2" x1="131.01" y1="102.85" x2="128.74" y2="102.85"/>
	<line fill="none" stroke="#000000" stroke-width="0.2" x1="131.01" y1="106.92" x2="128.74" y2="106.92"/>
	<path fill="none" stroke="#000000" stroke-width="0.2" d="M131.01,106.92c1.12,0,2.03-0.91,2.03-2.04c0-1.12-0.91-2.03-2.03-2.03"
		/>
	<path fill="none" stroke="#000000" stroke-width="0.2" d="M130.77,104.88c0-1.12-0.91-2.03-2.03-2.03c-1.13,0-2.04,0.91-2.04,2.03
		c0,1.12,0.91,2.04,2.04,2.04C129.86,106.92,130.77,106.01,130.77,104.88z"/>
	<path fill="none" stroke="#000000" stroke-width="0.2" d="M129.87,103.2c-0.93,0.62-1.18,1.89-0.56,2.82
		c0.15,0.22,0.34,0.41,0.56,0.55"/>
	<line fill="none" stroke="#000000" stroke-width="0.2" x1="131.01" y1="67.27" x2="128.74" y2="67.27"/>
	<line fill="none" stroke="#000000" stroke-width="0.2" x1="131.01" y1="63.21" x2="128.74" y2="63.21"/>
	<path fill="none" stroke="#000000" stroke-width="0.2" d="M131.01,63.21c1.12,0,2.03,0.91,2.03,2.03c0,1.12-0.91,2.03-2.03,2.03"/>
	<path fill="none" stroke="#000000" stroke-width="0.2" d="M130.77,65.24c0-1.12-0.91-2.03-2.03-2.03c-1.13,0-2.04,0.91-2.04,2.03
		c0,1.12,0.91,2.03,2.04,2.03C129.86,67.27,130.77,66.36,130.77,65.24z"/>
	<path fill="none" stroke="#000000" stroke-width="0.2" d="M129.87,66.93c-0.93-0.63-1.18-1.89-0.56-2.82
		c0.15-0.22,0.34-0.41,0.56-0.55"/>
	<path fill="none" stroke="#000000" stroke-width="0.2" d="M212.59,88.22c-0.41,0-0.75,0.43-0.75,0.96c0,0.53,0.34,0.96,0.75,0.96
		c0.42,0,0.75-0.43,0.75-0.96C213.34,88.65,213,88.22,212.59,88.22z"/>
	<path fill="none" stroke="#000000" stroke-width="0.2" d="M212.59,80.57c-0.41,0-0.75,0.43-0.75,0.96c0,0.52,0.34,0.95,0.75,0.95
		c0.42,0,0.75-0.43,0.75-0.95C213.34,81,213,80.57,212.59,80.57z"/>
	<path fill="none" stroke="#000000" stroke-width="0.2" d="M222.42,88.65c-0.41,0-0.75,0.43-0.75,0.96c0,0.53,0.34,0.95,0.75,0.95
		c0.42,0,0.75-0.43,0.75-0.95C223.17,89.08,222.83,88.65,222.42,88.65z"/>
	<path fill="none" stroke="#000000" stroke-width="0.2" d="M222.42,79.56c-0.41,0-0.75,0.43-0.75,0.96c0,0.53,0.34,0.96,0.75,0.96
		c0.42,0,0.75-0.43,0.75-0.96C223.17,79.99,222.83,79.56,222.42,79.56z"/>
	<path fill="none" stroke="#000000" stroke-width="0.2" d="M227.77,86.89c-0.72,0-1.29,0.74-1.29,1.65c0,0.91,0.58,1.65,1.29,1.65
		c0.72,0,1.3-0.74,1.3-1.65C229.06,87.63,228.48,86.89,227.77,86.89z"/>
	<path fill="none" stroke="#000000" stroke-width="0.2" d="M213.16,83.42c-0.72,0-1.3,0.73-1.3,1.64c0,0.91,0.58,1.65,1.3,1.65
		c0.72,0,1.3-0.74,1.3-1.65C214.46,84.15,213.88,83.42,213.16,83.42z"/>
	<path fill="none" stroke="#000000" stroke-width="0.2" d="M227.77,79.94c-0.72,0-1.29,0.74-1.29,1.64c0,0.91,0.58,1.65,1.29,1.65
		c0.72,0,1.3-0.74,1.3-1.65C229.06,80.68,228.48,79.94,227.77,79.94z"/>
	<path fill="none" stroke="#000000" stroke-width="0.2" d="M217.12,79.98c-0.72,0-1.3,0.74-1.3,1.65c0,0.91,0.58,1.65,1.3,1.65
		c0.71,0,1.29-0.74,1.29-1.65C218.41,80.72,217.83,79.98,217.12,79.98z"/>
	<line fill="none" stroke="#000000" stroke-width="0.2" x1="212.59" y1="90.13" x2="216.94" y2="90.13"/>
	<line fill="none" stroke="#000000" stroke-width="0.2" x1="212.59" y1="82.48" x2="216.01" y2="82.48"/>
	<line fill="none" stroke="#000000" stroke-width="0.2" x1="212.59" y1="88.22" x2="215.84" y2="88.22"/>
	<line fill="none" stroke="#000000" stroke-width="0.2" x1="212.59" y1="80.57" x2="216.12" y2="80.57"/>
	<line fill="none" stroke="#000000" stroke-width="0.2" x1="222.42" y1="88.65" x2="226.47" y2="88.65"/>
	<line fill="none" stroke="#000000" stroke-width="0.2" x1="222.42" y1="90.56" x2="244.91" y2="90.56"/>
	<line fill="none" stroke="#000000" stroke-width="0.2" x1="222.42" y1="81.48" x2="226.47" y2="81.48"/>
	<line fill="none" stroke="#000000" stroke-width="0.2" x1="222.42" y1="79.56" x2="244.92" y2="79.56"/>
	<line fill="none" stroke="#000000" stroke-width="0.2" x1="217.4" y1="86.89" x2="249.96" y2="86.89"/>
	<line fill="none" stroke="#000000" stroke-width="0.2" x1="227.77" y1="90.19" x2="249.96" y2="90.19"/>
	<line fill="none" stroke="#000000" stroke-width="0.2" x1="217.4" y1="83.23" x2="249.96" y2="83.23"/>
	<line fill="none" stroke="#000000" stroke-width="0.2" x1="213.16" y1="86.71" x2="224.06" y2="86.71"/>
	<line fill="none" stroke="#000000" stroke-width="0.2" x1="213.16" y1="83.42" x2="224.06" y2="83.42"/>
	<line fill="none" stroke="#000000" stroke-width="0.2" x1="227.77" y1="79.94" x2="249.96" y2="79.94"/>
	<line fill="none" stroke="#000000" stroke-width="0.2" x1="217.12" y1="79.98" x2="221.8" y2="79.98"/>
	<path fill="none" stroke="#000000" stroke-width="0.2" d="M217.12,86.85c-0.72,0-1.3,0.74-1.3,1.65c0,0.91,0.58,1.65,1.3,1.65
		c0.71,0,1.29-0.74,1.29-1.65C218.41,87.59,217.83,86.85,217.12,86.85z"/>
	<line fill="none" stroke="#000000" stroke-width="0.2" x1="217.12" y1="90.15" x2="221.8" y2="90.15"/>
	<path fill="none" stroke="#000000" stroke-width="0.2" d="M254.55,83.42c1.15,0,2.09,0.73,2.09,1.64c0,0.91-0.93,1.65-2.09,1.65"/>
	<path fill="none" stroke="#000000" stroke-width="0.2" d="M234.85,83.42c-0.72,0-1.3,0.73-1.3,1.64c0,0.91,0.58,1.65,1.3,1.65
		c0.72,0,1.3-0.74,1.3-1.65C236.15,84.15,235.57,83.42,234.85,83.42z"/>
	<line fill="none" stroke="#000000" stroke-width="0.2" x1="234.85" y1="83.42" x2="254.55" y2="83.42"/>
	<line fill="none" stroke="#000000" stroke-width="0.2" x1="234.85" y1="86.71" x2="254.55" y2="86.71"/>
	<path fill="none" stroke="#000000" stroke-width="0.2" d="M224.06,83.42c1.15,0,2.09,0.73,2.09,1.64c0,0.91-0.94,1.65-2.09,1.65"/>
	<path fill="none" stroke="#000000" stroke-width="0.2" d="M249.96,79.94c1.16,0,2.09,0.74,2.09,1.64c0,0.91-0.93,1.65-2.09,1.65"/>
	<path fill="none" stroke="#000000" stroke-width="0.2" d="M244.91,79.56c0.38,0,0.73,0.14,0.96,0.38"/>
	<path fill="none" stroke="#000000" stroke-width="0.2" d="M244.91,90.56c0.38,0,0.73-0.14,0.97-0.38"/>
	<path fill="none" stroke="#000000" stroke-width="0.2" d="M249.96,86.89c1.16,0,2.09,0.74,2.09,1.65c0,0.91-0.93,1.65-2.09,1.65"/>
	<g>
		<polygon fill="none" stroke="#000000" stroke-width="0.2" points="647.56,51.21 648.15,54.37 648.36,54.33 647.77,51.17 		"/>
		<polygon fill="none" stroke="#000000" stroke-width="0.2" points="648.15,54.4 648.68,57.57 648.89,57.54 648.36,54.37 		"/>
		<polygon fill="none" stroke="#000000" stroke-width="0.2" points="648.68,57.61 649.15,60.79 649.36,60.76 648.89,57.58 		"/>
		
			<rect x="649.35" y="60.76" transform="matrix(0.9918 -0.1277 0.1277 0.9918 -2.6469 83.4603)" fill="none" stroke="#000000" stroke-width="0.2" width="0.21" height="3.21"/>
		<polygon fill="none" stroke="#000000" stroke-width="0.2" points="649.56,64.01 649.92,67.2 650.13,67.18 649.78,63.99 		"/>
		
			<rect x="650.07" y="67.23" transform="matrix(0.9958 -0.0913 0.0913 0.9958 -3.5684 59.6185)" fill="none" stroke="#000000" stroke-width="0.2" width="0.21" height="3.21"/>
		
			<rect x="650.33" y="70.46" transform="matrix(0.9973 -0.0729 0.0729 0.9973 -3.5234 47.6149)" fill="none" stroke="#000000" stroke-width="0.2" width="0.25" height="3.21"/>
		
			<rect x="650.54" y="73.71" transform="matrix(0.9985 -0.0553 0.0553 0.9985 -3.1702 36.1114)" fill="none" stroke="#000000" stroke-width="0.2" width="0.21" height="3.21"/>
		
			<rect x="650.69" y="76.96" transform="matrix(0.9993 -0.0365 0.0365 0.9993 -2.4325 23.7902)" fill="none" stroke="#000000" stroke-width="0.2" width="0.22" height="3.21"/>
		
			<rect x="650.77" y="80.21" transform="matrix(0.9998 -0.0182 0.0182 0.9998 -1.3845 11.8905)" fill="none" stroke="#000000" stroke-width="0.2" width="0.22" height="3.21"/>
		<rect x="650.81" y="83.45" fill="none" stroke="#000000" stroke-width="0.2" width="0.22" height="3.21"/>
		
			<rect x="647.5" y="50.65" transform="matrix(0.9817 -0.1905 0.1905 0.9817 2.2527 124.7815)" fill="none" stroke="#000000" stroke-width="0.2" width="5.47" height="0.04"/>
		<polygon fill="none" stroke="#000000" stroke-width="0.2" points="653.52,53.43 648.14,54.37 648.14,54.4 653.53,53.46 		"/>
		<polygon fill="none" stroke="#000000" stroke-width="0.2" points="654.07,56.73 648.67,57.57 648.67,57.61 654.07,56.77 		"/>
		<polygon fill="none" stroke="#000000" stroke-width="0.2" points="654.55,60.01 649.13,60.76 649.14,60.79 654.55,60.04 		"/>
		<polygon fill="none" stroke="#000000" stroke-width="0.2" points="654.98,63.33 649.55,63.98 649.55,64.01 654.98,63.37 		"/>
		<polygon fill="none" stroke="#000000" stroke-width="0.2" points="655.34,66.66 649.91,67.21 649.91,67.24 655.35,66.69 		"/>
		<polygon fill="none" stroke="#000000" stroke-width="0.2" points="655.65,69.99 650.2,70.44 650.2,70.48 655.65,70.03 		"/>
		<polygon fill="none" stroke="#000000" stroke-width="0.2" points="655.89,73.33 650.44,73.68 650.44,73.72 655.89,73.37 		"/>
		<polygon fill="none" stroke="#000000" stroke-width="0.2" points="656.08,76.68 650.62,76.93 650.62,76.96 656.08,76.71 		"/>
		
			<rect x="650.73" y="80.1" transform="matrix(0.9996 -0.0272 0.0272 0.9996 -1.9343 17.7716)" fill="none" stroke="#000000" stroke-width="0.2" width="5.47" height="0.04"/>
		<polygon fill="none" stroke="#000000" stroke-width="0.2" points="656.26,83.37 650.8,83.42 650.8,83.45 656.26,83.41 		"/>
		<rect x="643.37" y="46.84" fill="none" stroke="#000000" stroke-width="0.2" width="3.31" height="0.2"/>
		<rect x="640.02" y="46.84" fill="none" stroke="#000000" stroke-width="0.2" width="3.31" height="0.2"/>
		<rect x="636.67" y="46.84" fill="none" stroke="#000000" stroke-width="0.2" width="3.31" height="0.2"/>
		<rect x="633.32" y="46.84" fill="none" stroke="#000000" stroke-width="0.2" width="3.31" height="0.2"/>
		<rect x="629.98" y="46.84" fill="none" stroke="#000000" stroke-width="0.2" width="3.31" height="0.2"/>
		<rect x="626.63" y="46.84" fill="none" stroke="#000000" stroke-width="0.2" width="3.31" height="0.2"/>
		<rect x="623.28" y="46.84" fill="none" stroke="#000000" stroke-width="0.2" width="3.31" height="0.2"/>
		<rect x="619.93" y="46.84" fill="none" stroke="#000000" stroke-width="0.2" width="3.31" height="0.2"/>
		<rect x="616.58" y="46.84" fill="none" stroke="#000000" stroke-width="0.2" width="3.31" height="0.2"/>
		<rect x="613.23" y="46.84" fill="none" stroke="#000000" stroke-width="0.2" width="3.31" height="0.2"/>
		<rect x="609.88" y="46.84" fill="none" stroke="#000000" stroke-width="0.2" width="3.31" height="0.2"/>
		<rect x="606.53" y="46.84" fill="none" stroke="#000000" stroke-width="0.2" width="3.31" height="0.2"/>
		<rect x="603.19" y="46.84" fill="none" stroke="#000000" stroke-width="0.2" width="3.31" height="0.2"/>
		<rect x="599.84" y="46.84" fill="none" stroke="#000000" stroke-width="0.2" width="3.31" height="0.2"/>
		<rect x="596.49" y="46.84" fill="none" stroke="#000000" stroke-width="0.2" width="3.31" height="0.2"/>
		<rect x="593.14" y="46.84" fill="none" stroke="#000000" stroke-width="0.2" width="3.31" height="0.2"/>
		<rect x="589.79" y="46.84" fill="none" stroke="#000000" stroke-width="0.2" width="3.31" height="0.2"/>
		<rect x="586.44" y="46.84" fill="none" stroke="#000000" stroke-width="0.2" width="3.31" height="0.2"/>
		<rect x="583.09" y="46.84" fill="none" stroke="#000000" stroke-width="0.2" width="3.31" height="0.2"/>
		<rect x="579.74" y="46.84" fill="none" stroke="#000000" stroke-width="0.2" width="3.31" height="0.2"/>
		<rect x="576.39" y="46.84" fill="none" stroke="#000000" stroke-width="0.2" width="3.31" height="0.2"/>
		<rect x="573.05" y="46.84" fill="none" stroke="#000000" stroke-width="0.2" width="3.31" height="0.2"/>
		<rect x="646.73" y="46.84" fill="none" stroke="#000000" stroke-width="0.2" width="4.42" height="0.21"/>
		<rect x="643.37" y="123.09" fill="none" stroke="#000000" stroke-width="0.2" width="3.31" height="0.2"/>
		<rect x="640.02" y="123.09" fill="none" stroke="#000000" stroke-width="0.2" width="3.31" height="0.2"/>
		<rect x="636.67" y="123.09" fill="none" stroke="#000000" stroke-width="0.2" width="3.31" height="0.2"/>
		<rect x="633.32" y="123.09" fill="none" stroke="#000000" stroke-width="0.2" width="3.31" height="0.2"/>
		<rect x="629.98" y="123.09" fill="none" stroke="#000000" stroke-width="0.2" width="3.31" height="0.2"/>
		<rect x="626.63" y="123.09" fill="none" stroke="#000000" stroke-width="0.2" width="3.31" height="0.2"/>
		<rect x="623.28" y="123.09" fill="none" stroke="#000000" stroke-width="0.2" width="3.31" height="0.2"/>
		<rect x="619.93" y="123.09" fill="none" stroke="#000000" stroke-width="0.2" width="3.31" height="0.2"/>
		<rect x="616.58" y="123.09" fill="none" stroke="#000000" stroke-width="0.2" width="3.31" height="0.2"/>
		<rect x="613.23" y="123.09" fill="none" stroke="#000000" stroke-width="0.2" width="3.31" height="0.2"/>
		<rect x="609.88" y="123.09" fill="none" stroke="#000000" stroke-width="0.2" width="3.31" height="0.2"/>
		<rect x="606.53" y="123.09" fill="none" stroke="#000000" stroke-width="0.2" width="3.31" height="0.2"/>
		<rect x="603.19" y="123.09" fill="none" stroke="#000000" stroke-width="0.2" width="3.31" height="0.2"/>
		<rect x="599.84" y="123.09" fill="none" stroke="#000000" stroke-width="0.2" width="3.31" height="0.2"/>
		<rect x="596.49" y="123.09" fill="none" stroke="#000000" stroke-width="0.2" width="3.31" height="0.2"/>
		<rect x="593.14" y="123.09" fill="none" stroke="#000000" stroke-width="0.2" width="3.31" height="0.2"/>
		<rect x="589.79" y="123.09" fill="none" stroke="#000000" stroke-width="0.2" width="3.31" height="0.2"/>
		<rect x="586.44" y="123.09" fill="none" stroke="#000000" stroke-width="0.2" width="3.31" height="0.2"/>
		<rect x="583.09" y="123.09" fill="none" stroke="#000000" stroke-width="0.2" width="3.31" height="0.2"/>
		<rect x="579.74" y="123.09" fill="none" stroke="#000000" stroke-width="0.2" width="3.31" height="0.2"/>
		<rect x="576.39" y="123.09" fill="none" stroke="#000000" stroke-width="0.2" width="3.31" height="0.2"/>
		<rect x="573.05" y="123.09" fill="none" stroke="#000000" stroke-width="0.2" width="3.31" height="0.2"/>
		<rect x="646.72" y="123.09" fill="none" stroke="#000000" stroke-width="0.2" width="4.42" height="0.2"/>
		<polygon fill="none" stroke="#000000" stroke-width="0.2" points="647.56,118.92 648.15,115.76 648.36,115.8 647.77,118.96 		"/>
		<polygon fill="none" stroke="#000000" stroke-width="0.2" points="648.15,115.72 648.68,112.55 648.89,112.59 648.36,115.76 		"/>
		<polygon fill="none" stroke="#000000" stroke-width="0.2" points="648.68,112.52 649.15,109.34 649.36,109.37 648.89,112.55 		"/>
		<polygon fill="none" stroke="#000000" stroke-width="0.2" points="649.15,109.34 649.56,106.15 649.77,106.17 649.36,109.36 		"/>
		
			<rect x="648.24" y="104.42" transform="matrix(0.1093 -0.994 0.994 0.1093 474.8859 739.0481)" fill="none" stroke="#000000" stroke-width="0.2" width="3.21" height="0.21"/>
		
			<rect x="648.57" y="101.19" transform="matrix(0.0912 -0.9958 0.9958 0.0912 490.0202 739.5239)" fill="none" stroke="#000000" stroke-width="0.2" width="3.21" height="0.21"/>
		<polygon fill="none" stroke="#000000" stroke-width="0.2" points="650.21,99.65 650.45,96.45 650.69,96.46 650.46,99.67 		"/>
		
			<rect x="649.04" y="94.7" transform="matrix(0.0553 -0.9985 0.9985 0.0553 520.0267 739.2243)" fill="none" stroke="#000000" stroke-width="0.2" width="3.21" height="0.21"/>
		<polygon fill="none" stroke="#000000" stroke-width="0.2" points="650.63,93.17 650.75,89.95 650.96,89.96 650.85,93.17 		"/>
		
			<rect x="649.28" y="88.2" transform="matrix(0.0182 -0.9998 0.9998 0.0182 550.7224 737.4789)" fill="none" stroke="#000000" stroke-width="0.2" width="3.21" height="0.22"/>
		<polygon fill="none" stroke="#000000" stroke-width="0.2" points="653.52,116.7 648.14,115.75 648.14,115.72 653.53,116.66 		"/>
		<polygon fill="none" stroke="#000000" stroke-width="0.2" points="654.07,113.39 648.67,112.55 648.67,112.52 654.07,113.36 		"/>
		<polygon fill="none" stroke="#000000" stroke-width="0.2" points="654.55,110.12 649.13,109.37 649.14,109.33 654.55,110.08 		"/>
		<polygon fill="none" stroke="#000000" stroke-width="0.2" points="654.98,106.8 649.55,106.15 649.55,106.11 654.98,106.76 		"/>
		<polygon fill="none" stroke="#000000" stroke-width="0.2" points="655.34,103.47 649.91,102.92 649.91,102.88 655.35,103.43 		"/>
		<polygon fill="none" stroke="#000000" stroke-width="0.2" points="655.65,100.13 650.2,99.68 650.2,99.65 655.65,100.1 		"/>
		<polygon fill="none" stroke="#000000" stroke-width="0.2" points="655.89,96.79 650.44,96.45 650.44,96.41 655.89,96.76 		"/>
		<polygon fill="none" stroke="#000000" stroke-width="0.2" points="656.08,93.45 650.62,93.2 650.62,93.17 656.08,93.41 		"/>
		<polygon fill="none" stroke="#000000" stroke-width="0.2" points="656.2,90.1 650.73,89.95 650.74,89.92 656.2,90.07 		"/>
		<polygon fill="none" stroke="#000000" stroke-width="0.2" points="656.26,86.75 650.8,86.7 650.8,86.67 656.26,86.72 		"/>
		<polygon fill="none" stroke="#000000" stroke-width="0.2" points="647.77,51.13 647.56,51.17 646.78,47.35 647,47.35 
			647.77,51.13 		"/>
		<polygon fill="none" stroke="#000000" stroke-width="0.2" points="652.91,119.99 647.55,118.95 647.55,118.91 652.92,119.96 		"/>
		<polygon fill="none" stroke="#000000" stroke-width="0.2" points="647.77,119 647.56,118.95 646.78,122.78 647,122.78 647.77,119 
					"/>
		<path fill="none" stroke="#000000" stroke-width="0.2" d="M652.23,46.55c5.45,25.38,5.5,51.63,0.05,77.02"/>
	</g>
	<polygon fill="none" stroke="#000000" stroke-width="0.2" points="653.73,86.47 653.73,83.65 656.02,83.65 656.02,86.47 
		653.78,86.47 	"/>
	<polygon fill="none" stroke="#000000" stroke-width="0.2" points="651.45,86.47 651.45,83.65 653.74,83.65 653.74,86.47 
		651.45,86.47 	"/>
	<line fill="none" stroke="#000000" stroke-width="0.2" x1="649.07" y1="121.39" x2="649.56" y2="121.67"/>
	<line fill="none" stroke="#000000" stroke-width="0.2" x1="649.4" y1="121.41" x2="649.83" y2="121.65"/>
	<line fill="none" stroke="#000000" stroke-width="0.2" x1="650.64" y1="120.87" x2="651.13" y2="121.16"/>
	<line fill="none" stroke="#000000" stroke-width="0.2" x1="650.49" y1="120.6" x2="651.04" y2="120.92"/>
	<line fill="none" stroke="#000000" stroke-width="0.2" x1="651.11" y1="120.82" x2="651.63" y2="121.11"/>
	<line fill="none" stroke="#000000" stroke-width="0.2" x1="649.7" y1="118.14" x2="650.19" y2="118.42"/>
	<line fill="none" stroke="#000000" stroke-width="0.2" x1="650.03" y1="118.15" x2="650.46" y2="118.4"/>
	<line fill="none" stroke="#000000" stroke-width="0.2" x1="651.27" y1="117.62" x2="651.76" y2="117.9"/>
	<line fill="none" stroke="#000000" stroke-width="0.2" x1="651.12" y1="117.35" x2="651.67" y2="117.66"/>
	<line fill="none" stroke="#000000" stroke-width="0.2" x1="651.75" y1="117.56" x2="652.26" y2="117.86"/>
	<line fill="none" stroke="#000000" stroke-width="0.2" x1="650.27" y1="114.94" x2="650.77" y2="115.22"/>
	<line fill="none" stroke="#000000" stroke-width="0.2" x1="650.61" y1="114.95" x2="651.03" y2="115.2"/>
	<line fill="none" stroke="#000000" stroke-width="0.2" x1="651.84" y1="114.42" x2="652.34" y2="114.7"/>
	<line fill="none" stroke="#000000" stroke-width="0.2" x1="651.7" y1="114.15" x2="652.25" y2="114.46"/>
	<line fill="none" stroke="#000000" stroke-width="0.2" x1="652.32" y1="114.36" x2="652.84" y2="114.66"/>
	<line fill="none" stroke="#000000" stroke-width="0.2" x1="650.96" y1="111.84" x2="651.45" y2="112.13"/>
	<line fill="none" stroke="#000000" stroke-width="0.2" x1="651.29" y1="111.86" x2="651.72" y2="112.1"/>
	<line fill="none" stroke="#000000" stroke-width="0.2" x1="652.53" y1="111.32" x2="653.02" y2="111.61"/>
	<line fill="none" stroke="#000000" stroke-width="0.2" x1="652.38" y1="111.05" x2="652.93" y2="111.37"/>
	<line fill="none" stroke="#000000" stroke-width="0.2" x1="653" y1="111.27" x2="653.52" y2="111.57"/>
	<line fill="none" stroke="#000000" stroke-width="0.2" x1="650.96" y1="108.59" x2="651.45" y2="108.87"/>
	<line fill="none" stroke="#000000" stroke-width="0.2" x1="651.29" y1="108.6" x2="651.72" y2="108.85"/>
	<line fill="none" stroke="#000000" stroke-width="0.2" x1="652.53" y1="108.07" x2="653.02" y2="108.35"/>
	<line fill="none" stroke="#000000" stroke-width="0.2" x1="652.38" y1="107.8" x2="652.93" y2="108.12"/>
	<line fill="none" stroke="#000000" stroke-width="0.2" x1="653" y1="108.02" x2="653.52" y2="108.32"/>
	<line fill="none" stroke="#000000" stroke-width="0.2" x1="651.59" y1="105.13" x2="652.08" y2="105.41"/>
	<line fill="none" stroke="#000000" stroke-width="0.2" x1="651.92" y1="105.14" x2="652.35" y2="105.39"/>
	<line fill="none" stroke="#000000" stroke-width="0.2" x1="653.16" y1="104.61" x2="653.65" y2="104.89"/>
	<line fill="none" stroke="#000000" stroke-width="0.2" x1="653.01" y1="104.33" x2="653.56" y2="104.66"/>
	<line fill="none" stroke="#000000" stroke-width="0.2" x1="653.63" y1="104.55" x2="654.15" y2="104.85"/>
	<line fill="none" stroke="#000000" stroke-width="0.2" x1="652.16" y1="101.72" x2="652.65" y2="102"/>
	<line fill="none" stroke="#000000" stroke-width="0.2" x1="652.5" y1="101.74" x2="652.92" y2="101.98"/>
	<line fill="none" stroke="#000000" stroke-width="0.2" x1="653.73" y1="101.2" x2="654.23" y2="101.48"/>
	<line fill="none" stroke="#000000" stroke-width="0.2" x1="653.59" y1="100.93" x2="654.14" y2="101.25"/>
	<line fill="none" stroke="#000000" stroke-width="0.2" x1="654.21" y1="101.14" x2="654.73" y2="101.44"/>
	<line fill="none" stroke="#000000" stroke-width="0.2" x1="652.16" y1="98.57" x2="652.65" y2="98.85"/>
	<line fill="none" stroke="#000000" stroke-width="0.2" x1="652.5" y1="98.59" x2="652.92" y2="98.83"/>
	<line fill="none" stroke="#000000" stroke-width="0.2" x1="653.73" y1="98.05" x2="654.23" y2="98.34"/>
	<line fill="none" stroke="#000000" stroke-width="0.2" x1="653.59" y1="97.78" x2="654.14" y2="98.1"/>
	<line fill="none" stroke="#000000" stroke-width="0.2" x1="654.21" y1="97.99" x2="654.73" y2="98.3"/>
	<line fill="none" stroke="#000000" stroke-width="0.2" x1="652.77" y1="91.87" x2="653.27" y2="92.15"/>
	<line fill="none" stroke="#000000" stroke-width="0.2" x1="653.11" y1="91.88" x2="653.53" y2="92.13"/>
	<line fill="none" stroke="#000000" stroke-width="0.2" x1="654.34" y1="91.35" x2="654.84" y2="91.63"/>
	<line fill="none" stroke="#000000" stroke-width="0.2" x1="654.2" y1="91.08" x2="654.75" y2="91.39"/>
	<line fill="none" stroke="#000000" stroke-width="0.2" x1="654.82" y1="91.29" x2="655.34" y2="91.59"/>
	<line fill="none" stroke="#000000" stroke-width="0.2" x1="652.77" y1="88.52" x2="653.27" y2="88.8"/>
	<line fill="none" stroke="#000000" stroke-width="0.2" x1="653.11" y1="88.53" x2="653.53" y2="88.78"/>
	<line fill="none" stroke="#000000" stroke-width="0.2" x1="654.34" y1="88" x2="654.84" y2="88.29"/>
	<line fill="none" stroke="#000000" stroke-width="0.2" x1="654.2" y1="87.73" x2="654.75" y2="88.05"/>
	<line fill="none" stroke="#000000" stroke-width="0.2" x1="654.82" y1="87.94" x2="655.34" y2="88.25"/>
	<line fill="none" stroke="#000000" stroke-width="0.2" x1="649.07" y1="49.3" x2="649.56" y2="49.59"/>
	<line fill="none" stroke="#000000" stroke-width="0.2" x1="649.4" y1="49.32" x2="649.83" y2="49.56"/>
	<line fill="none" stroke="#000000" stroke-width="0.2" x1="650.64" y1="48.78" x2="651.13" y2="49.07"/>
	<line fill="none" stroke="#000000" stroke-width="0.2" x1="650.49" y1="48.51" x2="651.04" y2="48.83"/>
	<line fill="none" stroke="#000000" stroke-width="0.2" x1="651.11" y1="48.73" x2="651.63" y2="49.03"/>
	<line fill="none" stroke="#000000" stroke-width="0.2" x1="652.4" y1="85.47" x2="652.89" y2="85.76"/>
	<line fill="none" stroke="#000000" stroke-width="0.2" x1="652.74" y1="85.48" x2="653.16" y2="85.73"/>
	<line fill="none" stroke="#000000" stroke-width="0.2" x1="654.48" y1="84.71" x2="654.97" y2="85"/>
	<line fill="none" stroke="#000000" stroke-width="0.2" x1="654.33" y1="84.44" x2="654.88" y2="84.76"/>
	<line fill="none" stroke="#000000" stroke-width="0.2" x1="654.95" y1="84.66" x2="655.47" y2="84.96"/>
	<line fill="none" stroke="#000000" stroke-width="0.2" x1="652.84" y1="81.94" x2="653.33" y2="82.23"/>
	<line fill="none" stroke="#000000" stroke-width="0.2" x1="653.17" y1="81.96" x2="653.59" y2="82.2"/>
	<line fill="none" stroke="#000000" stroke-width="0.2" x1="654.4" y1="81.42" x2="654.9" y2="81.71"/>
	<line fill="none" stroke="#000000" stroke-width="0.2" x1="654.26" y1="81.15" x2="654.81" y2="81.47"/>
	<line fill="none" stroke="#000000" stroke-width="0.2" x1="654.88" y1="81.37" x2="655.4" y2="81.67"/>
	<line fill="none" stroke="#000000" stroke-width="0.2" x1="652.84" y1="78.78" x2="653.33" y2="79.06"/>
	<line fill="none" stroke="#000000" stroke-width="0.2" x1="653.17" y1="78.79" x2="653.59" y2="79.04"/>
	<line fill="none" stroke="#000000" stroke-width="0.2" x1="654.4" y1="78.26" x2="654.9" y2="78.54"/>
	<line fill="none" stroke="#000000" stroke-width="0.2" x1="654.26" y1="77.99" x2="654.81" y2="78.3"/>
	<line fill="none" stroke="#000000" stroke-width="0.2" x1="654.88" y1="78.2" x2="655.4" y2="78.5"/>
	<line fill="none" stroke="#000000" stroke-width="0.2" x1="652.24" y1="72.08" x2="652.73" y2="72.36"/>
	<line fill="none" stroke="#000000" stroke-width="0.2" x1="652.57" y1="72.09" x2="653" y2="72.34"/>
	<line fill="none" stroke="#000000" stroke-width="0.2" x1="653.81" y1="71.56" x2="654.3" y2="71.85"/>
	<line fill="none" stroke="#000000" stroke-width="0.2" x1="653.66" y1="71.29" x2="654.21" y2="71.61"/>
	<line fill="none" stroke="#000000" stroke-width="0.2" x1="654.28" y1="71.51" x2="654.8" y2="71.81"/>
	<line fill="none" stroke="#000000" stroke-width="0.2" x1="652.24" y1="68.79" x2="652.73" y2="69.08"/>
	<line fill="none" stroke="#000000" stroke-width="0.2" x1="652.57" y1="68.81" x2="653" y2="69.05"/>
	<line fill="none" stroke="#000000" stroke-width="0.2" x1="653.81" y1="68.27" x2="654.3" y2="68.56"/>
	<line fill="none" stroke="#000000" stroke-width="0.2" x1="653.66" y1="68" x2="654.21" y2="68.32"/>
	<line fill="none" stroke="#000000" stroke-width="0.2" x1="654.28" y1="68.22" x2="654.8" y2="68.52"/>
	<line fill="none" stroke="#000000" stroke-width="0.2" x1="651.58" y1="65.62" x2="652.07" y2="65.91"/>
	<line fill="none" stroke="#000000" stroke-width="0.2" x1="651.91" y1="65.64" x2="652.34" y2="65.88"/>
	<line fill="none" stroke="#000000" stroke-width="0.2" x1="653.15" y1="65.1" x2="653.64" y2="65.39"/>
	<line fill="none" stroke="#000000" stroke-width="0.2" x1="653" y1="64.83" x2="653.55" y2="65.15"/>
	<line fill="none" stroke="#000000" stroke-width="0.2" x1="653.63" y1="65.05" x2="654.14" y2="65.35"/>
	<line fill="none" stroke="#000000" stroke-width="0.2" x1="651.58" y1="62.22" x2="652.07" y2="62.5"/>
	<line fill="none" stroke="#000000" stroke-width="0.2" x1="651.91" y1="62.23" x2="652.34" y2="62.48"/>
	<line fill="none" stroke="#000000" stroke-width="0.2" x1="653.15" y1="61.7" x2="653.64" y2="61.98"/>
	<line fill="none" stroke="#000000" stroke-width="0.2" x1="653" y1="61.43" x2="653.55" y2="61.74"/>
	<line fill="none" stroke="#000000" stroke-width="0.2" x1="653.63" y1="61.64" x2="654.14" y2="61.94"/>
	<line fill="none" stroke="#000000" stroke-width="0.2" x1="650.98" y1="58.99" x2="651.47" y2="59.27"/>
	<line fill="none" stroke="#000000" stroke-width="0.2" x1="651.32" y1="59" x2="651.74" y2="59.25"/>
	<line fill="none" stroke="#000000" stroke-width="0.2" x1="652.55" y1="58.47" x2="653.04" y2="58.75"/>
	<line fill="none" stroke="#000000" stroke-width="0.2" x1="652.41" y1="58.2" x2="652.96" y2="58.51"/>
	<line fill="none" stroke="#000000" stroke-width="0.2" x1="653.03" y1="58.41" x2="653.55" y2="58.71"/>
	<line fill="none" stroke="#000000" stroke-width="0.2" x1="649.67" y1="55.64" x2="650.16" y2="55.92"/>
	<line fill="none" stroke="#000000" stroke-width="0.2" x1="650" y1="55.65" x2="650.43" y2="55.9"/>
	<line fill="none" stroke="#000000" stroke-width="0.2" x1="651.23" y1="55.12" x2="651.73" y2="55.4"/>
	<line fill="none" stroke="#000000" stroke-width="0.2" x1="651.09" y1="54.85" x2="651.64" y2="55.17"/>
	<line fill="none" stroke="#000000" stroke-width="0.2" x1="651.71" y1="55.07" x2="652.23" y2="55.36"/>
	<line fill="none" stroke="#000000" stroke-width="0.2" x1="649.67" y1="52.17" x2="650.16" y2="52.46"/>
	<line fill="none" stroke="#000000" stroke-width="0.2" x1="650" y1="52.19" x2="650.43" y2="52.43"/>
	<line fill="none" stroke="#000000" stroke-width="0.2" x1="651.23" y1="51.65" x2="651.73" y2="51.94"/>
	<line fill="none" stroke="#000000" stroke-width="0.2" x1="651.09" y1="51.38" x2="651.64" y2="51.7"/>
	<line fill="none" stroke="#000000" stroke-width="0.2" x1="651.71" y1="51.6" x2="652.23" y2="51.9"/>
	
		<rect x="652.3" y="86.08" transform="matrix(0.0182 -0.9998 0.9998 0.0182 553.4762 740.3567)" fill="none" stroke="#000000" stroke-width="0.2" width="2.82" height="4.57"/>
	
		<rect x="652.2" y="89.38" transform="matrix(0.0368 -0.9993 0.9993 0.0368 537.9605 741.4658)" fill="none" stroke="#000000" stroke-width="0.2" width="2.82" height="4.57"/>
	
		<rect x="651.84" y="95.98" transform="matrix(0.0732 -0.9973 0.9973 0.0732 507.4619 742.5731)" fill="none" stroke="#000000" stroke-width="0.2" width="2.82" height="4.56"/>
	
		<rect x="651.57" y="99.27" transform="matrix(0.092 -0.9958 0.9958 0.092 491.7748 742.4197)" fill="none" stroke="#000000" stroke-width="0.2" width="2.82" height="4.57"/>
	
		<rect x="651.24" y="102.55" transform="matrix(0.1095 -0.994 0.994 0.1095 477.0008 742.0907)" fill="none" stroke="#000000" stroke-width="0.2" width="2.82" height="4.57"/>
	
		<rect x="650.4" y="109.07" transform="matrix(0.1448 -0.9895 0.9895 0.1448 447.2784 740.1839)" fill="none" stroke="#000000" stroke-width="0.2" width="2.82" height="4.57"/>
	
		<rect x="650.85" y="105.83" transform="matrix(0.127 -0.9919 0.9919 0.127 462.1895 741.3669)" fill="none" stroke="#000000" stroke-width="0.2" width="2.82" height="4.57"/>
	
		<rect x="649.89" y="112.33" transform="matrix(0.1636 -0.9865 0.9865 0.1636 431.6736 738.395)" fill="none" stroke="#000000" stroke-width="0.2" width="2.82" height="4.57"/>
	
		<rect x="649.33" y="115.59" transform="matrix(0.1808 -0.9835 0.9835 0.1808 417.1875 736.5818)" fill="none" stroke="#000000" stroke-width="0.2" width="2.82" height="4.57"/>
	<polygon fill="none" stroke="#000000" stroke-width="0.2" points="647.49,122.54 652.15,122.54 652.63,120.18 648.15,119.27 	"/>
	
		<rect x="651.42" y="80.35" transform="matrix(0.9998 -0.0178 0.0178 0.9998 -1.3488 11.621)" fill="none" stroke="#000000" stroke-width="0.2" width="4.57" height="2.82"/>
	
		<rect x="651.33" y="77.05" transform="matrix(0.9993 -0.0368 0.0368 0.9993 -2.4444 24.1042)" fill="none" stroke="#000000" stroke-width="0.2" width="4.57" height="2.82"/>
	
		<rect x="650.97" y="70.45" transform="matrix(0.9973 -0.0732 0.0732 0.9973 -3.5072 47.9878)" fill="none" stroke="#000000" stroke-width="0.2" width="4.56" height="2.82"/>
	
		<rect x="650.7" y="67.16" transform="matrix(0.9959 -0.0907 0.0907 0.9959 -3.5284 59.5184)" fill="none" stroke="#000000" stroke-width="0.2" width="4.57" height="2.82"/>
	
		<rect x="650.37" y="63.88" transform="matrix(0.994 -0.1091 0.1091 0.994 -3.2274 71.5654)" fill="none" stroke="#000000" stroke-width="0.2" width="4.57" height="2.82"/>
	
		<rect x="649.53" y="57.36" transform="matrix(0.9895 -0.1445 0.1445 0.9895 -1.6509 94.8193)" fill="none" stroke="#000000" stroke-width="0.2" width="4.57" height="2.82"/>
	
		<rect x="649.98" y="60.6" transform="matrix(0.9918 -0.1279 0.1279 0.9918 -2.5749 83.9017)" fill="none" stroke="#000000" stroke-width="0.2" width="4.57" height="2.82"/>
	
		<rect x="649.02" y="54.1" transform="matrix(0.9865 -0.1636 0.1636 0.9865 -0.3061 107.3047)" fill="none" stroke="#000000" stroke-width="0.2" width="4.57" height="2.82"/>
	
		<rect x="648.45" y="50.85" transform="matrix(0.9834 -0.1814 0.1814 0.9834 1.3141 118.8859)" fill="none" stroke="#000000" stroke-width="0.2" width="4.57" height="2.82"/>
	<polygon fill="none" stroke="#000000" stroke-width="0.2" points="647.49,47.59 652.15,47.59 652.63,49.94 648.15,50.85 	"/>
	<line fill="none" stroke="#000000" stroke-width="0.2" x1="656.12" y1="94.7" x2="665.13" y2="94.7"/>
	<line fill="none" stroke="#000000" stroke-width="0.2" x1="575.3" y1="94.7" x2="650.52" y2="94.7"/>
	<line fill="none" stroke="#000000" stroke-width="0.2" x1="656.16" y1="75.43" x2="665.13" y2="75.43"/>
	<line fill="none" stroke="#000000" stroke-width="0.2" x1="582.54" y1="75.43" x2="650.57" y2="75.43"/>
	<line fill="none" stroke="#000000" stroke-width="0.2" x1="176.07" y1="77.89" x2="147.41" y2="77.89"/>
	<line fill="none" stroke="#000000" stroke-width="0.2" x1="147.42" y1="92.24" x2="176.07" y2="92.24"/>
	<line fill="none" stroke="#000000" stroke-width="0.2" x1="161.72" y1="92.24" x2="161.72" y2="77.89"/>
	<line fill="none" stroke="#000000" stroke-width="0.2" x1="153.35" y1="92.24" x2="153.35" y2="77.89"/>
	<line fill="none" stroke="#000000" stroke-width="0.2" x1="170.09" y1="92.24" x2="170.09" y2="77.89"/>
	<line fill="none" stroke="#000000" stroke-width="0.2" x1="153.35" y1="85.06" x2="170.09" y2="85.06"/>
	<line fill="none" stroke="#000000" stroke-width="0.2" x1="572.46" y1="122.36" x2="572.46" y2="123.57"/>
	<line fill="none" stroke="#000000" stroke-width="0.2" x1="554.25" y1="122.71" x2="554.25" y2="123.57"/>
	<line fill="none" stroke="#000000" stroke-width="0.2" x1="572.48" y1="47.75" x2="572.48" y2="46.54"/>
	<line fill="none" stroke="#000000" stroke-width="0.2" x1="554.25" y1="47.42" x2="554.25" y2="46.55"/>
	
		<path fill="none" stroke="#000000" stroke-width="0.4" stroke-linecap="round" stroke-linejoin="round" stroke-miterlimit="500" d="
		M552.11,47.37l1.95-1.01h103.37c2.7,0.12,4.22,1.84,4.65,4.08c2.19,11.41,3.3,23.01,3.3,34.63c0,11.62-1.11,23.22-3.3,34.63
		c-0.43,2.24-1.96,3.96-4.65,4.08h-103.4l-1.95-1.03"/>
	<line fill="none" stroke="#000000" stroke-width="0.2" x1="610.81" y1="89.58" x2="610.81" y2="77.89"/>
	<polyline fill="none" stroke="#000000" stroke-width="0.2" points="582.51,70.72 582.51,92.24 575.76,92.24 	"/>
	<path fill="none" stroke="#000000" stroke-width="0.2" d="M639.28,77.65c2.92,4.51,2.92,10.32,0,14.83"/>
	<path fill="none" stroke="#000000" stroke-width="0.2" d="M631.39,92.48c2.92-4.51,2.92-10.32,0-14.83"/>
	<path fill="none" stroke="#000000" stroke-width="0.2" d="M131.01,102.22c1.47,0,2.66,1.19,2.66,2.66c0,1.47-1.19,2.66-2.66,2.66"
		/>
	<line fill="none" stroke="#000000" stroke-width="0.2" x1="128.98" y1="107.55" x2="128.52" y2="107.55"/>
	<line fill="none" stroke="#000000" stroke-width="0.2" x1="133.4" y1="102.22" x2="128.52" y2="102.22"/>
	<line fill="none" stroke="#000000" stroke-width="0.2" x1="128.52" y1="107.55" x2="117.46" y2="107.55"/>
	<path fill="none" stroke="#000000" stroke-width="0.2" d="M131.01,67.9c1.47,0,2.66-1.19,2.66-2.66c0-1.47-1.19-2.66-2.66-2.66"/>
	<line fill="none" stroke="#000000" stroke-width="0.2" x1="128.98" y1="62.58" x2="128.52" y2="62.58"/>
	<line fill="none" stroke="#000000" stroke-width="0.2" x1="133.4" y1="67.9" x2="128.52" y2="67.9"/>
	
		<line fill="none" stroke="#000000" stroke-width="0.4" stroke-linecap="round" stroke-linejoin="round" stroke-miterlimit="500" x1="128.98" y1="62.58" x2="117.46" y2="62.58"/>
	<path fill="none" stroke="#000000" stroke-width="0.2" d="M207.58,76.88h-3.85v-2.8l-13.66-7.89h-40.3c0,0-0.4-0.01-0.4-0.42l0,0
		V62.9l-0.23-0.32h-20.15v44.97h20.15l0.28-0.32v-2.88l0,0c0-0.41,0.35-0.42,0.35-0.42h40.31l13.66-7.9v-2.8h3.85l0,0"/>
	<line fill="none" stroke="#000000" stroke-width="0.2" x1="228.4" y1="76.88" x2="207.58" y2="76.88"/>
	<line fill="none" stroke="#000000" stroke-width="0.2" x1="247.26" y1="91.84" x2="264" y2="93.24"/>
	<line fill="none" stroke="#000000" stroke-width="0.2" x1="247.26" y1="78.28" x2="264" y2="76.88"/>
	<line fill="none" stroke="#000000" stroke-width="0.2" x1="228.4" y1="93.24" x2="207.58" y2="93.24"/>
	<path fill="none" stroke="#000000" stroke-width="0.2" d="M294.14,93.92c16.35-10.23-1.37,7.49,8.86-8.86"/>
	<line fill="none" stroke="#000000" stroke-width="0.2" x1="222.07" y1="93.92" x2="203.73" y2="93.92"/>
	<line fill="none" stroke="#000000" stroke-width="0.2" x1="294.14" y1="93.92" x2="244.86" y2="93.92"/>
	<path fill="none" stroke="#000000" stroke-width="0.2" d="M294.14,76.2c16.35,10.23-1.37-7.49,8.86,8.86"/>
	<line fill="none" stroke="#000000" stroke-width="0.2" x1="222.02" y1="76.2" x2="203.73" y2="76.2"/>
	<line fill="none" stroke="#000000" stroke-width="0.2" x1="294.14" y1="76.2" x2="244.86" y2="76.2"/>
	<path fill="none" stroke="#000000" stroke-width="0.2" d="M228.4,76.88"/>
	<path fill="none" stroke="#000000" stroke-width="0.2" d="M228.4,93.24"/>
	<line fill="none" stroke="#000000" stroke-width="0.2" x1="205.47" y1="76.8" x2="203.73" y2="76.8"/>
	<line fill="none" stroke="#000000" stroke-width="0.2" x1="203.73" y1="76.8" x2="203.73" y2="76.2"/>
	<line fill="none" stroke="#000000" stroke-width="0.2" x1="205.47" y1="93.33" x2="203.73" y2="93.33"/>
	<line fill="none" stroke="#000000" stroke-width="0.2" x1="203.73" y1="93.33" x2="203.73" y2="93.92"/>
	<path fill="none" stroke="#000000" stroke-width="0.2" d="M219.03,92.03c0.16-0.03,0.06-0.06-0.22-0.07c-0.09,0-0.19-0.01-0.3-0.01
		"/>
	<line fill="none" stroke="#000000" stroke-width="0.2" x1="276.35" y1="93.47" x2="290.81" y2="93.47"/>
	<path fill="none" stroke="#000000" stroke-width="0.2" d="M255.57,92.03c8.35,0.3,15.56,0.8,20.78,1.44"/>
	<path fill="none" stroke="#000000" stroke-width="0.2" d="M256.3,92.06c13.83-7.86-1.38,6.13,7.6-6.99"/>
	<path fill="none" stroke="#000000" stroke-width="0.2" d="M216.65,90.04c6.39,2.99-2.24,0.17,4.31,1.77l-0.01,0.03h26.31"/>
	<polyline fill="none" stroke="#000000" stroke-width="0.2" points="205.47,93.33 205.79,93.33 219.03,92.03 	"/>
	<path fill="none" stroke="#000000" stroke-width="0.2" d="M209.06,85.06c7.96,12.71-5.82-1.07,6.89,6.89"/>
	<path fill="none" stroke="#000000" stroke-width="0.2" d="M219.03,78.1c0.16,0.03,0.06,0.06-0.22,0.07c-0.09,0-0.19,0.01-0.3,0.01"
		/>
	<line fill="none" stroke="#000000" stroke-width="0.2" x1="276.35" y1="76.65" x2="290.81" y2="76.65"/>
	<path fill="none" stroke="#000000" stroke-width="0.2" d="M255.57,78.1c8.35-0.3,15.56-0.8,20.78-1.44"/>
	<path fill="none" stroke="#000000" stroke-width="0.2" d="M256.3,78.07c13.83,7.86-1.38-6.13,7.6,6.99"/>
	<path fill="none" stroke="#000000" stroke-width="0.2" d="M214.51,86.71c0.14,0.44,0.38,1.04,0.62,1.51"/>
	<line fill="none" stroke="#000000" stroke-width="0.2" x1="214.51" y1="83.42" x2="214.85" y2="82.48"/>
	<path fill="none" stroke="#000000" stroke-width="0.2" d="M216.65,80.09c6.39-2.99-2.24-0.17,4.31-1.78l-0.01-0.03h26.31"/>
	<polyline fill="none" stroke="#000000" stroke-width="0.2" points="205.47,76.8 205.79,76.8 219.03,78.1 	"/>
	<path fill="none" stroke="#000000" stroke-width="0.2" d="M209.06,85.06c7.96-12.71-5.82,1.07,6.89-6.89"/>
	<path fill="none" stroke="#000000" stroke-width="0.2" d="M640.06,91.11h-0.18l-0.23,0.13c0,0-0.35,1.01-1.09,1.01
		c-0.4,0-8.61-0.01-8.61-0.01"/>
	<line fill="none" stroke="#000000" stroke-width="0.2" x1="602.81" y1="92.12" x2="613.69" y2="92.12"/>
	<line fill="none" stroke="#000000" stroke-width="0.2" x1="594.56" y1="92.24" x2="599.94" y2="92.24"/>
	<line fill="none" stroke="#000000" stroke-width="0.2" x1="585.54" y1="92.24" x2="591.69" y2="92.24"/>
	<path fill="none" stroke="#000000" stroke-width="0.2" d="M575.58,71.98v-0.96l0,0c0-0.32,0.24-0.3,0.24-0.3h9.79
		c0,0,0.23,0,0.23,0.3l0,0v0.96"/>
	<line fill="none" stroke="#000000" stroke-width="0.2" x1="590.8" y1="92.11" x2="590.8" y2="77.89"/>
	<line fill="none" stroke="#000000" stroke-width="0.2" x1="607.63" y1="92.11" x2="607.63" y2="77.89"/>
	<polyline fill="none" stroke="#000000" stroke-width="0.2" points="610.81,89.58 616.65,89.58 616.64,89.86 629.96,89.86 	"/>
	<line fill="none" stroke="#000000" stroke-width="0.2" x1="629.96" y1="89.86" x2="629.96" y2="92.21"/>
	<polyline fill="none" stroke="#000000" stroke-width="0.2" points="629.96,79.8 616.55,79.8 616.56,77.89 586.5,77.89 	"/>
	<path fill="none" stroke="#000000" stroke-width="0.2" d="M629.96,79.8v-1.89l0-0.02c0,0,8.27,0,8.52,0c0.72,0,1.17,1,1.17,1
		l0.23,0.13h0.18"/>
	
		<rect x="651.18" y="73.75" transform="matrix(0.9985 -0.055 0.055 0.9985 -3.1435 36.0324)" fill="none" stroke="#000000" stroke-width="0.2" width="4.57" height="2.82"/>
	<line fill="none" stroke="#000000" stroke-width="0.2" x1="653.81" y1="74.85" x2="654.3" y2="75.13"/>
	<line fill="none" stroke="#000000" stroke-width="0.2" x1="653.66" y1="74.58" x2="654.21" y2="74.9"/>
	<line fill="none" stroke="#000000" stroke-width="0.2" x1="654.28" y1="74.79" x2="654.8" y2="75.09"/>
	<line fill="none" stroke="#000000" stroke-width="0.2" x1="652.24" y1="75.37" x2="652.73" y2="75.65"/>
	<line fill="none" stroke="#000000" stroke-width="0.2" x1="652.57" y1="75.38" x2="653" y2="75.63"/>
	
		<rect x="652.05" y="92.68" transform="matrix(0.0543 -0.9985 0.9985 0.0543 523.1351 742.3044)" fill="none" stroke="#000000" stroke-width="0.2" width="2.82" height="4.57"/>
	<line fill="none" stroke="#000000" stroke-width="0.2" x1="652.16" y1="95.16" x2="652.65" y2="95.44"/>
	<line fill="none" stroke="#000000" stroke-width="0.2" x1="652.5" y1="95.18" x2="652.92" y2="95.42"/>
	<line fill="none" stroke="#000000" stroke-width="0.2" x1="653.73" y1="94.64" x2="654.23" y2="94.92"/>
	<line fill="none" stroke="#000000" stroke-width="0.2" x1="653.59" y1="94.37" x2="654.14" y2="94.69"/>
	<line fill="none" stroke="#000000" stroke-width="0.2" x1="654.21" y1="94.59" x2="654.73" y2="94.89"/>
	<line fill="none" stroke="#000000" stroke-width="0.2" x1="652.39" y1="122.78" x2="573.08" y2="122.78"/>
	<path fill="none" stroke="#000000" stroke-width="0.2" d="M554.31,46.62l0.64,0.37c0,0,6,0,6.37,0c0.36,0,0.41,0.48,0.41,0.48h0.34
		c0,0-0.03-0.48,0.51-0.48c0.6,0,5.13,0,5.45,0c0.38,0,0.39,0.48,0.39,0.48h0.34c0,0-0.01-0.48,0.48-0.48c0.56,0,2.48,0,2.75,0
		c0.54,0,0.48,0.54,0.48,0.54v4.29c0,0,2.14,0,2.4,0c0.43,0,0.44,0.44,0.44,0.44v65.66c0,0-0.02,0.38-0.52,0.38
		c-0.38,0-2.32,0-2.32,0v4.34c0,0,0,0.51-0.54,0.51c-0.65,0-2.42,0.02-2.79,0.02c-0.36,0-0.38-0.49-0.38-0.49h-0.34
		c0,0-0.02,0.48-0.46,0.48c-0.44,0-5.12,0-5.5,0c-0.38,0-0.41-0.48-0.41-0.48h-0.34c0,0,0.02,0.48-0.47,0.48c-0.62,0-6.31,0-6.31,0
		l-0.64,0.37"/>
	<line fill="none" stroke="#000000" stroke-width="0.2" x1="652.37" y1="47.3" x2="573.11" y2="47.3"/>
</g>
<g id="names">
	<g>
		<path d="M609.85,59.27h-0.45v-3.12h-0.72V55.7h1.89v0.45h-0.72V59.27z"/>
		<path d="M612.46,57.92c0,0.28-0.04,0.53-0.11,0.74c-0.07,0.21-0.18,0.38-0.32,0.49c-0.14,0.12-0.31,0.17-0.52,0.17
			c-0.2,0-0.37-0.06-0.5-0.17c-0.14-0.12-0.24-0.28-0.31-0.49c-0.07-0.21-0.11-0.46-0.11-0.74c0-0.44,0.08-0.78,0.23-1.02
			c0.16-0.25,0.39-0.37,0.7-0.37c0.29,0,0.51,0.12,0.68,0.36C612.38,57.12,612.46,57.46,612.46,57.92z M611.05,57.92
			c0,0.32,0.04,0.56,0.12,0.73c0.08,0.17,0.2,0.25,0.37,0.25s0.29-0.08,0.37-0.25s0.12-0.41,0.12-0.74c0-0.32-0.04-0.56-0.12-0.73
			c-0.08-0.17-0.2-0.25-0.37-0.25s-0.29,0.08-0.37,0.25C611.09,57.35,611.05,57.6,611.05,57.92z"/>
		<path d="M614,56.52c0.25,0,0.44,0.12,0.58,0.36c0.14,0.24,0.21,0.58,0.21,1.04c0,0.45-0.07,0.79-0.21,1.03
			c-0.14,0.24-0.33,0.37-0.57,0.37c-0.14,0-0.26-0.04-0.36-0.11s-0.18-0.17-0.25-0.29h-0.02c0.01,0.07,0.01,0.14,0.02,0.21
			c0,0.07,0.01,0.13,0.01,0.18v1.15h-0.44v-3.9h0.36l0.06,0.37h0.02c0.07-0.14,0.15-0.24,0.25-0.31
			C613.75,56.56,613.87,56.52,614,56.52z M613.89,56.94c-0.17,0-0.29,0.07-0.36,0.22c-0.08,0.14-0.11,0.37-0.12,0.68v0.1
			c0,0.33,0.04,0.57,0.11,0.72s0.2,0.23,0.37,0.23c0.3,0,0.45-0.33,0.45-0.97c0-0.32-0.04-0.56-0.11-0.73S614.05,56.94,613.89,56.94
			z"/>
		<path d="M617.4,59.27h-0.45v-2.33c0-0.11,0-0.22,0-0.33s0.01-0.22,0.01-0.32c-0.05,0.07-0.12,0.15-0.21,0.25l-0.3,0.31l-0.25-0.31
			l0.81-0.83h0.39V59.27z"/>
		<path d="M618.27,57.76c0-0.3,0.02-0.58,0.06-0.83c0.04-0.26,0.11-0.48,0.2-0.67c0.09-0.19,0.22-0.34,0.38-0.44
			c0.16-0.1,0.35-0.16,0.59-0.16c0.07,0,0.13,0,0.2,0.01c0.06,0.01,0.12,0.02,0.18,0.03v0.44c-0.11-0.04-0.23-0.06-0.35-0.06
			c-0.28,0-0.48,0.12-0.6,0.35c-0.13,0.23-0.2,0.56-0.21,0.97h0.02c0.05-0.12,0.13-0.22,0.23-0.29c0.1-0.07,0.21-0.11,0.35-0.11
			c0.24,0,0.42,0.1,0.56,0.31c0.13,0.21,0.2,0.48,0.2,0.81c0,0.23-0.03,0.44-0.1,0.62c-0.07,0.18-0.16,0.32-0.29,0.42
			s-0.29,0.15-0.47,0.15c-0.28,0-0.5-0.13-0.67-0.4C618.35,58.66,618.27,58.27,618.27,57.76z M619.18,58.88
			c0.13,0,0.23-0.06,0.31-0.19c0.07-0.12,0.11-0.31,0.11-0.56c0-0.23-0.04-0.41-0.1-0.53c-0.07-0.12-0.17-0.18-0.31-0.18
			c-0.1,0-0.18,0.03-0.25,0.08c-0.07,0.06-0.12,0.13-0.16,0.22s-0.05,0.18-0.05,0.29c0,0.13,0.02,0.27,0.05,0.4
			c0.03,0.13,0.08,0.25,0.15,0.33C618.99,58.84,619.08,58.88,619.18,58.88z"/>
		<path d="M600.24,63.77h-1.47V60.2h1.47v0.45h-1.01v1.04h0.95v0.44h-0.95v1.19h1.01V63.77z"/>
		<path d="M601.18,62.39l-0.63-1.32h0.49l0.4,0.94l0.41-0.94h0.48l-0.62,1.33l0.66,1.38h-0.49l-0.45-1l-0.45,1h-0.48L601.18,62.39z"
			/>
		<path d="M603.52,63.82c-0.3,0-0.52-0.11-0.68-0.34c-0.16-0.23-0.24-0.58-0.24-1.04c0-0.45,0.08-0.8,0.24-1.04s0.39-0.37,0.7-0.37
			c0.11,0,0.21,0.01,0.31,0.04s0.18,0.06,0.25,0.11l-0.13,0.4c-0.07-0.04-0.14-0.07-0.21-0.09c-0.07-0.02-0.13-0.03-0.2-0.03
			c-0.34,0-0.5,0.33-0.5,0.99c0,0.64,0.17,0.96,0.5,0.96c0.09,0,0.18-0.01,0.26-0.04c0.08-0.03,0.16-0.07,0.24-0.11v0.42
			C603.9,63.77,603.72,63.82,603.52,63.82z"/>
		<path d="M604.95,63.77h-0.44v-3.8h0.44V63.77z"/>
		<path d="M607.28,61.07v2.7h-0.36l-0.05-0.36h-0.03c-0.06,0.14-0.14,0.24-0.25,0.31c-0.11,0.07-0.22,0.1-0.35,0.1
			c-0.24,0-0.41-0.08-0.52-0.25c-0.11-0.17-0.17-0.41-0.17-0.73v-1.77H606v1.67c0,0.44,0.11,0.66,0.34,0.66
			c0.19,0,0.31-0.08,0.38-0.23s0.11-0.38,0.11-0.68v-1.41H607.28z"/>
		<path d="M609.19,63.02c0,0.26-0.07,0.46-0.21,0.59c-0.14,0.14-0.34,0.21-0.58,0.21c-0.13,0-0.25-0.01-0.36-0.04
			c-0.11-0.03-0.2-0.07-0.28-0.11v-0.48c0.08,0.06,0.18,0.11,0.29,0.15s0.22,0.06,0.33,0.06c0.12,0,0.22-0.03,0.28-0.09
			c0.06-0.06,0.09-0.15,0.09-0.26c0-0.09-0.03-0.17-0.09-0.24s-0.17-0.15-0.34-0.24c-0.17-0.1-0.31-0.21-0.41-0.33
			s-0.15-0.28-0.15-0.5c0-0.22,0.07-0.4,0.21-0.53c0.14-0.13,0.32-0.2,0.56-0.2c0.12,0,0.24,0.02,0.34,0.05
			c0.1,0.03,0.21,0.08,0.31,0.14l-0.15,0.38c-0.08-0.05-0.16-0.09-0.24-0.12c-0.08-0.03-0.17-0.05-0.25-0.05
			c-0.11,0-0.19,0.03-0.25,0.08c-0.06,0.06-0.09,0.13-0.09,0.22c0,0.09,0.03,0.17,0.09,0.24c0.06,0.06,0.18,0.14,0.35,0.23
			c0.17,0.1,0.31,0.21,0.41,0.33C609.13,62.65,609.19,62.81,609.19,63.02z"/>
		<path d="M609.87,60.05c0.17,0,0.25,0.1,0.25,0.31c0,0.1-0.02,0.18-0.07,0.23c-0.04,0.05-0.1,0.08-0.18,0.08s-0.14-0.03-0.18-0.08
			c-0.05-0.05-0.07-0.13-0.07-0.23s0.02-0.18,0.07-0.23S609.8,60.05,609.87,60.05z M610.09,61.07v2.7h-0.44v-2.7H610.09z"/>
		<path d="M611.13,63.77l-0.71-2.7h0.46l0.37,1.56c0.02,0.1,0.05,0.21,0.07,0.31c0.02,0.11,0.04,0.21,0.05,0.32h0.02
			c0.01-0.07,0.02-0.16,0.04-0.26c0.02-0.1,0.04-0.21,0.07-0.31l0.39-1.62h0.46l-0.72,2.7H611.13z"/>
		<path d="M613.44,61.03c0.18,0,0.34,0.05,0.46,0.15s0.22,0.24,0.29,0.42c0.06,0.18,0.1,0.39,0.1,0.63v0.3h-1.3
			c0.01,0.59,0.2,0.88,0.58,0.88c0.11,0,0.22-0.01,0.31-0.04c0.1-0.03,0.2-0.08,0.3-0.14v0.42c-0.19,0.12-0.41,0.17-0.66,0.17
			c-0.33,0-0.58-0.13-0.74-0.38c-0.16-0.25-0.24-0.59-0.24-1c0-0.45,0.08-0.8,0.23-1.05C612.93,61.15,613.15,61.03,613.44,61.03z
			 M613.44,61.42c-0.13,0-0.23,0.06-0.31,0.19c-0.08,0.12-0.12,0.31-0.14,0.56h0.87c0-0.21-0.04-0.39-0.1-0.53
			C613.69,61.49,613.58,61.42,613.44,61.42z"/>
		<path d="M617.29,62.78c0,0.21-0.04,0.39-0.12,0.54c-0.08,0.16-0.19,0.28-0.33,0.37c-0.14,0.09-0.31,0.13-0.51,0.13
			c-0.29,0-0.54-0.06-0.75-0.17v-0.51c0.11,0.07,0.23,0.12,0.37,0.16s0.26,0.06,0.38,0.06c0.17,0,0.29-0.05,0.38-0.15
			s0.13-0.23,0.13-0.38c0-0.1-0.02-0.19-0.05-0.27c-0.03-0.07-0.09-0.14-0.17-0.21c-0.08-0.06-0.19-0.13-0.33-0.21
			s-0.26-0.15-0.36-0.24c-0.1-0.09-0.18-0.2-0.23-0.32s-0.08-0.28-0.08-0.47s0.04-0.36,0.11-0.5c0.08-0.14,0.18-0.26,0.32-0.33
			c0.14-0.08,0.3-0.12,0.48-0.12c0.14,0,0.27,0.02,0.4,0.05c0.13,0.04,0.24,0.08,0.35,0.14l-0.14,0.45c-0.1-0.06-0.2-0.1-0.3-0.13
			s-0.2-0.05-0.29-0.05c-0.14,0-0.25,0.04-0.33,0.13s-0.12,0.2-0.12,0.34c0,0.11,0.02,0.2,0.05,0.27s0.09,0.14,0.17,0.2
			s0.19,0.13,0.32,0.21c0.22,0.12,0.39,0.26,0.51,0.42C617.23,62.33,617.29,62.54,617.29,62.78z"/>
		<path d="M619.53,62.42c0,0.28-0.04,0.53-0.11,0.74c-0.07,0.21-0.17,0.38-0.31,0.49c-0.14,0.12-0.31,0.17-0.52,0.17
			c-0.2,0-0.37-0.06-0.5-0.17c-0.14-0.12-0.24-0.28-0.32-0.49c-0.07-0.21-0.11-0.46-0.11-0.74c0-0.44,0.08-0.78,0.23-1.02
			c0.16-0.25,0.39-0.37,0.7-0.37c0.29,0,0.51,0.12,0.68,0.36C619.45,61.62,619.53,61.96,619.53,62.42z M618.11,62.42
			c0,0.32,0.04,0.56,0.12,0.73c0.08,0.17,0.2,0.25,0.37,0.25s0.29-0.08,0.37-0.25c0.08-0.17,0.11-0.41,0.11-0.74
			c0-0.32-0.04-0.56-0.11-0.73c-0.08-0.17-0.2-0.25-0.37-0.25s-0.29,0.08-0.37,0.25C618.15,61.85,618.11,62.1,618.11,62.42z"/>
		<path d="M620.48,63.77h-0.44v-3.8h0.44V63.77z"/>
		<path d="M621.88,61.02c0.25,0,0.44,0.08,0.56,0.24c0.12,0.16,0.18,0.39,0.18,0.7v1.82h-0.33l-0.07-0.37h-0.01
			c-0.08,0.14-0.17,0.25-0.27,0.32c-0.1,0.07-0.23,0.1-0.38,0.1c-0.2,0-0.35-0.08-0.46-0.23c-0.1-0.16-0.16-0.35-0.16-0.58
			c0-0.27,0.08-0.48,0.23-0.63c0.15-0.14,0.38-0.22,0.67-0.24l0.32-0.01v-0.16c0-0.19-0.03-0.33-0.09-0.42s-0.15-0.13-0.27-0.13
			c-0.08,0-0.17,0.02-0.26,0.05c-0.09,0.03-0.18,0.08-0.28,0.13l-0.13-0.37c0.11-0.07,0.22-0.12,0.34-0.16
			S621.74,61.02,621.88,61.02z M622.17,62.46l-0.24,0.01c-0.19,0.01-0.33,0.06-0.41,0.14c-0.08,0.09-0.13,0.21-0.13,0.38
			c0,0.15,0.03,0.26,0.08,0.33c0.05,0.07,0.13,0.11,0.23,0.11c0.14,0,0.25-0.06,0.34-0.18c0.08-0.12,0.13-0.3,0.13-0.52V62.46z"/>
		<path d="M624.21,61.02c0.04,0,0.07,0,0.11,0.01s0.08,0.01,0.11,0.03l-0.05,0.5c-0.03-0.01-0.06-0.02-0.1-0.03
			s-0.07-0.01-0.11-0.01c-0.15,0-0.27,0.08-0.37,0.23s-0.15,0.36-0.15,0.61v1.41h-0.44v-2.7h0.35l0.06,0.46h0.02
			c0.06-0.15,0.14-0.27,0.23-0.37C623.97,61.07,624.08,61.02,624.21,61.02z"/>
		<path d="M625.02,60.05c0.17,0,0.25,0.1,0.25,0.31c0,0.1-0.02,0.18-0.07,0.23s-0.11,0.08-0.18,0.08c-0.07,0-0.14-0.03-0.18-0.08
			c-0.05-0.05-0.07-0.13-0.07-0.23s0.02-0.18,0.07-0.23C624.88,60.07,624.94,60.05,625.02,60.05z M625.23,61.07v2.7h-0.44v-2.7
			H625.23z"/>
		<path d="M627.56,61.07v2.7h-0.36l-0.05-0.36h-0.03c-0.06,0.14-0.14,0.24-0.25,0.31c-0.11,0.07-0.22,0.1-0.35,0.1
			c-0.24,0-0.41-0.08-0.52-0.25c-0.11-0.17-0.17-0.41-0.17-0.73v-1.77h0.45v1.67c0,0.44,0.11,0.66,0.34,0.66
			c0.19,0,0.31-0.08,0.38-0.23c0.07-0.15,0.11-0.38,0.11-0.68v-1.41H627.56z"/>
		<path d="M630.41,61.02c0.22,0,0.39,0.08,0.49,0.24c0.11,0.16,0.16,0.4,0.16,0.73v1.79h-0.44v-1.69c0-0.22-0.03-0.38-0.08-0.48
			c-0.06-0.1-0.14-0.15-0.25-0.15c-0.16,0-0.27,0.07-0.34,0.22c-0.07,0.15-0.1,0.36-0.1,0.65v1.45h-0.44v-1.7
			c0-0.21-0.03-0.37-0.08-0.47c-0.05-0.1-0.14-0.15-0.25-0.15c-0.17,0-0.29,0.08-0.35,0.25c-0.06,0.17-0.09,0.4-0.09,0.7v1.37h-0.44
			v-2.7h0.35l0.05,0.36h0.03c0.05-0.13,0.13-0.24,0.24-0.3c0.1-0.07,0.22-0.11,0.35-0.11c0.15,0,0.28,0.04,0.37,0.12
			c0.09,0.08,0.16,0.18,0.2,0.31h0.03C629.93,61.16,630.13,61.02,630.41,61.02z"/>
	</g>
	<g>
		<path d="M609.85,108.07h-0.46v-3.12h-0.72v-0.45h1.89v0.45h-0.72V108.07z"/>
		<path d="M612.46,106.71c0,0.28-0.04,0.53-0.11,0.74c-0.07,0.21-0.18,0.38-0.31,0.49c-0.14,0.12-0.31,0.17-0.52,0.17
			c-0.2,0-0.37-0.06-0.5-0.17c-0.14-0.12-0.24-0.28-0.32-0.49s-0.11-0.46-0.11-0.74c0-0.44,0.08-0.78,0.23-1.02s0.39-0.37,0.7-0.37
			c0.29,0,0.51,0.12,0.68,0.36S612.46,106.26,612.46,106.71z M611.05,106.72c0,0.32,0.04,0.56,0.11,0.73
			c0.08,0.17,0.2,0.25,0.37,0.25s0.29-0.08,0.37-0.25c0.08-0.17,0.11-0.41,0.11-0.74c0-0.32-0.04-0.56-0.11-0.73
			c-0.08-0.17-0.2-0.25-0.37-0.25s-0.29,0.08-0.37,0.25C611.09,106.15,611.05,106.4,611.05,106.72z"/>
		<path d="M614,105.32c0.25,0,0.44,0.12,0.58,0.36c0.14,0.24,0.21,0.58,0.21,1.04c0,0.45-0.07,0.79-0.21,1.03
			c-0.14,0.24-0.33,0.37-0.57,0.37c-0.14,0-0.26-0.04-0.36-0.11s-0.18-0.17-0.25-0.29h-0.02c0.01,0.07,0.01,0.14,0.02,0.21
			c0,0.07,0.01,0.13,0.01,0.18v1.15h-0.44v-3.9h0.36l0.06,0.37h0.02c0.07-0.14,0.15-0.24,0.25-0.31
			C613.75,105.35,613.87,105.32,614,105.32z M613.89,105.74c-0.17,0-0.29,0.07-0.36,0.22c-0.08,0.14-0.11,0.37-0.12,0.68v0.1
			c0,0.33,0.04,0.57,0.11,0.72c0.08,0.16,0.2,0.23,0.37,0.23c0.3,0,0.45-0.33,0.45-0.97c0-0.32-0.04-0.56-0.11-0.73
			S614.05,105.74,613.89,105.74z"/>
		<path d="M617.4,108.07h-0.45v-2.33c0-0.11,0-0.22,0-0.33s0.01-0.22,0.01-0.32c-0.05,0.07-0.12,0.15-0.21,0.25l-0.3,0.31
			l-0.25-0.31l0.81-0.83h0.39V108.07z"/>
		<path d="M618.27,106.55c0-0.3,0.02-0.58,0.06-0.83c0.04-0.26,0.11-0.48,0.2-0.67c0.09-0.19,0.22-0.34,0.38-0.44
			c0.16-0.1,0.35-0.16,0.59-0.16c0.07,0,0.13,0,0.2,0.01c0.06,0.01,0.12,0.02,0.18,0.03v0.44c-0.11-0.04-0.23-0.06-0.35-0.06
			c-0.28,0-0.48,0.12-0.6,0.35c-0.13,0.23-0.2,0.56-0.21,0.97h0.02c0.05-0.12,0.13-0.22,0.23-0.29c0.1-0.07,0.21-0.11,0.35-0.11
			c0.24,0,0.42,0.1,0.56,0.31c0.13,0.21,0.2,0.48,0.2,0.81c0,0.23-0.03,0.44-0.1,0.62c-0.07,0.18-0.16,0.32-0.29,0.42
			s-0.29,0.15-0.47,0.15c-0.28,0-0.5-0.13-0.67-0.4C618.35,107.45,618.27,107.06,618.27,106.55z M619.18,107.68
			c0.13,0,0.23-0.06,0.31-0.19c0.07-0.12,0.11-0.31,0.11-0.56c0-0.23-0.04-0.41-0.1-0.53c-0.07-0.12-0.17-0.18-0.31-0.18
			c-0.1,0-0.18,0.03-0.25,0.08c-0.07,0.06-0.12,0.13-0.16,0.22s-0.05,0.18-0.05,0.29c0,0.13,0.02,0.27,0.05,0.4
			c0.03,0.13,0.08,0.25,0.15,0.33C618.99,107.63,619.08,107.68,619.18,107.68z"/>
		<path d="M600.24,112.57h-1.47V109h1.47v0.45h-1.01v1.04h0.95v0.44h-0.95v1.19h1.01V112.57z"/>
		<path d="M601.18,111.18l-0.62-1.32h0.49l0.41,0.94l0.41-0.94h0.48l-0.63,1.33l0.66,1.38h-0.49l-0.45-1l-0.45,1h-0.48
			L601.18,111.18z"/>
		<path d="M603.52,112.62c-0.3,0-0.53-0.11-0.68-0.34c-0.16-0.23-0.24-0.58-0.24-1.04c0-0.45,0.08-0.8,0.24-1.04s0.39-0.37,0.7-0.37
			c0.11,0,0.21,0.01,0.31,0.04c0.09,0.03,0.18,0.06,0.25,0.11l-0.13,0.4c-0.07-0.04-0.14-0.07-0.2-0.09
			c-0.07-0.02-0.13-0.03-0.2-0.03c-0.34,0-0.5,0.33-0.5,0.99c0,0.64,0.17,0.96,0.5,0.96c0.09,0,0.18-0.01,0.26-0.04
			c0.08-0.03,0.16-0.07,0.24-0.11v0.42C603.9,112.57,603.72,112.62,603.52,112.62z"/>
		<path d="M604.95,112.57h-0.44v-3.8h0.44V112.57z"/>
		<path d="M607.28,109.87v2.7h-0.36l-0.05-0.36h-0.03c-0.06,0.14-0.14,0.24-0.25,0.31c-0.1,0.07-0.22,0.1-0.35,0.1
			c-0.24,0-0.41-0.08-0.52-0.25c-0.11-0.17-0.17-0.41-0.17-0.73v-1.77H606v1.67c0,0.44,0.11,0.66,0.34,0.66
			c0.19,0,0.31-0.08,0.38-0.23s0.11-0.38,0.11-0.68v-1.41H607.28z"/>
		<path d="M609.19,111.82c0,0.26-0.07,0.46-0.21,0.59s-0.34,0.21-0.58,0.21c-0.13,0-0.25-0.01-0.36-0.04s-0.2-0.07-0.28-0.11v-0.48
			c0.08,0.06,0.18,0.11,0.29,0.15c0.11,0.04,0.22,0.06,0.33,0.06c0.12,0,0.22-0.03,0.28-0.09c0.06-0.06,0.09-0.15,0.09-0.26
			c0-0.09-0.03-0.17-0.09-0.24s-0.17-0.15-0.34-0.24c-0.17-0.1-0.31-0.21-0.41-0.33s-0.15-0.28-0.15-0.5c0-0.22,0.07-0.4,0.21-0.53
			s0.33-0.2,0.56-0.2c0.12,0,0.24,0.02,0.34,0.05c0.11,0.03,0.21,0.08,0.31,0.14l-0.15,0.38c-0.08-0.05-0.16-0.09-0.24-0.12
			c-0.08-0.03-0.17-0.05-0.25-0.05c-0.11,0-0.19,0.03-0.25,0.08c-0.06,0.06-0.09,0.13-0.09,0.22c0,0.09,0.03,0.17,0.09,0.24
			c0.06,0.06,0.18,0.14,0.35,0.23c0.17,0.1,0.31,0.21,0.41,0.33C609.14,111.45,609.19,111.61,609.19,111.82z"/>
		<path d="M609.88,108.84c0.17,0,0.25,0.1,0.25,0.31c0,0.1-0.02,0.18-0.07,0.23s-0.11,0.08-0.18,0.08c-0.08,0-0.14-0.03-0.18-0.08
			s-0.07-0.13-0.07-0.23s0.02-0.18,0.07-0.23S609.8,108.84,609.88,108.84z M610.09,109.87v2.7h-0.44v-2.7H610.09z"/>
		<path d="M611.13,112.57l-0.71-2.7h0.46l0.37,1.56c0.02,0.1,0.05,0.21,0.07,0.31c0.02,0.11,0.04,0.21,0.05,0.32h0.02
			c0.01-0.07,0.02-0.16,0.04-0.26c0.02-0.1,0.04-0.21,0.07-0.31l0.39-1.62h0.46l-0.72,2.7H611.13z"/>
		<path d="M613.44,109.82c0.18,0,0.34,0.05,0.46,0.15s0.22,0.24,0.29,0.42c0.06,0.18,0.1,0.39,0.1,0.63v0.3h-1.3
			c0.01,0.59,0.2,0.88,0.58,0.88c0.11,0,0.22-0.01,0.32-0.04c0.1-0.03,0.2-0.08,0.3-0.14v0.42c-0.19,0.12-0.41,0.17-0.66,0.17
			c-0.33,0-0.58-0.13-0.74-0.38c-0.16-0.25-0.24-0.59-0.24-1c0-0.45,0.08-0.8,0.23-1.05C612.93,109.95,613.15,109.82,613.44,109.82z
			 M613.44,110.21c-0.13,0-0.23,0.06-0.31,0.19s-0.12,0.31-0.13,0.56h0.87c0-0.21-0.03-0.39-0.1-0.53S613.58,110.21,613.44,110.21z"
			/>
		<path d="M617.29,111.58c0,0.21-0.04,0.39-0.12,0.54c-0.08,0.16-0.19,0.28-0.33,0.37c-0.14,0.09-0.31,0.13-0.51,0.13
			c-0.29,0-0.54-0.06-0.75-0.17v-0.51c0.11,0.07,0.23,0.12,0.37,0.16s0.26,0.06,0.38,0.06c0.17,0,0.29-0.05,0.38-0.15
			s0.13-0.23,0.13-0.38c0-0.1-0.02-0.19-0.05-0.27c-0.03-0.07-0.09-0.14-0.17-0.21c-0.08-0.06-0.19-0.13-0.33-0.21
			s-0.26-0.15-0.36-0.24c-0.1-0.09-0.18-0.2-0.23-0.32s-0.08-0.28-0.08-0.47s0.04-0.36,0.11-0.5c0.08-0.14,0.18-0.26,0.32-0.33
			c0.14-0.08,0.3-0.12,0.48-0.12c0.14,0,0.27,0.02,0.4,0.05c0.13,0.04,0.24,0.08,0.35,0.14l-0.14,0.45c-0.1-0.06-0.2-0.1-0.3-0.13
			s-0.2-0.05-0.29-0.05c-0.14,0-0.25,0.04-0.33,0.13s-0.12,0.2-0.12,0.34c0,0.11,0.02,0.2,0.05,0.27s0.09,0.14,0.17,0.2
			s0.19,0.13,0.32,0.21c0.22,0.12,0.39,0.26,0.51,0.42C617.23,111.13,617.29,111.33,617.29,111.58z"/>
		<path d="M619.53,111.21c0,0.28-0.04,0.53-0.11,0.74c-0.07,0.21-0.17,0.38-0.31,0.49c-0.14,0.12-0.31,0.17-0.52,0.17
			c-0.2,0-0.37-0.06-0.5-0.17c-0.14-0.12-0.24-0.28-0.32-0.49c-0.07-0.21-0.11-0.46-0.11-0.74c0-0.44,0.08-0.78,0.23-1.02
			c0.16-0.25,0.39-0.37,0.7-0.37c0.29,0,0.51,0.12,0.68,0.36C619.45,110.41,619.53,110.76,619.53,111.21z M618.11,111.22
			c0,0.32,0.04,0.56,0.12,0.73c0.08,0.17,0.2,0.25,0.37,0.25s0.29-0.08,0.37-0.25c0.08-0.17,0.11-0.41,0.11-0.74
			c0-0.32-0.04-0.56-0.11-0.73c-0.08-0.17-0.2-0.25-0.37-0.25s-0.29,0.08-0.37,0.25C618.15,110.65,618.11,110.9,618.11,111.22z"/>
		<path d="M620.48,112.57h-0.44v-3.8h0.44V112.57z"/>
		<path d="M621.88,109.82c0.25,0,0.44,0.08,0.56,0.24c0.12,0.16,0.18,0.39,0.18,0.7v1.82h-0.33l-0.07-0.37h-0.01
			c-0.08,0.14-0.17,0.25-0.27,0.32c-0.1,0.07-0.23,0.1-0.38,0.1c-0.2,0-0.35-0.08-0.46-0.23c-0.1-0.16-0.16-0.35-0.16-0.58
			c0-0.27,0.08-0.48,0.23-0.63c0.15-0.14,0.38-0.22,0.67-0.24l0.32-0.01v-0.16c0-0.19-0.03-0.33-0.09-0.42s-0.15-0.13-0.27-0.13
			c-0.08,0-0.17,0.02-0.26,0.05c-0.09,0.03-0.18,0.08-0.28,0.13l-0.13-0.37c0.11-0.07,0.22-0.12,0.34-0.16
			S621.74,109.82,621.88,109.82z M622.17,111.26l-0.24,0.01c-0.19,0.01-0.33,0.06-0.41,0.14c-0.08,0.09-0.13,0.21-0.13,0.38
			c0,0.15,0.03,0.26,0.08,0.33c0.05,0.07,0.13,0.11,0.23,0.11c0.14,0,0.25-0.06,0.34-0.18c0.08-0.12,0.13-0.3,0.13-0.52V111.26z"/>
		<path d="M624.21,109.82c0.04,0,0.07,0,0.11,0.01s0.08,0.01,0.11,0.03l-0.05,0.5c-0.03-0.01-0.06-0.02-0.1-0.03
			s-0.07-0.01-0.11-0.01c-0.15,0-0.27,0.08-0.37,0.23s-0.15,0.36-0.15,0.61v1.41h-0.44v-2.7h0.35l0.06,0.46h0.02
			c0.06-0.15,0.14-0.27,0.23-0.37C623.97,109.87,624.08,109.82,624.21,109.82z"/>
		<path d="M625.02,108.84c0.17,0,0.25,0.1,0.25,0.31c0,0.1-0.02,0.18-0.07,0.23s-0.11,0.08-0.18,0.08c-0.07,0-0.14-0.03-0.18-0.08
			c-0.05-0.05-0.07-0.13-0.07-0.23s0.02-0.18,0.07-0.23C624.88,108.87,624.94,108.84,625.02,108.84z M625.23,109.87v2.7h-0.44v-2.7
			H625.23z"/>
		<path d="M627.56,109.87v2.7h-0.36l-0.05-0.36h-0.03c-0.06,0.14-0.14,0.24-0.25,0.31c-0.11,0.07-0.22,0.1-0.35,0.1
			c-0.24,0-0.41-0.08-0.52-0.25c-0.11-0.17-0.17-0.41-0.17-0.73v-1.77h0.45v1.67c0,0.44,0.11,0.66,0.34,0.66
			c0.19,0,0.31-0.08,0.38-0.23c0.07-0.15,0.11-0.38,0.11-0.68v-1.41H627.56z"/>
		<path d="M630.41,109.82c0.22,0,0.39,0.08,0.49,0.24c0.11,0.16,0.16,0.4,0.16,0.73v1.79h-0.44v-1.69c0-0.22-0.03-0.38-0.08-0.48
			c-0.06-0.1-0.14-0.15-0.25-0.15c-0.16,0-0.27,0.07-0.34,0.22c-0.07,0.15-0.1,0.36-0.1,0.65v1.45h-0.44v-1.7
			c0-0.21-0.03-0.37-0.08-0.47c-0.05-0.1-0.14-0.15-0.25-0.15c-0.17,0-0.29,0.08-0.35,0.25c-0.06,0.17-0.09,0.4-0.09,0.7v1.37h-0.44
			v-2.7h0.35l0.05,0.36h0.03c0.05-0.13,0.13-0.24,0.24-0.3c0.1-0.07,0.22-0.11,0.35-0.11c0.15,0,0.28,0.04,0.37,0.12
			c0.09,0.08,0.16,0.18,0.2,0.31h0.03C629.93,109.96,630.13,109.82,630.41,109.82z"/>
	</g>
	<g>
		<path d="M180.58,75.92c-0.21,0-0.39-0.04-0.54-0.12c-0.16-0.08-0.28-0.19-0.37-0.34s-0.13-0.31-0.13-0.51
			c0-0.29,0.06-0.54,0.17-0.75h0.51c-0.07,0.11-0.12,0.23-0.16,0.37c-0.04,0.13-0.06,0.26-0.06,0.38c0,0.17,0.05,0.29,0.15,0.38
			s0.23,0.13,0.38,0.13c0.1,0,0.19-0.02,0.27-0.05c0.07-0.03,0.14-0.09,0.21-0.17c0.06-0.08,0.13-0.19,0.21-0.33
			c0.07-0.14,0.15-0.26,0.24-0.36c0.09-0.1,0.2-0.18,0.32-0.23c0.12-0.06,0.28-0.08,0.47-0.08s0.36,0.04,0.5,0.11
			c0.14,0.08,0.26,0.18,0.33,0.32c0.08,0.14,0.12,0.3,0.12,0.48c0,0.14-0.02,0.27-0.05,0.4c-0.04,0.13-0.08,0.24-0.14,0.35
			l-0.45-0.14c0.06-0.1,0.1-0.2,0.13-0.3c0.03-0.1,0.05-0.2,0.05-0.29c0-0.14-0.04-0.26-0.13-0.33c-0.09-0.08-0.2-0.12-0.34-0.12
			c-0.11,0-0.2,0.02-0.27,0.05c-0.07,0.03-0.14,0.09-0.2,0.17s-0.13,0.19-0.21,0.32c-0.12,0.23-0.26,0.4-0.42,0.51
			C181.03,75.87,180.83,75.92,180.58,75.92z"/>
		<path d="M182.34,77.44c0,0.25-0.12,0.44-0.36,0.58c-0.24,0.14-0.58,0.21-1.04,0.21c-0.45,0-0.79-0.07-1.03-0.21
			c-0.24-0.14-0.37-0.33-0.37-0.57c0-0.14,0.04-0.26,0.11-0.36s0.17-0.18,0.29-0.25v-0.02c-0.07,0.01-0.14,0.01-0.21,0.02
			c-0.07,0-0.13,0.01-0.18,0.01h-1.15v-0.44h3.9v0.36l-0.37,0.06v0.02c0.14,0.07,0.24,0.15,0.31,0.25
			C182.3,77.19,182.34,77.3,182.34,77.44z M181.92,77.32c0-0.17-0.07-0.29-0.22-0.36c-0.14-0.08-0.37-0.11-0.68-0.12h-0.1
			c-0.33,0-0.57,0.04-0.72,0.11c-0.16,0.08-0.23,0.2-0.23,0.37c0,0.3,0.33,0.45,0.97,0.45c0.32,0,0.56-0.04,0.73-0.11
			S181.92,77.48,181.92,77.32z"/>
		<path d="M180.94,80.49c-0.28,0-0.53-0.04-0.74-0.11c-0.21-0.07-0.38-0.18-0.49-0.31c-0.12-0.14-0.17-0.31-0.17-0.52
			c0-0.2,0.06-0.37,0.17-0.5c0.12-0.14,0.28-0.24,0.49-0.31c0.21-0.07,0.46-0.11,0.74-0.11c0.44,0,0.78,0.08,1.02,0.23
			c0.25,0.16,0.37,0.39,0.37,0.7c0,0.29-0.12,0.51-0.36,0.68C181.74,80.41,181.4,80.49,180.94,80.49z M180.94,79.07
			c-0.32,0-0.56,0.04-0.73,0.11c-0.17,0.08-0.25,0.2-0.25,0.37s0.08,0.29,0.25,0.37c0.17,0.08,0.41,0.11,0.74,0.11
			c0.32,0,0.56-0.04,0.73-0.11c0.17-0.08,0.25-0.2,0.25-0.37s-0.08-0.29-0.25-0.37C181.51,79.11,181.26,79.07,180.94,79.07z"/>
		<path d="M182.34,81.98c0,0.04,0,0.07-0.01,0.11c0,0.04-0.01,0.08-0.03,0.11l-0.5-0.05c0.01-0.03,0.02-0.06,0.03-0.1
			c0-0.03,0.01-0.07,0.01-0.11c0-0.15-0.08-0.27-0.23-0.37c-0.16-0.1-0.36-0.15-0.61-0.15h-1.41V81h2.7v0.35l-0.46,0.06v0.02
			c0.15,0.06,0.27,0.14,0.37,0.23C182.29,81.75,182.34,81.86,182.34,81.98z"/>
		<path d="M179.96,83.29c0,0.04,0.01,0.09,0.02,0.14c0.01,0.05,0.03,0.09,0.04,0.13h-0.39c-0.06-0.11-0.09-0.24-0.09-0.4
			c0-0.18,0.06-0.32,0.18-0.42s0.32-0.15,0.6-0.15h1.56v-0.26h0.25l0.15,0.28l0.59,0.13v0.29h-0.59v0.5h-0.41v-0.5h-1.53
			C180.1,83.03,179.96,83.12,179.96,83.29z"/>
		<path d="M182.76,86.05c0-0.17-0.06-0.31-0.18-0.43c-0.12-0.11-0.29-0.2-0.5-0.25c-0.21-0.06-0.45-0.08-0.71-0.08
			c-0.43,0-0.77,0.07-1.02,0.2c-0.24,0.13-0.36,0.33-0.36,0.58c0,0.11,0.01,0.21,0.04,0.3c0.03,0.1,0.06,0.19,0.11,0.28h-0.45
			c-0.05-0.09-0.09-0.19-0.11-0.29c-0.02-0.1-0.04-0.22-0.04-0.35c0-0.39,0.16-0.68,0.49-0.89s0.77-0.31,1.35-0.31
			c0.35,0,0.66,0.05,0.94,0.14c0.28,0.09,0.5,0.23,0.66,0.41s0.24,0.41,0.24,0.68c0,0.26-0.07,0.5-0.2,0.71l-0.42-0.15
			c0.05-0.08,0.1-0.17,0.13-0.26S182.76,86.15,182.76,86.05z"/>
		<path d="M182.33,87.96c0,0.18-0.05,0.34-0.15,0.46c-0.1,0.13-0.24,0.22-0.42,0.29c-0.18,0.06-0.39,0.1-0.63,0.1h-0.3v-1.3
			c-0.59,0.01-0.88,0.2-0.88,0.58c0,0.11,0.01,0.22,0.04,0.32c0.03,0.1,0.08,0.2,0.14,0.3h-0.42c-0.12-0.19-0.17-0.41-0.17-0.66
			c0-0.33,0.13-0.58,0.38-0.74c0.25-0.16,0.59-0.24,1-0.24c0.45,0,0.8,0.08,1.05,0.23C182.21,87.45,182.33,87.67,182.33,87.96z
			 M181.94,87.96c0-0.13-0.06-0.23-0.19-0.31s-0.31-0.12-0.56-0.13v0.87c0.21,0,0.39-0.03,0.53-0.1S181.94,88.1,181.94,87.96z"/>
		<path d="M182.34,90.33c0,0.22-0.08,0.39-0.23,0.51s-0.39,0.18-0.72,0.18h-1.8v-0.44h1.7c0.21,0,0.36-0.03,0.47-0.08
			c0.11-0.05,0.16-0.15,0.16-0.27c0-0.18-0.08-0.3-0.23-0.37c-0.15-0.07-0.39-0.11-0.72-0.11h-1.37V89.3h2.7v0.35l-0.36,0.05v0.03
			c0.13,0.06,0.24,0.14,0.3,0.25C182.3,90.09,182.34,90.2,182.34,90.33z"/>
		<path d="M179.96,92.35c0,0.04,0.01,0.09,0.02,0.14s0.03,0.09,0.04,0.13h-0.39c-0.06-0.11-0.09-0.24-0.09-0.4
			c0-0.18,0.06-0.32,0.18-0.42c0.12-0.1,0.32-0.15,0.6-0.15h1.56v-0.26h0.25l0.15,0.28l0.59,0.13v0.29h-0.59v0.5h-0.41v-0.5h-1.53
			C180.1,92.09,179.96,92.18,179.96,92.35z"/>
		<path d="M182.33,93.79c0,0.18-0.05,0.34-0.15,0.46c-0.1,0.12-0.24,0.22-0.42,0.29c-0.18,0.06-0.39,0.1-0.63,0.1h-0.3v-1.3
			c-0.59,0.01-0.88,0.2-0.88,0.58c0,0.11,0.01,0.22,0.04,0.31c0.03,0.1,0.08,0.2,0.14,0.3h-0.42c-0.12-0.19-0.17-0.41-0.17-0.66
			c0-0.33,0.13-0.58,0.38-0.74c0.25-0.16,0.59-0.24,1-0.24c0.45,0,0.8,0.08,1.05,0.23C182.21,93.29,182.33,93.51,182.33,93.79z
			 M181.94,93.79c0-0.13-0.06-0.23-0.19-0.31c-0.12-0.08-0.31-0.12-0.56-0.14v0.87c0.21,0,0.39-0.04,0.53-0.1
			C181.87,94.04,181.94,93.94,181.94,93.79z"/>
		<path d="M182.34,96.12c0,0.04,0,0.07-0.01,0.11s-0.01,0.08-0.03,0.11l-0.5-0.05c0.01-0.03,0.02-0.06,0.03-0.1s0.01-0.07,0.01-0.11
			c0-0.15-0.08-0.27-0.23-0.37c-0.16-0.1-0.36-0.15-0.61-0.15h-1.41v-0.44h2.7v0.35l-0.46,0.06v0.02c0.15,0.06,0.27,0.14,0.37,0.23
			C182.29,95.89,182.34,96,182.34,96.12z"/>
	</g>
</g>
</svg>
