<?xml version="1.0" encoding="utf-8"?>
<!-- Generator: Adobe Illustrator 28.7.3, SVG Export Plug-In . SVG Version: 9.03 Build 54978)  -->
<svg version="1.0" xmlns="http://www.w3.org/2000/svg" xmlns:xlink="http://www.w3.org/1999/xlink" x="0px" y="0px"
	 viewBox="0 0 907.09 170.08" enable-background="new 0 0 907.09 170.08" xml:space="preserve">
<desc>MSC World Asia</desc>
<metadata><?xpacket begin="﻿" id="W5M0MpCehiHzreSzNTczkc9d"?>
<x:xmpmeta xmlns:x="adobe:ns:meta/" x:xmptk="Adobe XMP Core 7.1-c000 79.4d2f597, 2021/09/01-20:51:22        ">
   <rdf:RDF xmlns:rdf="http://www.w3.org/1999/02/22-rdf-syntax-ns#">
      <rdf:Description rdf:about=""
            xmlns:dc="http://purl.org/dc/elements/1.1/"
            xmlns:xmpRights="http://ns.adobe.com/xap/1.0/rights/"
            xmlns:xmp="http://ns.adobe.com/xap/1.0/"
            xmlns:xmpMM="http://ns.adobe.com/xap/1.0/mm/"
            xmlns:stEvt="http://ns.adobe.com/xap/1.0/sType/ResourceEvent#">
         <dc:description>
            <rdf:Alt>
               <rdf:li xml:lang="x-default">MSC World Asia</rdf:li>
            </rdf:Alt>
         </dc:description>
         <dc:rights>
            <rdf:Alt>
               <rdf:li xml:lang="x-default">MSC Rights</rdf:li>
            </rdf:Alt>
         </dc:rights>
         <xmpRights:Marked>True</xmpRights:Marked>
         <xmp:MetadataDate>2025-01-20T12:57:46+01:00</xmp:MetadataDate>
         <xmpMM:InstanceID>xmp.iid:8ad55f6e-b4ec-4570-907f-9be2b8f7462a</xmpMM:InstanceID>
         <xmpMM:DocumentID>xmp.did:8ad55f6e-b4ec-4570-907f-9be2b8f7462a</xmpMM:DocumentID>
         <xmpMM:OriginalDocumentID>xmp.did:8ad55f6e-b4ec-4570-907f-9be2b8f7462a</xmpMM:OriginalDocumentID>
         <xmpMM:History>
            <rdf:Seq>
               <rdf:li>
                  <rdf:Description>
                     <stEvt:action>saved</stEvt:action>
                     <stEvt:instanceID>xmp.iid:8ad55f6e-b4ec-4570-907f-9be2b8f7462a</stEvt:instanceID>
                     <stEvt:when>2025-01-20T12:57:46+01:00</stEvt:when>
                     <stEvt:softwareAgent>Adobe Bridge 2021 (Macintosh)</stEvt:softwareAgent>
                     <stEvt:changed>/metadata</stEvt:changed>
                  </rdf:Description>
               </rdf:li>
            </rdf:Seq>
         </xmpMM:History>
      </rdf:Description>
   </rdf:RDF>
</x:xmpmeta>
                                                                                                    
                                                                                                    
                                                                                                    
                                                                                                    
                                                                                                    
                                                                                                    
                                                                                                    
                                                                                                    
                                                                                                    
                                                                                                    
                                                                                                    
                                                                                                    
                                                                                                    
                                                                                                    
                                                                                                    
                                                                                                    
                                                                                                    
                                                                                                    
                                                                                                    
                                                                                                    
                           
<?xpacket end="w"?></metadata>
<g id="ingombro">
	<rect fill="none" width="907.09" height="170.08"/>
</g>
<g id="ship">
	<path fill="none" stroke="#000000" stroke-width="0.2" stroke-miterlimit="10" d="M640.96,123.42c-18.35,0-28.71,0-29.37,0
		c-1.45,0-2.36-1.26-2.52-2.32"/>
	<path fill="none" stroke="#000000" stroke-width="0.2" stroke-miterlimit="10" d="M609.17,49.43c0.09-0.61,1.27-1.74,2.43-1.74
		c0.56,0,10.58,0,31.01,0v1.11h-3.56v8.81H620.1v6.83h17.92v-4.18h1.02v13.73h-6.71v2.96h-13.27l-0.02-29.26"/>
	<path fill="none" stroke="#000000" stroke-width="0.1" stroke-miterlimit="10" d="M684.87,91.67h-16.55
		c-0.34,0-0.62,0.28-0.62,0.62v11.48h17.79V92.29C685.49,91.95,685.21,91.67,684.87,91.67z"/>
	<polyline fill="none" stroke="#000000" stroke-width="0.1" stroke-miterlimit="10" points="668.71,91.67 668.71,102.64 
		684.33,102.64 684.33,91.67 	"/>
	<line fill="none" stroke="#000000" stroke-width="0.1" stroke-miterlimit="10" x1="683.29" y1="91.97" x2="681.49" y2="91.97"/>
	<polyline fill="none" stroke="#000000" stroke-width="0.1" stroke-miterlimit="10" points="683.29,90.9 683.29,92.36 681.49,92.36 
		681.49,90.9 	"/>
	<polyline fill="none" stroke="#000000" stroke-width="0.1" stroke-miterlimit="10" points="667.94,102.45 669.4,102.45 
		669.4,100.65 667.94,100.65 	"/>
	<line fill="none" stroke="#000000" stroke-width="0.1" stroke-miterlimit="10" x1="669.01" y1="100.65" x2="669.01" y2="102.45"/>
	<path fill="none" stroke="#000000" stroke-width="0.1" stroke-miterlimit="10" d="M693.56,105.33c0-2.82,0.98-5.54,2.75-7.61
		c3.35-3.96,3.13-10.12-0.5-13.79c-4.03-4.07-9.07-6.41-15.91-6.38"/>
	<g id="CIRCLE_2_">
		<path fill="none" stroke="#000000" stroke-width="0.1" stroke-miterlimit="10" d="M679.9,77.55c0.8,3.72-1.32,7.33-4.75,8.07
			c-3.43,0.74-6.85-1.67-7.66-5.39c-0.8-3.72,1.32-7.33,4.75-8.07C675.67,71.42,679.1,73.84,679.9,77.55L679.9,77.55z"/>
	</g>
	<path fill="none" stroke="#000000" stroke-width="0.1" stroke-miterlimit="10" d="M671.69,85.33l0.44-1.44c0,0-0.9-0.48-1.44-0.94
		c-0.68-0.58-1.23-1.46-1.23-1.46l-1.24,0.75"/>
	<path fill="none" stroke="#000000" stroke-width="0.1" stroke-miterlimit="10" d="M671.89,84.66c0,0-1.16-0.65-1.69-1.14
		c-0.75-0.7-1.37-1.64-1.37-1.64"/>
	
		<ellipse transform="matrix(0.9775 -0.211 0.211 0.9775 -1.4762 143.9521)" fill="none" stroke="#000000" stroke-width="0.1" stroke-miterlimit="10" cx="673.7" cy="78.89" rx="3.99" ry="4.07"/>
	
		<ellipse transform="matrix(0.9775 -0.211 0.211 0.9775 -1.4762 143.9521)" fill="none" stroke="#000000" stroke-width="0.1" stroke-miterlimit="10" cx="673.7" cy="78.89" rx="3.05" ry="3.11"/>
	<line fill="none" stroke="#000000" stroke-width="0.1" stroke-miterlimit="10" x1="670.63" y1="78.96" x2="673.85" y2="82.01"/>
	<path fill="none" stroke="#000000" stroke-width="0.1" stroke-miterlimit="10" d="M672.21,79.03l1.71,1.62c0,0,0.87,0.23,1.58-0.52
		c0.71-0.75,0.46-1.92-0.28-2.62s-1.92-0.49-2.43,0.05C672.19,78.19,672.21,79.03,672.21,79.03z"/>
	<line fill="none" stroke="#000000" stroke-width="0.1" stroke-miterlimit="10" x1="721.04" y1="77.35" x2="727.4" y2="80.91"/>
	<line fill="none" stroke="#000000" stroke-width="0.1" stroke-miterlimit="10" x1="721.04" y1="76.43" x2="727.66" y2="80.08"/>
	<line fill="none" stroke="#000000" stroke-width="0.1" stroke-miterlimit="10" x1="721.21" y1="75.57" x2="727.79" y2="79.24"/>
	<line fill="none" stroke="#000000" stroke-width="0.1" stroke-miterlimit="10" x1="721.35" y1="74.73" x2="728.13" y2="78.5"/>
	<line fill="none" stroke="#000000" stroke-width="0.1" stroke-miterlimit="10" x1="722.73" y1="74.62" x2="728.37" y2="77.8"/>
	<line fill="none" stroke="#000000" stroke-width="0.1" stroke-miterlimit="10" x1="724.07" y1="74.46" x2="728.61" y2="77.01"/>
	<line fill="none" stroke="#000000" stroke-width="0.1" stroke-miterlimit="10" x1="725.52" y1="74.3" x2="728.91" y2="76.21"/>
	<line fill="none" stroke="#000000" stroke-width="0.1" stroke-miterlimit="10" x1="726.93" y1="74.19" x2="729.11" y2="75.42"/>
	<line fill="none" stroke="#000000" stroke-width="0.1" stroke-miterlimit="10" x1="721.35" y1="74.73" x2="729.59" y2="73.91"/>
	<line fill="none" stroke="#000000" stroke-width="0.1" stroke-miterlimit="10" x1="728.32" y1="74.05" x2="729.33" y2="74.62"/>
	<polyline fill="none" stroke="#000000" stroke-width="0.2" stroke-miterlimit="10" points="694.09,56.46 694.09,54.45 
		692.17,54.45 692.17,55.14 687.38,55.14 687.38,48.68 692.52,48.68 692.52,51.6 693.98,51.6 693.98,48.56 697.94,48.56 	"/>
	<rect x="645.18" y="47.69" fill="none" stroke="#000000" stroke-width="0.2" stroke-miterlimit="10" width="7.05" height="1.11"/>
	<rect x="620.1" y="65.38" fill="none" stroke="#000000" stroke-width="0.2" stroke-miterlimit="10" width="17.92" height="7.61"/>
	<rect x="625.7" y="48.79" fill="none" stroke="#000000" stroke-width="0.2" stroke-miterlimit="10" width="12.33" height="7.79"/>
	<polyline fill="none" stroke="#000000" stroke-width="0.2" stroke-miterlimit="10" points="640.96,123.35 640.96,122.33 
		639.05,122.33 639.05,113.43 620.1,113.43 620.1,106.61 638.03,106.61 638.03,110.79 639.05,110.79 639.05,97.05 632.33,97.05 
		632.33,94.09 619.07,94.09 619.05,123.36 	"/>
	<rect x="620.1" y="98.05" fill="none" stroke="#000000" stroke-width="0.2" stroke-miterlimit="10" width="17.92" height="7.61"/>
	<rect x="625.7" y="114.46" fill="none" stroke="#000000" stroke-width="0.2" stroke-miterlimit="10" width="12.33" height="7.87"/>
	
		<rect x="659.71" y="106.49" fill="none" stroke="#000000" stroke-width="0.2" stroke-miterlimit="10" width="6.54" height="14.17"/>
	<path fill="none" stroke="#000000" stroke-width="0.2" stroke-miterlimit="10" d="M669.94,47.69v1.11h-2.4v15.68h11.35v-4.15h6.47
		v-3.97h-4.56v-7.56h-8.09v-1.11h0.46c14.52,0,24.77,0,24.77,0v8.68h-3.86v10.2h-25.36l-3.71,3.14h-4.93v7.32
		c0,0-0.25,0.4-0.25,1.09c0,0.69,2.3,5.8,0.51,17.65c-0.3,2.19-0.31,3.27-0.31,3.27v6.29h34v18.09h-20.97v-1.1h19.55v-15.84h-24.62
		v15.84h2.44v1.1c0,0-7.08,0-13.84,0v0.07v-1.16h2.42V48.79h-2.8v-1.11c0,0,3.19,0,4.77,0v1.11h-0.86v15.68h6.56V48.79h-1.19v-1.11
		c1.65,0,3.29,0,4.89,0"/>
	<rect x="665.7" y="28.27" fill="none" stroke="#000000" stroke-width="0.2" stroke-miterlimit="10" width="1.58" height="14.93"/>
	<line fill="none" stroke="#000000" stroke-width="0.2" stroke-miterlimit="10" x1="666.49" y1="28.3" x2="666.49" y2="43.2"/>
	<rect x="638.23" y="38.79" fill="none" stroke="#000000" stroke-width="0.2" stroke-miterlimit="10" width="1.58" height="8.75"/>
	<line fill="none" stroke="#000000" stroke-width="0.2" stroke-miterlimit="10" x1="639.02" y1="38.81" x2="639.02" y2="47.54"/>
	<rect x="638.23" y="123.48" fill="none" stroke="#000000" stroke-width="0.2" stroke-miterlimit="10" width="1.58" height="8.75"/>
	<line fill="none" stroke="#000000" stroke-width="0.2" stroke-miterlimit="10" x1="639.02" y1="123.5" x2="639.02" y2="132.22"/>
	
		<rect x="665.72" y="127.79" fill="none" stroke="#000000" stroke-width="0.2" stroke-miterlimit="10" width="1.58" height="14.93"/>
	<line fill="none" stroke="#000000" stroke-width="0.2" stroke-miterlimit="10" x1="666.51" y1="127.82" x2="666.51" y2="142.72"/>
	
		<ellipse transform="matrix(0.6389 -0.7693 0.7693 0.6389 204.4614 567.178)" fill="none" stroke="#000000" stroke-width="0.1" stroke-miterlimit="10" cx="706.36" cy="65.81" rx="4" ry="1.95"/>
	
		<ellipse transform="matrix(0.6389 -0.7693 0.7693 0.6389 204.5337 567.1883)" fill="none" stroke="#000000" stroke-width="0.1" stroke-miterlimit="10" cx="706.4" cy="65.74" rx="6.81" ry="4.37"/>
	
		<ellipse transform="matrix(0.9653 -0.2612 0.2612 0.9653 9.807 186.4442)" fill="none" stroke="#000000" stroke-width="0.1" stroke-miterlimit="10" cx="706.34" cy="56.33" rx="4.54" ry="3.44"/>
	<line fill="none" stroke="#000000" stroke-width="0.1" stroke-miterlimit="10" x1="711.28" y1="49.22" x2="717.7" y2="55.11"/>
	<path fill="none" stroke="#000000" stroke-width="0.2" stroke-miterlimit="10" d="M271.07,42.6c0,0,8.76,1.02,12.06,1.92
		c2.7,0.74,3.12,1.88,3.12,2.45v1.17c0,0,23.11-0.64,46.75-1.17c23.83-0.53,46.84-4.52,46.84-4.52"/>
	<path fill="none" stroke="#000000" stroke-width="0.1" stroke-miterlimit="10" d="M341.94,46.6c0,0,7.75,3.59,7.75,11.88
		c0,7.21-5.04,10.61-5.04,10.61"/>
	<path fill="none" stroke="#000000" stroke-width="0.1" stroke-miterlimit="10" d="M347.73,46.3c0,0,7.91,3.6,7.91,11.92
		c0,7.88-4.12,10.89-4.12,10.89"/>
	<polyline fill="none" stroke="#000000" stroke-width="0.2" stroke-miterlimit="10" points="313.66,69.89 281.15,69.89 
		281.15,69.07 388.91,69.07 388.91,69.75 281.15,69.89 	"/>
	<path fill="none" stroke="#000000" stroke-width="0.1" stroke-miterlimit="10" d="M352.19,45.86c0,0,6.62,2.06,8.29,9.93
		c1.82,8.59-3.06,13.25-3.06,13.25"/>
	<path fill="none" stroke="#000000" stroke-width="0.1" stroke-miterlimit="10" d="M356.59,45.47c0,0,7.18,2.78,8.58,10.35
		c1.54,8.34-2.63,13.22-2.63,13.22"/>
	<path fill="none" stroke="#000000" stroke-width="0.1" stroke-miterlimit="10" d="M360.02,45.12c0,0,6.66,1.66,9.02,10.57
		c2.06,7.78-2.12,13.39-2.12,13.39"/>
	<path fill="none" stroke="#000000" stroke-width="0.1" stroke-miterlimit="10" d="M363.15,44.69c0,0,7.14,1.69,9.56,10.7
		c2.01,7.47-1.77,13.71-1.77,13.71"/>
	<path fill="none" stroke="#000000" stroke-width="0.1" stroke-miterlimit="10" d="M366.19,44.4c0,0,7.06,1.48,9.76,10.38
		c2.51,8.29-1.62,14.25-1.62,14.25"/>
	<path fill="none" stroke="#000000" stroke-width="0.1" stroke-miterlimit="10" d="M368.66,44.05c0.08-0.09,8.4,1.95,10.61,11.41
		c2.03,8.69-1.88,13.51-1.87,13.63"/>
	<path fill="none" stroke="#000000" stroke-width="0.1" stroke-miterlimit="10" d="M371.03,43.83c0,0,8.34,1.6,10.96,11.45
		c2.11,7.92-1.74,13.82-1.74,13.82"/>
	<path fill="none" stroke="#000000" stroke-width="0.1" stroke-miterlimit="10" d="M373.19,43.47c0,0,8.29,1.69,11.11,11.13
		c2.53,8.45-1.58,14.42-1.58,14.42"/>
	<path fill="none" stroke="#000000" stroke-width="0.1" stroke-miterlimit="10" d="M375.29,43.16c0,0,8.5,2.09,11.35,11.64
		c2.39,8-1.65,14.23-1.65,14.23"/>
	<path fill="none" stroke="#000000" stroke-width="0.2" stroke-miterlimit="10" d="M378.77,42.6c0,0,9.86,2.53,12.11,12.97
		c1.73,8.02-1.97,13.5-1.97,13.5"/>
	<path fill="none" stroke="#000000" stroke-width="0.2" stroke-miterlimit="10" d="M271.07,127.79c0,0,8.76-1.02,12.06-1.92
		c2.7-0.74,3.12-1.88,3.12-2.45v-1.17c0,0,23.11,0.64,46.75,1.17c23.83,0.53,46.84,4.52,46.84,4.52"/>
	<path fill="none" stroke="#000000" stroke-width="0.1" stroke-miterlimit="10" d="M341.94,123.78c0,0,7.75-3.59,7.75-11.88
		c0-7.21-5.04-10.61-5.04-10.61"/>
	<path fill="none" stroke="#000000" stroke-width="0.1" stroke-miterlimit="10" d="M347.73,124.09c0,0,7.91-3.6,7.91-11.92
		c0-7.88-4.12-10.89-4.12-10.89"/>
	<polyline fill="none" stroke="#000000" stroke-width="0.2" stroke-miterlimit="10" points="313.66,100.5 281.15,100.5 
		281.15,101.31 388.91,101.31 388.91,100.63 281.15,100.5 	"/>
	<path fill="none" stroke="#000000" stroke-width="0.1" stroke-miterlimit="10" d="M352.19,124.52c0,0,6.62-2.06,8.29-9.93
		c1.82-8.59-3.06-13.25-3.06-13.25"/>
	<path fill="none" stroke="#000000" stroke-width="0.1" stroke-miterlimit="10" d="M356.59,124.91c0,0,7.18-2.78,8.58-10.35
		c1.54-8.34-2.63-13.22-2.63-13.22"/>
	<path fill="none" stroke="#000000" stroke-width="0.1" stroke-miterlimit="10" d="M360.02,125.27c0,0,6.66-1.66,9.02-10.57
		c2.06-7.78-2.12-13.39-2.12-13.39"/>
	<path fill="none" stroke="#000000" stroke-width="0.1" stroke-miterlimit="10" d="M363.15,125.69c0,0,7.14-1.69,9.56-10.7
		c2.01-7.47-1.77-13.71-1.77-13.71"/>
	<path fill="none" stroke="#000000" stroke-width="0.1" stroke-miterlimit="10" d="M366.19,125.98c0,0,7.06-1.48,9.76-10.38
		c2.51-8.29-1.62-14.25-1.62-14.25"/>
	<path fill="none" stroke="#000000" stroke-width="0.1" stroke-miterlimit="10" d="M368.66,126.33c0.08,0.09,8.4-1.95,10.61-11.41
		c2.03-8.69-1.88-13.51-1.87-13.63"/>
	<path fill="none" stroke="#000000" stroke-width="0.1" stroke-miterlimit="10" d="M371.03,126.56c0,0,8.34-1.6,10.96-11.45
		c2.11-7.92-1.74-13.82-1.74-13.82"/>
	<path fill="none" stroke="#000000" stroke-width="0.1" stroke-miterlimit="10" d="M373.19,126.91c0,0,8.29-1.69,11.11-11.13
		c2.53-8.45-1.58-14.42-1.58-14.42"/>
	<path fill="none" stroke="#000000" stroke-width="0.1" stroke-miterlimit="10" d="M375.29,127.22c0,0,8.5-2.09,11.35-11.64
		c2.39-8-1.65-14.23-1.65-14.23"/>
	<path fill="none" stroke="#000000" stroke-width="0.2" stroke-miterlimit="10" d="M378.77,127.79c0,0,9.86-2.53,12.11-12.97
		c1.73-8.02-1.97-13.5-1.97-13.5"/>
	
		<rect x="300.75" y="49.65" fill="none" stroke="#000000" stroke-width="0.2" stroke-miterlimit="10" width="30.55" height="18.07"/>
	<polyline fill="none" stroke="#000000" stroke-width="0.2" stroke-miterlimit="10" points="286.19,69.07 286.19,52.23 
		287.55,52.23 287.55,67.72 299.38,67.72 299.38,49.65 286.19,49.65 286.19,48.13 	"/>
	<polyline fill="none" stroke="#000000" stroke-width="0.2" stroke-miterlimit="10" points="300.75,101.31 300.75,120.65 
		328.95,120.65 328.95,106.88 313.13,106.88 313.13,101.31 	"/>
	<polyline fill="none" stroke="#000000" stroke-width="0.2" stroke-miterlimit="10" points="286.19,101.31 286.19,118.07 
		287.55,118.07 287.55,102.58 299.38,102.58 299.38,120.65 286.19,120.65 286.19,122.16 	"/>
	<path fill="none" stroke="#000000" stroke-width="0.4" stroke-miterlimit="10" d="M267.4,48.18"/>
	<path fill="none" stroke="#000000" stroke-width="0.2" stroke-miterlimit="10" d="M721.28,145.86v-7.15l7.33-3.66l-2.7-7.6
		c0,0,7.05-18.31,9.26-25.61c2.21-7.3,2.71-16.4,1.03-23.15c-1.08-4.36-4.8,5.54-4.8,5.54l-4.23-2.68l4.04-12.83"/>
	<path fill="none" stroke="#000000" stroke-width="0.4" stroke-miterlimit="10" d="M721.28,145.86l-7.12-0.11l-8.51,0.3l-7.2,0.62
		l-18.1,1.67l-7.14,0.05l-43.34-0.26l-4.15-2.36h-11.16c0,0-8.15-26.59-8.15-60.53s8.15-60.53,8.15-60.53h11.16l4.15-2.36
		l43.32-0.47l14.34-0.18l19.68,0.25c0,0,10.03,1.52,12.99,3.41l2.4-0.06c0,0,11.92,2.47,16.31,24.09s2.48,49.56,2.48,49.56
		s-2.32,36.22-12.43,43.59C724.3,145.94,721.28,145.86,721.28,145.86z"/>
	<path fill="none" stroke="#000000" stroke-width="0.2" stroke-miterlimit="10" d="M719.13,76.48l0.78,1.83l0.85,0.38l1.86-14.24
		c0,0,7.11-10.8,6.17-21.55s-7.03-17.53-7.03-17.53"/>
	<path fill="none" stroke="#000000" stroke-width="0.4" stroke-miterlimit="10" d="M733.53,85.08"/>
	<path fill="none" stroke="#000000" stroke-width="0.4" stroke-miterlimit="10" d="M267.4,122.36"/>
	<path fill="none" stroke="#000000" stroke-width="0.4" stroke-miterlimit="10" d="M245.34,75.23c-0.54,3.38-0.8,6.97-0.8,9.89"/>
	<path fill="none" stroke="#000000" stroke-width="0.4" stroke-miterlimit="10" d="M248.18,64.41c-0.73,2.07-1.51,4.6-1.99,6.68"/>
	<path fill="none" stroke="#000000" stroke-width="0.4" stroke-miterlimit="10" d="M251.47,57.16c-0.74,1.25-1.7,3.03-2.34,4.49"/>
	<path fill="none" stroke="#000000" stroke-width="0.4" stroke-miterlimit="10" d="M244.54,85.12c0,14.09,6.14,37.24,19.9,37.24
		c1.89,0,2.96,0,2.96,0l3.68,5.58h121.95c2.55,0,5.1-2.54,5.1-5.43V48.02c0-2.88-2.55-5.43-5.1-5.43H271.07l-3.68,5.58
		c0,0-1.07,0-2.96,0c-3.64,0-6.89,1.77-9.49,4.38"/>
	<polyline fill="none" stroke="#000000" stroke-width="0.4" stroke-miterlimit="10" points="263.97,52.55 263.97,51.37 
		278.42,51.37 278.42,48.14 337.96,48.14 337.96,69.89 313.66,69.89 313.66,100.65 337.96,100.65 337.96,122.4 278.42,122.4 
		278.42,119.17 263.97,119.17 263.97,90.34 	"/>
	<line fill="none" stroke="#000000" stroke-width="0.4" stroke-miterlimit="10" x1="263.97" y1="72.7" x2="263.97" y2="57.72"/>
	
		<rect x="363.83" y="65.36" fill="none" stroke="#000000" stroke-width="0.4" stroke-miterlimit="10" width="21.17" height="13.19"/>
	
		<rect x="352.53" y="78.55" fill="none" stroke="#000000" stroke-width="0.4" stroke-miterlimit="10" width="18.35" height="13.19"/>
	
		<rect x="363.83" y="91.74" fill="none" stroke="#000000" stroke-width="0.4" stroke-miterlimit="10" width="21.17" height="13.19"/>
	<rect x="255.72" y="52.58" fill="none" stroke="#000000" stroke-width="0.2" stroke-miterlimit="10" width="12.16" height="5.14"/>
	<path fill="none" stroke="#000000" stroke-width="0.2" stroke-miterlimit="10" d="M255.72,52.58c0,0-5.14,0.39-7.9-4.4
		s-5.82-9.16-13.35-9.16s-13.19,0-19.17,0s-9.4,4.99-10.75,9.4c-1.35,4.42-2.92,10.76-3.42,12.36c-0.94,3.01-4.83,6.53-8.84,3.53
		c-2.54-1.9-2.37-5.7-0.34-7.63c1.45-1.37,2.55-1.94,4.58-2.46c2.03-0.52,3.29-0.88,4.64-1.24c1.35-0.36,2.31-0.88,2.31-0.88"/>
	<path fill="none" stroke="#000000" stroke-width="0.2" stroke-miterlimit="10" d="M255.72,57.72c0,0-0.63,0-1.73,0
		c-1.64,0-7.25-1.9-9.4-5.39c-2.89-4.72-4.59-8.39-10.19-8.19c0,0-16.6,0-19.04,0c-2.45,0-5.02,2-5.93,5.55
		c-0.91,3.54-2.7,10.69-3.46,12.72c-0.76,2.02-3.69,8.1-10.59,8.1c-6.9,0-10.17-6.16-10.17-10.21s2.83-8.94,9.43-10.8
		c6.6-1.86,9.26-2.93,10.27-5.74c1.01-2.8-0.81-5.51-1.5-6.37c-0.86-1.08-0.3-4.28,3.23-1.98c2.3,1.5,3.18,5.29,3.18,5.29"/>
	<path fill="none" stroke="#000000" stroke-width="0.2" stroke-miterlimit="10" d="M260.85,52.55c0,0-0.38,0.76-0.38,1.37
		s0.38,1.23,0.38,1.23s-0.38,0.48-0.38,1.34c0,0.86,0.38,1.23,0.38,1.23"/>
	<path fill="none" stroke="#000000" stroke-width="0.2" stroke-miterlimit="10" d="M258.12,52.55c0,0-0.38,0.76-0.38,1.37
		s0.38,1.23,0.38,1.23s-0.38,0.48-0.38,1.34c0,0.86,0.38,1.23,0.38,1.23"/>
	<line fill="none" stroke="#000000" stroke-width="0.2" stroke-miterlimit="10" x1="255.72" y1="55.14" x2="267.88" y2="55.14"/>
	<path fill="none" stroke="#000000" stroke-width="0.2" stroke-miterlimit="10" d="M268.63,72.7c0,0,0.89,0.82,0.89,2.47
		s-0.89,2.4-0.89,2.4h-6.83l-1.14-0.55v-3.56l1.14-0.75H268.63z"/>
	<line fill="none" stroke="#000000" stroke-width="0.2" stroke-miterlimit="10" x1="260.66" y1="73.45" x2="254.1" y2="73.45"/>
	<line fill="none" stroke="#000000" stroke-width="0.2" stroke-miterlimit="10" x1="260.66" y1="77.01" x2="254.1" y2="77.01"/>
	<line fill="none" stroke="#000000" stroke-width="0.2" stroke-miterlimit="10" x1="260.66" y1="75.13" x2="254.1" y2="75.13"/>
	<path fill="none" stroke="#000000" stroke-width="0.2" stroke-miterlimit="10" d="M239.81,69.68c0,0-2.16,5.72-9.04,5.72
		c-6.2,0-9.25-5.89-9.25-9.01c0-4.11,2.16-10.04,9.49-10.04s10.17,7.06,12.13,10.96c1.95,3.91,5.7,5.79,7.97,5.79c1.47,0,3,0,3,0
		v4.25c0,0-2.07,0-3,0c-2.13,0-5.15-1.33-7.53-3.49c-2.15-1.95-3.41-3.27-4.27-5.26s-1.39-2.77-2.41-4.77
		c-1.03-2-3.41-3.82-5.99-3.82c-2.58,0-5.63,2.69-5.63,6.04c0,3.35,3.3,5.6,5.43,5.6c3.71,0,6.12-2.6,6.12-5.07l-0.03-2.94"/>
	<rect x="253.85" y="60.35" fill="none" stroke="#000000" stroke-width="0.2" stroke-miterlimit="10" width="6.81" height="5.43"/>
	<path fill="none" stroke="#000000" stroke-width="0.2" stroke-miterlimit="10" d="M253.85,61.68h-13.81c0,0-2.6-6.37-2.99-7.81
		c-0.39-1.44-0.83-3.61-0.61-5.68s1.36-3.56,1.36-3.56"/>
	<line fill="none" stroke="#000000" stroke-width="0.2" stroke-miterlimit="10" x1="253.85" y1="64.39" x2="241.72" y2="64.39"/>
	<path fill="none" stroke="#000000" stroke-width="0.2" stroke-miterlimit="10" d="M236.82,64.5c0,0-5.11,0-7.57,0
		s-3.58-0.48-3.58-0.48"/>
	<path fill="none" stroke="#000000" stroke-width="0.2" stroke-miterlimit="10" d="M222.03,62.89c0,0-5.8-2.6-8.57-6.71
		c-3.19-4.75-2.55-9.61-2.55-9.61"/>
	<path fill="none" stroke="#000000" stroke-width="0.2" stroke-miterlimit="10" d="M235.55,62.06c0,0-4.15,0-5.35,0
		c-1.21,0-2.97-0.38-2.97-0.38"/>
	<path fill="none" stroke="#000000" stroke-width="0.2" stroke-miterlimit="10" d="M223.17,60.35c0,0-5.19-2.16-7.49-5.75
		c-3.78-5.9-1.52-10.33-1.52-10.33"/>
	<path fill="none" stroke="#000000" stroke-width="0.2" stroke-miterlimit="10" d="M214.5,39.02c0,0,2-1.51,5.43-1.51
		s5.15,1.51,5.15,1.51"/>
	<path fill="none" stroke="#000000" stroke-width="0.2" stroke-miterlimit="10" d="M228.69,44.14c0,0,0.72,3.27,0.28,5.84
		c-0.89,5.17-4.37,8.2-5.62,9.08s-1.32,0.15-0.62-0.78c0.42-0.56,2.91-3.15,3.75-7.03c0.83-3.88-0.33-7.12-0.33-7.12"/>
	<path fill="none" stroke="#000000" stroke-width="0.2" stroke-miterlimit="10" d="M234.19,56.86c0,0-0.13-0.33-0.68-1.72
		c-0.55-1.39-1.27-3.6-0.94-6.65c0.33-3.05,1.05-4.35,1.05-4.35"/>
	<path fill="none" stroke="#000000" stroke-width="0.2" stroke-miterlimit="10" d="M237.06,39.21c0,0,1.83-2.03,6.98-2.03
		c4.1,0,8.51,4.38,8.51,8.51c0,5.15-1.45,5.81-1.45,5.81"/>
	<path fill="none" stroke="#000000" stroke-width="0.2" stroke-miterlimit="10" d="M241.99,41.09c0,0,3.32-0.74,5.41,1.82
		c2.49,3.05,0.89,5.92,0.89,5.92"/>
	<path fill="none" stroke="#000000" stroke-width="0.2" stroke-miterlimit="10" d="M244.43,52.22c0,0-2.9,0.38-4.65-0.84
		c-2.6-1.81-2.96-4.39-2.96-4.39"/>
	<path fill="none" stroke="#000000" stroke-width="0.2" stroke-miterlimit="10" d="M247.41,55.14c0,0-1.09,0.89-5.08,0.89
		c-2.99,0-5.26-2.16-5.26-2.16"/>
	<line fill="none" stroke="#000000" stroke-width="0.2" stroke-miterlimit="10" x1="246.71" y1="71.48" x2="244.43" y2="74.59"/>
	<line fill="none" stroke="#000000" stroke-width="0.2" stroke-miterlimit="10" x1="243.14" y1="67.32" x2="239.42" y2="68.88"/>
	<line fill="none" stroke="#000000" stroke-width="0.2" stroke-miterlimit="10" x1="241.28" y1="63.65" x2="237.75" y2="65.46"/>
	<line fill="none" stroke="#000000" stroke-width="0.2" stroke-miterlimit="10" x1="236.39" y1="57.92" x2="234.33" y2="61.08"/>
	<line fill="none" stroke="#000000" stroke-width="0.2" stroke-miterlimit="10" x1="231.01" y1="56.36" x2="231.01" y2="60.01"/>
	<line fill="none" stroke="#000000" stroke-width="0.2" stroke-miterlimit="10" x1="225.25" y1="58.07" x2="227.72" y2="61.25"/>
	<line fill="none" stroke="#000000" stroke-width="0.2" stroke-miterlimit="10" x1="221.66" y1="64.56" x2="225.37" y2="65.05"/>
	<line fill="none" stroke="#000000" stroke-width="0.2" stroke-miterlimit="10" x1="223.43" y1="71.57" x2="226.49" y2="69.36"/>
	<line fill="none" stroke="#000000" stroke-width="0.2" stroke-miterlimit="10" x1="229.79" y1="75.35" x2="230.26" y2="71.62"/>
	<line fill="none" stroke="#000000" stroke-width="0.2" stroke-miterlimit="10" x1="236.94" y1="73.38" x2="234.64" y2="70.46"/>
	<line fill="none" stroke="#000000" stroke-width="0.2" stroke-miterlimit="10" x1="251.55" y1="73.11" x2="251.55" y2="77.35"/>
	<line fill="none" stroke="#000000" stroke-width="0.2" stroke-miterlimit="10" x1="233.51" y1="55.14" x2="237.06" y2="53.81"/>
	<line fill="none" stroke="#000000" stroke-width="0.2" stroke-miterlimit="10" x1="232.69" y1="47.58" x2="236.45" y2="48.18"/>
	<line fill="none" stroke="#000000" stroke-width="0.2" stroke-miterlimit="10" x1="242.08" y1="37.29" x2="242.54" y2="40.99"/>
	<line fill="none" stroke="#000000" stroke-width="0.2" stroke-miterlimit="10" x1="247.01" y1="37.88" x2="245.49" y2="41.47"/>
	<line fill="none" stroke="#000000" stroke-width="0.2" stroke-miterlimit="10" x1="248.41" y1="44.62" x2="252.03" y2="43.14"/>
	<line fill="none" stroke="#000000" stroke-width="0.2" stroke-miterlimit="10" x1="251.77" y1="50.63" x2="248.54" y2="49.26"/>
	<line fill="none" stroke="#000000" stroke-width="0.2" stroke-miterlimit="10" x1="239.09" y1="55.15" x2="240.57" y2="51.8"/>
	<line fill="none" stroke="#000000" stroke-width="0.2" stroke-miterlimit="10" x1="246.38" y1="55.58" x2="245.47" y2="53.48"/>
	<line fill="none" stroke="#000000" stroke-width="0.2" stroke-miterlimit="10" x1="251.1" y1="51.49" x2="248.54" y2="55.84"/>
	<line fill="none" stroke="#000000" stroke-width="0.2" stroke-miterlimit="10" x1="247.82" y1="48.18" x2="243.56" y2="50.63"/>
	<line fill="none" stroke="#000000" stroke-width="0.2" stroke-miterlimit="10" x1="245.92" y1="45.13" x2="241.9" y2="48.05"/>
	<line fill="none" stroke="#000000" stroke-width="0.2" stroke-miterlimit="10" x1="243.66" y1="42.44" x2="240.32" y2="46.21"/>
	<line fill="none" stroke="#000000" stroke-width="0.2" stroke-miterlimit="10" x1="240.62" y1="40.31" x2="238.49" y2="44.92"/>
	<line fill="none" stroke="#000000" stroke-width="0.2" stroke-miterlimit="10" x1="237.06" y1="39.21" x2="236.16" y2="44.22"/>
	<line fill="none" stroke="#000000" stroke-width="0.2" stroke-miterlimit="10" x1="235.28" y1="39.02" x2="235.28" y2="44.14"/>
	<line fill="none" stroke="#000000" stroke-width="0.2" stroke-miterlimit="10" x1="234.44" y1="39.02" x2="234.44" y2="44.14"/>
	<line fill="none" stroke="#000000" stroke-width="0.2" stroke-miterlimit="10" x1="230.62" y1="39.02" x2="230.62" y2="44.14"/>
	<line fill="none" stroke="#000000" stroke-width="0.2" stroke-miterlimit="10" x1="224.91" y1="39.02" x2="224.91" y2="44.14"/>
	<line fill="none" stroke="#000000" stroke-width="0.2" stroke-miterlimit="10" x1="219.15" y1="39.02" x2="219.15" y2="44.14"/>
	<line fill="none" stroke="#000000" stroke-width="0.2" stroke-miterlimit="10" x1="215.28" y1="39.02" x2="215.28" y2="44.14"/>
	<line fill="none" stroke="#000000" stroke-width="0.2" stroke-miterlimit="10" x1="230.62" y1="41.47" x2="219.15" y2="41.47"/>
	<line fill="none" stroke="#000000" stroke-width="0.2" stroke-miterlimit="10" x1="230.62" y1="40.03" x2="234.44" y2="40.03"/>
	<line fill="none" stroke="#000000" stroke-width="0.2" stroke-miterlimit="10" x1="230.62" y1="43.14" x2="234.44" y2="43.14"/>
	<line fill="none" stroke="#000000" stroke-width="0.2" stroke-miterlimit="10" x1="215.3" y1="40.03" x2="219.12" y2="40.03"/>
	<line fill="none" stroke="#000000" stroke-width="0.2" stroke-miterlimit="10" x1="215.3" y1="43.14" x2="219.12" y2="43.14"/>
	<line fill="none" stroke="#000000" stroke-width="0.2" stroke-miterlimit="10" x1="208.19" y1="42.07" x2="211.78" y2="45.62"/>
	<line fill="none" stroke="#000000" stroke-width="0.2" stroke-miterlimit="10" x1="210.86" y1="47.77" x2="213.49" y2="47.77"/>
	<line fill="none" stroke="#000000" stroke-width="0.2" stroke-miterlimit="10" x1="211.78" y1="52.68" x2="214.22" y2="51.69"/>
	<line fill="none" stroke="#000000" stroke-width="0.2" stroke-miterlimit="10" x1="213.75" y1="56.59" x2="215.91" y2="54.94"/>
	<line fill="none" stroke="#000000" stroke-width="0.2" stroke-miterlimit="10" x1="216.81" y1="59.66" x2="218.52" y2="57.59"/>
	<line fill="none" stroke="#000000" stroke-width="0.2" stroke-miterlimit="10" x1="224.05" y1="56.59" x2="225.15" y2="57.48"/>
	<line fill="none" stroke="#000000" stroke-width="0.2" stroke-miterlimit="10" x1="225.87" y1="53.24" x2="227.61" y2="54.02"/>
	<line fill="none" stroke="#000000" stroke-width="0.2" stroke-miterlimit="10" x1="226.74" y1="49.63" x2="228.97" y2="49.98"/>
	<line fill="none" stroke="#000000" stroke-width="0.2" stroke-miterlimit="10" x1="226.74" y1="46.99" x2="229.05" y2="46.71"/>
	<line fill="none" stroke="#000000" stroke-width="0.2" stroke-miterlimit="10" x1="204.55" y1="48.42" x2="209.43" y2="49.69"/>
	<line fill="none" stroke="#000000" stroke-width="0.2" stroke-miterlimit="10" x1="203.88" y1="50.69" x2="208.85" y2="51.96"/>
	<line fill="none" stroke="#000000" stroke-width="0.2" stroke-miterlimit="10" x1="203.33" y1="52.68" x2="208.35" y2="53.92"/>
	<line fill="none" stroke="#000000" stroke-width="0.2" stroke-miterlimit="10" x1="202.81" y1="54.57" x2="207.87" y2="55.91"/>
	<line fill="none" stroke="#000000" stroke-width="0.2" stroke-miterlimit="10" x1="202.31" y1="56.46" x2="207.3" y2="57.87"/>
	<line fill="none" stroke="#000000" stroke-width="0.2" stroke-miterlimit="10" x1="201.76" y1="58.5" x2="206.78" y2="59.82"/>
	<line fill="none" stroke="#000000" stroke-width="0.2" stroke-miterlimit="10" x1="201.13" y1="60.79" x2="205.97" y2="62.4"/>
	<line fill="none" stroke="#000000" stroke-width="0.2" stroke-miterlimit="10" x1="200.11" y1="62.77" x2="204.27" y2="65.63"/>
	<line fill="none" stroke="#000000" stroke-width="0.2" stroke-miterlimit="10" x1="198.6" y1="64.33" x2="201.76" y2="68.32"/>
	<line fill="none" stroke="#000000" stroke-width="0.2" stroke-miterlimit="10" x1="197.04" y1="65.18" x2="198.6" y2="70.02"/>
	<line fill="none" stroke="#000000" stroke-width="0.2" stroke-miterlimit="10" x1="195.4" y1="65.46" x2="195.39" y2="70.5"/>
	<line fill="none" stroke="#000000" stroke-width="0.2" stroke-miterlimit="10" x1="191.84" y1="63.93" x2="188.24" y2="67.51"/>
	<line fill="none" stroke="#000000" stroke-width="0.2" stroke-miterlimit="10" x1="190.41" y1="60.35" x2="185.22" y2="60.35"/>
	<line fill="none" stroke="#000000" stroke-width="0.2" stroke-miterlimit="10" x1="191.95" y1="56.69" x2="188.34" y2="53.07"/>
	<line fill="none" stroke="#000000" stroke-width="0.2" stroke-miterlimit="10" x1="195.97" y1="54.39" x2="194.65" y2="49.5"/>
	<line fill="none" stroke="#000000" stroke-width="0.2" stroke-miterlimit="10" x1="201.76" y1="52.82" x2="200.11" y2="47.77"/>
	<line fill="none" stroke="#000000" stroke-width="0.2" stroke-miterlimit="10" x1="202.13" y1="46.85" x2="204.14" y2="49.81"/>
	<line fill="none" stroke="#000000" stroke-width="0.2" stroke-miterlimit="10" x1="204.01" y1="45.37" x2="205.28" y2="46.47"/>
	<line fill="none" stroke="#000000" stroke-width="0.2" stroke-miterlimit="10" x1="205.12" y1="43.02" x2="207.19" y2="43.22"/>
	<line fill="none" stroke="#000000" stroke-width="0.2" stroke-miterlimit="10" x1="205.04" y1="40.59" x2="209.43" y2="39.25"/>
	<line fill="none" stroke="#000000" stroke-width="0.2" stroke-miterlimit="10" x1="204.34" y1="38.8" x2="207.64" y2="36.27"/>
	<line fill="none" stroke="#000000" stroke-width="0.2" stroke-miterlimit="10" x1="203.42" y1="37.39" x2="205.51" y2="34.81"/>
	<line fill="none" stroke="#000000" stroke-width="0.2" stroke-miterlimit="10" x1="228.26" y1="61.87" x2="227.72" y2="64.39"/>
	<line fill="none" stroke="#000000" stroke-width="0.2" stroke-miterlimit="10" x1="231.63" y1="62.06" x2="231.63" y2="64.5"/>
	<line fill="none" stroke="#000000" stroke-width="0.2" stroke-miterlimit="10" x1="233.79" y1="62.06" x2="233.79" y2="64.5"/>
	<line fill="none" stroke="#000000" stroke-width="0.2" stroke-miterlimit="10" x1="235.95" y1="62.47" x2="235.95" y2="64.5"/>
	<line fill="none" stroke="#000000" stroke-width="0.2" stroke-miterlimit="10" x1="252.76" y1="73.11" x2="252.76" y2="77.35"/>
	<path fill="none" stroke="#000000" stroke-width="0.2" stroke-miterlimit="10" d="M257.26,73.45c0,0-0.58,0.61-0.58,1.68
		c0,1.07,0.58,1.88,0.58,1.88"/>
	<path fill="none" stroke="#000000" stroke-width="0.2" stroke-miterlimit="10" d="M278.42,51.37h0.93v36.06c0,1.6-1.3,2.9-2.9,2.9
		h-13.59c-1.6,0-2.9-1.3-2.9-2.9V77.01"/>
	<polyline fill="none" stroke="#000000" stroke-width="0.2" stroke-miterlimit="10" points="260.66,73.45 260.66,70.07 
		263.97,70.07 	"/>
	<line fill="none" stroke="#000000" stroke-width="0.2" stroke-miterlimit="10" x1="279.46" y1="83.35" x2="275.62" y2="83.35"/>
	<line fill="none" stroke="#000000" stroke-width="0.2" stroke-miterlimit="10" x1="279.46" y1="82.56" x2="275.62" y2="82.56"/>
	<line fill="none" stroke="#000000" stroke-width="0.2" stroke-miterlimit="10" x1="279.46" y1="81.77" x2="275.62" y2="81.77"/>
	<line fill="none" stroke="#000000" stroke-width="0.2" stroke-miterlimit="10" x1="279.46" y1="80.98" x2="275.62" y2="80.98"/>
	<line fill="none" stroke="#000000" stroke-width="0.2" stroke-miterlimit="10" x1="279.46" y1="80.19" x2="275.62" y2="80.19"/>
	<line fill="none" stroke="#000000" stroke-width="0.2" stroke-miterlimit="10" x1="279.46" y1="79.4" x2="275.62" y2="79.4"/>
	<polyline fill="none" stroke="#000000" stroke-width="0.4" stroke-miterlimit="10" points="275.71,83.46 275.71,79.43 
		263.41,79.45 260.66,77.01 	"/>
	<line fill="none" stroke="#000000" stroke-width="0.2" stroke-miterlimit="10" x1="263.83" y1="83.57" x2="260" y2="83.57"/>
	<line fill="none" stroke="#000000" stroke-width="0.2" stroke-miterlimit="10" x1="263.83" y1="82.89" x2="260" y2="82.89"/>
	<line fill="none" stroke="#000000" stroke-width="0.2" stroke-miterlimit="10" x1="263.83" y1="82.22" x2="260" y2="82.22"/>
	<line fill="none" stroke="#000000" stroke-width="0.2" stroke-miterlimit="10" x1="263.83" y1="81.54" x2="260" y2="81.54"/>
	<line fill="none" stroke="#000000" stroke-width="0.2" stroke-miterlimit="10" x1="263.83" y1="80.86" x2="260" y2="80.86"/>
	<line fill="none" stroke="#000000" stroke-width="0.2" stroke-miterlimit="10" x1="263.83" y1="80.19" x2="260" y2="80.19"/>
	<line fill="none" stroke="#000000" stroke-width="0.2" stroke-miterlimit="10" x1="263.83" y1="79.51" x2="260" y2="79.51"/>
	<line fill="none" stroke="#000000" stroke-width="0.2" stroke-miterlimit="10" x1="262.73" y1="78.83" x2="260" y2="78.83"/>
	<path fill="none" stroke="#000000" stroke-width="0.2" stroke-miterlimit="10" d="M259.95,78.55"/>
	<line fill="none" stroke="#000000" stroke-width="0.4" stroke-miterlimit="10" x1="263.83" y1="85.54" x2="263.83" y2="79.47"/>
	<path fill="none" stroke="#000000" stroke-width="0.2" stroke-miterlimit="10" d="M722.52,63.56c0,0,6.11-10.08,3.13-20.82
		S710.29,25.3,710.29,25.3l-84.89-0.6"/>
	<rect x="643.93" y="122.36" fill="none" stroke="#000000" stroke-width="0.2" stroke-miterlimit="10" width="8.54" height="1.14"/>
	<path fill="none" stroke="#000000" stroke-width="0.1" stroke-miterlimit="10" d="M660.03,102.14c0,0-0.52,3.55,6.48,2.68
		c2.59-0.34,4.2-0.23,4.2-0.23s2,0.45,4.23,0.38c2.23-0.07,3.32-0.56,4.5-0.44c1.19,0.11,7.42,0.71,7.42,0.71v-1.8"/>
	<line fill="none" stroke="#000000" stroke-width="0.1" stroke-miterlimit="10" x1="689.99" y1="103.5" x2="693.71" y2="103.5"/>
	<circle fill="none" stroke="#000000" stroke-width="0.1" stroke-miterlimit="10" cx="688.43" cy="103.44" r="1.56"/>
	<path fill="none" stroke="#000000" stroke-width="0.1" stroke-miterlimit="10" d="M680.31,78.78c0,0,4.72-1.11,10.51,2.49
		c5.79,3.6,7.52,6.39,7.82,10.79"/>
	<polyline fill="none" stroke="#000000" stroke-width="0.1" stroke-miterlimit="10" points="667.92,75.72 664.63,74 667.22,68.23 
		672.71,66.63 673.17,71.89 	"/>
	<polyline fill="none" stroke="#000000" stroke-width="0.2" stroke-miterlimit="10" points="663.93,69.69 663.93,74 664.63,74 
		664.63,69.77 	"/>
	<path fill="none" stroke="#000000" stroke-width="0.1" stroke-miterlimit="10" d="M686.46,70.23c0,0-0.64,5.5,1.46,8.77"/>
	<path fill="none" stroke="#000000" stroke-width="0.1" stroke-miterlimit="10" d="M687.38,70.35c0,0-0.34,5.81,3.72,9.97"/>
	<path fill="none" stroke="#000000" stroke-width="0.1" stroke-miterlimit="10" d="M694.08,66.57v4.52c0,0-5.37-1.03-9.83-0.8v-3.75
		"/>
	<polyline fill="none" stroke="#000000" stroke-width="0.1" stroke-miterlimit="10" points="628.08,24.72 628.08,37.76 
		619.08,37.76 619.08,32.45 612.61,32.45 	"/>
	<rect x="614.82" y="32.45" fill="none" stroke="#000000" stroke-width="0.1" stroke-miterlimit="10" width="0.7" height="10.98"/>
	<rect x="618.35" y="32.45" fill="none" stroke="#000000" stroke-width="0.1" stroke-miterlimit="10" width="0.7" height="10.98"/>
	<line fill="none" stroke="#000000" stroke-width="0.1" stroke-miterlimit="10" x1="615.55" y1="37.88" x2="618.32" y2="37.88"/>
	<line fill="none" stroke="#000000" stroke-width="0.1" stroke-miterlimit="10" x1="615.55" y1="38.56" x2="618.32" y2="38.56"/>
	<line fill="none" stroke="#000000" stroke-width="0.1" stroke-miterlimit="10" x1="615.55" y1="39.25" x2="618.32" y2="39.25"/>
	<line fill="none" stroke="#000000" stroke-width="0.1" stroke-miterlimit="10" x1="615.55" y1="39.94" x2="618.32" y2="39.94"/>
	<line fill="none" stroke="#000000" stroke-width="0.1" stroke-miterlimit="10" x1="615.55" y1="40.62" x2="618.32" y2="40.62"/>
	<line fill="none" stroke="#000000" stroke-width="0.1" stroke-miterlimit="10" x1="615.55" y1="41.31" x2="618.32" y2="41.31"/>
	<line fill="none" stroke="#000000" stroke-width="0.1" stroke-miterlimit="10" x1="615.55" y1="41.99" x2="618.32" y2="41.99"/>
	<line fill="none" stroke="#000000" stroke-width="0.1" stroke-miterlimit="10" x1="615.55" y1="42.68" x2="618.32" y2="42.68"/>
	<line fill="none" stroke="#000000" stroke-width="0.1" stroke-miterlimit="10" x1="615.55" y1="43.37" x2="618.32" y2="43.37"/>
	<polyline fill="none" stroke="#000000" stroke-width="0.1" stroke-miterlimit="10" points="628.16,145.92 628.16,133.42 
		619.16,133.42 619.16,138.74 612.69,138.74 	"/>
	<rect x="614.9" y="127.76" fill="none" stroke="#000000" stroke-width="0.1" stroke-miterlimit="10" width="0.7" height="10.98"/>
	<rect x="618.43" y="127.76" fill="none" stroke="#000000" stroke-width="0.1" stroke-miterlimit="10" width="0.7" height="10.98"/>
	<line fill="none" stroke="#000000" stroke-width="0.1" stroke-miterlimit="10" x1="615.63" y1="133.31" x2="618.4" y2="133.31"/>
	<line fill="none" stroke="#000000" stroke-width="0.1" stroke-miterlimit="10" x1="615.63" y1="132.62" x2="618.4" y2="132.62"/>
	<line fill="none" stroke="#000000" stroke-width="0.1" stroke-miterlimit="10" x1="615.63" y1="131.94" x2="618.4" y2="131.94"/>
	<line fill="none" stroke="#000000" stroke-width="0.1" stroke-miterlimit="10" x1="615.63" y1="131.25" x2="618.4" y2="131.25"/>
	<line fill="none" stroke="#000000" stroke-width="0.1" stroke-miterlimit="10" x1="615.63" y1="130.56" x2="618.4" y2="130.56"/>
	<line fill="none" stroke="#000000" stroke-width="0.1" stroke-miterlimit="10" x1="615.63" y1="129.88" x2="618.4" y2="129.88"/>
	<line fill="none" stroke="#000000" stroke-width="0.1" stroke-miterlimit="10" x1="615.63" y1="129.19" x2="618.4" y2="129.19"/>
	<line fill="none" stroke="#000000" stroke-width="0.1" stroke-miterlimit="10" x1="615.63" y1="128.51" x2="618.4" y2="128.51"/>
	<path fill="none" stroke="#000000" stroke-width="0.2" stroke-miterlimit="10" d="M625.72,145.76l88.45-0.02l10.73-13.72
		l-0.86-9.43c9.5-16.73,7.38-38.36,7.38-38.36"/>
	<circle fill="none" stroke="#000000" stroke-width="0.1" stroke-miterlimit="10" cx="677.18" cy="139.16" r="4.12"/>
	<path fill="none" stroke="#000000" stroke-width="0.1" stroke-miterlimit="10" d="M679.32,139.01c0,1.63-0.57,3.09-2.19,3.09
		c-1.63,0-2.09-1.29-2.09-2.92s0.47-2.97,2.09-2.97C678.75,136.21,679.32,137.39,679.32,139.01z"/>
	<line fill="none" stroke="#000000" stroke-width="0.1" stroke-miterlimit="10" x1="673.93" y1="136.57" x2="675.3" y2="137.66"/>
	<line fill="none" stroke="#000000" stroke-width="0.1" stroke-miterlimit="10" x1="679.16" y1="137.8" x2="680.39" y2="136.58"/>
	<polyline fill="none" stroke="#000000" stroke-width="0.1" stroke-miterlimit="10" points="673.71,141.4 674.03,142.8 
		674.36,142.77 674.14,141.89 	"/>
	<polyline fill="none" stroke="#000000" stroke-width="0.1" stroke-miterlimit="10" points="680.69,141.4 680.37,142.8 
		680.04,142.77 680.26,141.89 	"/>
	<path fill="none" stroke="#000000" stroke-width="0.1" stroke-miterlimit="10" d="M675.3,137.66c0,0,0.49-0.49,1.89-0.49
		c1.4,0,1.97,0.63,1.97,0.63"/>
	<line fill="none" stroke="#000000" stroke-width="0.1" stroke-miterlimit="10" x1="677.15" y1="136.25" x2="677.15" y2="137.17"/>
	<circle fill="none" stroke="#000000" stroke-width="0.1" stroke-miterlimit="10" cx="687.63" cy="139.16" r="4.12"/>
	<path fill="none" stroke="#000000" stroke-width="0.1" stroke-miterlimit="10" d="M689.78,139.01c0,1.63-0.57,3.09-2.19,3.09
		s-2.09-1.29-2.09-2.92s0.47-2.97,2.09-2.97S689.78,137.39,689.78,139.01z"/>
	<line fill="none" stroke="#000000" stroke-width="0.1" stroke-miterlimit="10" x1="684.38" y1="136.57" x2="685.76" y2="137.66"/>
	<line fill="none" stroke="#000000" stroke-width="0.1" stroke-miterlimit="10" x1="689.61" y1="137.8" x2="690.85" y2="136.58"/>
	<polyline fill="none" stroke="#000000" stroke-width="0.1" stroke-miterlimit="10" points="684.17,141.4 684.49,142.8 
		684.82,142.77 684.6,141.89 	"/>
	<polyline fill="none" stroke="#000000" stroke-width="0.1" stroke-miterlimit="10" points="691.15,141.4 690.83,142.8 
		690.5,142.77 690.72,141.89 	"/>
	<path fill="none" stroke="#000000" stroke-width="0.1" stroke-miterlimit="10" d="M685.76,137.66c0,0,0.49-0.49,1.89-0.49
		c1.4,0,1.97,0.63,1.97,0.63"/>
	<line fill="none" stroke="#000000" stroke-width="0.1" stroke-miterlimit="10" x1="687.61" y1="136.25" x2="687.61" y2="137.17"/>
	<circle fill="none" stroke="#000000" stroke-width="0.1" stroke-miterlimit="10" cx="698.09" cy="139.16" r="4.12"/>
	<path fill="none" stroke="#000000" stroke-width="0.1" stroke-miterlimit="10" d="M700.23,139.01c0,1.63-0.57,3.09-2.19,3.09
		c-1.63,0-2.09-1.29-2.09-2.92s0.47-2.97,2.09-2.97C699.67,136.21,700.23,137.39,700.23,139.01z"/>
	<line fill="none" stroke="#000000" stroke-width="0.1" stroke-miterlimit="10" x1="694.84" y1="136.57" x2="696.22" y2="137.66"/>
	<line fill="none" stroke="#000000" stroke-width="0.1" stroke-miterlimit="10" x1="700.07" y1="137.8" x2="701.31" y2="136.58"/>
	<polyline fill="none" stroke="#000000" stroke-width="0.1" stroke-miterlimit="10" points="694.63,141.4 694.95,142.8 
		695.27,142.77 695.06,141.89 	"/>
	<polyline fill="none" stroke="#000000" stroke-width="0.1" stroke-miterlimit="10" points="701.61,141.4 701.28,142.8 
		700.96,142.77 701.18,141.89 	"/>
	<path fill="none" stroke="#000000" stroke-width="0.1" stroke-miterlimit="10" d="M696.22,137.66c0,0,0.49-0.49,1.89-0.49
		c1.4,0,1.97,0.63,1.97,0.63"/>
	<line fill="none" stroke="#000000" stroke-width="0.1" stroke-miterlimit="10" x1="698.07" y1="136.25" x2="698.07" y2="137.17"/>
	<circle fill="none" stroke="#000000" stroke-width="0.1" stroke-miterlimit="10" cx="705.49" cy="32.1" r="4.12"/>
	<path fill="none" stroke="#000000" stroke-width="0.1" stroke-miterlimit="10" d="M703.34,32.25c0-1.63,0.57-3.09,2.19-3.09
		s2.09,1.29,2.09,2.92c0,1.63-0.47,2.97-2.09,2.97S703.34,33.87,703.34,32.25z"/>
	<line fill="none" stroke="#000000" stroke-width="0.1" stroke-miterlimit="10" x1="708.74" y1="34.69" x2="707.36" y2="33.61"/>
	<line fill="none" stroke="#000000" stroke-width="0.1" stroke-miterlimit="10" x1="703.51" y1="33.46" x2="702.27" y2="34.68"/>
	<polyline fill="none" stroke="#000000" stroke-width="0.1" stroke-miterlimit="10" points="708.95,29.86 708.63,28.46 
		708.31,28.49 708.52,29.38 	"/>
	<polyline fill="none" stroke="#000000" stroke-width="0.1" stroke-miterlimit="10" points="701.97,29.86 702.3,28.46 702.62,28.49 
		702.4,29.38 	"/>
	<path fill="none" stroke="#000000" stroke-width="0.1" stroke-miterlimit="10" d="M707.36,33.61c0,0-0.49,0.49-1.89,0.49
		c-1.4,0-1.97-0.63-1.97-0.63"/>
	<line fill="none" stroke="#000000" stroke-width="0.1" stroke-miterlimit="10" x1="705.51" y1="35.01" x2="705.51" y2="34.09"/>
	<circle fill="none" stroke="#000000" stroke-width="0.1" stroke-miterlimit="10" cx="695.03" cy="32.1" r="4.12"/>
	<path fill="none" stroke="#000000" stroke-width="0.1" stroke-miterlimit="10" d="M692.89,32.25c0-1.63,0.57-3.09,2.19-3.09
		c1.63,0,2.09,1.29,2.09,2.92c0,1.63-0.47,2.97-2.09,2.97C693.45,35.05,692.89,33.87,692.89,32.25z"/>
	<line fill="none" stroke="#000000" stroke-width="0.1" stroke-miterlimit="10" x1="698.28" y1="34.69" x2="696.91" y2="33.61"/>
	<line fill="none" stroke="#000000" stroke-width="0.1" stroke-miterlimit="10" x1="693.05" y1="33.46" x2="691.81" y2="34.68"/>
	<polyline fill="none" stroke="#000000" stroke-width="0.1" stroke-miterlimit="10" points="698.5,29.86 698.17,28.46 697.85,28.49 
		698.06,29.38 	"/>
	<polyline fill="none" stroke="#000000" stroke-width="0.1" stroke-miterlimit="10" points="691.52,29.86 691.84,28.46 
		692.16,28.49 691.95,29.38 	"/>
	<path fill="none" stroke="#000000" stroke-width="0.1" stroke-miterlimit="10" d="M696.91,33.61c0,0-0.49,0.49-1.89,0.49
		c-1.4,0-1.97-0.63-1.97-0.63"/>
	<line fill="none" stroke="#000000" stroke-width="0.1" stroke-miterlimit="10" x1="695.05" y1="35.01" x2="695.05" y2="34.09"/>
	<line fill="none" stroke="#000000" stroke-width="0.1" stroke-miterlimit="10" x1="705.84" y1="52.85" x2="706.84" y2="59.74"/>
	<line fill="none" stroke="#000000" stroke-width="0.1" stroke-miterlimit="10" x1="701.86" y1="57.11" x2="710.78" y2="55.54"/>
	<path fill="none" stroke="#000000" stroke-width="0.1" stroke-miterlimit="10" d="M707.91,59.86c0,0,0.11,1.91,1.29,2.77
		c1.19,0.86,2.7,1.23,2.7,1.23"/>
	<path fill="none" stroke="#000000" stroke-width="0.1" stroke-miterlimit="10" d="M700.85,67.77c0,0,1.65,0.01,2.7,1.2
		c1.05,1.19,1.29,2.64,1.29,2.64"/>
	<path fill="none" stroke="#000000" stroke-width="0.1" stroke-miterlimit="10" d="M701.36,65.66l2.02,0.8c0,0,1.28-2.58,3.4-3.77
		l-0.84-2.14"/>
	<path fill="none" stroke="#000000" stroke-width="0.1" stroke-miterlimit="10" d="M711.36,65.95l-2.05-0.8c0,0-1.2,2.64-3.34,3.83
		l0.81,2.03"/>
	
		<ellipse transform="matrix(0.1877 -0.9822 0.9822 0.1877 486.1719 791.8354)" fill="none" stroke="#000000" stroke-width="0.1" stroke-miterlimit="10" cx="721.84" cy="101.97" rx="3.98" ry="1.95"/>
	
		<ellipse transform="matrix(0.1882 -0.9821 0.9821 0.1882 485.8995 791.6488)" fill="none" stroke="#000000" stroke-width="0.1" stroke-miterlimit="10" cx="721.85" cy="101.89" rx="6.78" ry="4.37"/>
	<path fill="none" stroke="#000000" stroke-width="0.1" stroke-miterlimit="10" d="M720.32,96.04c0,0,1.02,1.62,2.47,1.79
		c1.45,0.18,2.95-0.23,2.95-0.23"/>
	<path fill="none" stroke="#000000" stroke-width="0.1" stroke-miterlimit="10" d="M717.98,106.34c0,0,1.45-0.78,2.94-0.25
		c1.49,0.53,2.41,1.68,2.41,1.68"/>
	<path fill="none" stroke="#000000" stroke-width="0.1" stroke-miterlimit="10" d="M717.4,104.25l2.16-0.28c0,0-0.13-2.87,1.14-4.92
		l-1.77-1.46"/>
	<path fill="none" stroke="#000000" stroke-width="0.1" stroke-miterlimit="10" d="M726.29,99.68l-2.18,0.29
		c0,0,0.23,2.88-1.07,4.95l1.69,1.38"/>
	<line fill="none" stroke="#000000" stroke-width="0.1" stroke-miterlimit="10" x1="704.19" y1="61.76" x2="705.43" y2="63.72"/>
	<line fill="none" stroke="#000000" stroke-width="0.1" stroke-miterlimit="10" x1="702.46" y1="63.72" x2="704.27" y2="64.97"/>
	<line fill="none" stroke="#000000" stroke-width="0.1" stroke-miterlimit="10" x1="707.27" y1="68" x2="708.56" y2="69.76"/>
	<line fill="none" stroke="#000000" stroke-width="0.1" stroke-miterlimit="10" x1="708.45" y1="66.57" x2="710.31" y2="67.81"/>
	<line fill="none" stroke="#000000" stroke-width="0.1" stroke-miterlimit="10" x1="718.09" y1="99.21" x2="720.06" y2="100.45"/>
	<line fill="none" stroke="#000000" stroke-width="0.1" stroke-miterlimit="10" x1="717.4" y1="102.13" x2="719.61" y2="102.24"/>
	<line fill="none" stroke="#000000" stroke-width="0.1" stroke-miterlimit="10" x1="724.06" y1="101.7" x2="726.4" y2="101.7"/>
	<line fill="none" stroke="#000000" stroke-width="0.1" stroke-miterlimit="10" x1="723.76" y1="103.44" x2="725.67" y2="104.39"/>
	<path fill="none" stroke="#000000" stroke-width="0.2" stroke-miterlimit="10" d="M703.65,77.38l0.97-0.74
		c0,0,3.58,3.79,5.66,10.68c2.08,6.89-0.22,12.52-0.22,12.52s-0.27,1.06-1.29,0.91c-1.02-0.14-0.59-1.6-0.59-1.6
		s1.79-6.03,0.43-11.55S703.65,77.38,703.65,77.38z"/>
	<path fill="none" stroke="#000000" stroke-width="0.2" stroke-miterlimit="10" d="M710.29,108.59l1.08,0.17
		c0,0-0.92,9.8,0.59,15.55s4.42,12.75,4.42,12.75s0.69,1.16-0.22,1.77s-1.62-0.74-1.62-0.74s-3.69-8-4.26-13.72
		C709.71,118.65,709.14,113.54,710.29,108.59z"/>
	<line fill="none" stroke="#000000" stroke-width="0.2" stroke-miterlimit="10" x1="709.58" y1="114.42" x2="711.09" y2="114.48"/>
	<line fill="none" stroke="#000000" stroke-width="0.2" stroke-miterlimit="10" x1="709.93" y1="120.48" x2="711.35" y2="120.36"/>
	<line fill="none" stroke="#000000" stroke-width="0.2" stroke-miterlimit="10" x1="710.69" y1="126.65" x2="712.44" y2="126.25"/>
	<line fill="none" stroke="#000000" stroke-width="0.2" stroke-miterlimit="10" x1="714.54" y1="138.08" x2="716.38" y2="137.06"/>
	<line fill="none" stroke="#000000" stroke-width="0.2" stroke-miterlimit="10" x1="708.18" y1="99.16" x2="710.07" y2="99.84"/>
	<line fill="none" stroke="#000000" stroke-width="0.2" stroke-miterlimit="10" x1="709.05" y1="90.12" x2="710.88" y2="89.84"/>
	<line fill="none" stroke="#000000" stroke-width="0.2" stroke-miterlimit="10" x1="708.07" y1="85.45" x2="709.48" y2="84.81"/>
	<line fill="none" stroke="#000000" stroke-width="0.2" stroke-miterlimit="10" x1="706.11" y1="81.29" x2="707.38" y2="80.55"/>
</g>
<g id="names">
	<g>
		<rect x="680.5" y="71.13" fill="#FFFFFF" width="10.26" height="27.82"/>
		<g>
			<path d="M686.2,73.35l2.93-0.8v-0.02c-0.15,0.01-0.29,0.02-0.44,0.02c-0.14,0.01-0.27,0.01-0.38,0.01h-2.12v-0.43h3.57v0.65
				l-2.81,0.77v0.01l2.81,0.77v0.65h-3.57v-0.45h2.12c0.11,0,0.24,0,0.38,0.01s0.29,0.01,0.43,0.02v-0.02l-2.93-0.81V73.35z"/>
			<path d="M687.19,77.19c-0.21,0-0.39-0.04-0.54-0.12c-0.16-0.08-0.28-0.19-0.37-0.33c-0.09-0.14-0.13-0.31-0.13-0.51
				c0-0.29,0.06-0.54,0.17-0.75h0.51c-0.07,0.11-0.12,0.23-0.16,0.37s-0.06,0.26-0.06,0.38c0,0.17,0.05,0.29,0.15,0.38
				s0.23,0.13,0.38,0.13c0.1,0,0.19-0.02,0.27-0.05c0.07-0.03,0.14-0.09,0.21-0.17c0.06-0.08,0.13-0.19,0.21-0.33
				s0.15-0.26,0.24-0.36c0.09-0.1,0.2-0.18,0.32-0.23s0.28-0.08,0.47-0.08s0.36,0.04,0.5,0.11c0.14,0.08,0.26,0.18,0.33,0.32
				c0.08,0.14,0.12,0.3,0.12,0.48c0,0.14-0.02,0.27-0.05,0.4c-0.04,0.13-0.08,0.24-0.14,0.35l-0.45-0.14c0.06-0.1,0.1-0.2,0.13-0.3
				s0.05-0.2,0.05-0.29c0-0.14-0.04-0.25-0.13-0.33s-0.2-0.12-0.34-0.12c-0.11,0-0.2,0.02-0.27,0.05s-0.14,0.09-0.2,0.17
				s-0.13,0.19-0.21,0.32c-0.12,0.22-0.26,0.39-0.42,0.51C687.64,77.13,687.44,77.19,687.19,77.19z"/>
			<path d="M689.38,78.79c0-0.17-0.06-0.31-0.18-0.43c-0.12-0.11-0.29-0.2-0.5-0.25s-0.45-0.08-0.71-0.08
				c-0.43,0-0.77,0.07-1.02,0.2c-0.24,0.14-0.36,0.33-0.36,0.58c0,0.1,0.01,0.21,0.04,0.3c0.03,0.1,0.06,0.19,0.11,0.28h-0.45
				c-0.05-0.09-0.09-0.19-0.11-0.29c-0.02-0.1-0.04-0.22-0.04-0.35c0-0.39,0.16-0.68,0.49-0.89s0.77-0.31,1.35-0.31
				c0.35,0,0.66,0.05,0.94,0.14c0.28,0.09,0.5,0.23,0.66,0.41s0.24,0.41,0.24,0.68c0,0.26-0.07,0.5-0.2,0.71l-0.42-0.15
				c0.05-0.08,0.1-0.17,0.13-0.26S689.38,78.89,689.38,78.79z"/>
			<path d="M688.14,81.5l1.63,0.56v0.48l-2.19-0.82h-1.38v-0.46h1.37l2.2-0.82v0.49L688.14,81.5z"/>
			<path d="M688.95,83.43c0,0.25-0.08,0.44-0.24,0.56c-0.16,0.12-0.39,0.18-0.7,0.18h-1.82v-0.33l0.37-0.07v-0.01
				c-0.14-0.08-0.25-0.17-0.32-0.27c-0.07-0.1-0.1-0.23-0.1-0.38c0-0.2,0.08-0.35,0.23-0.46c0.16-0.1,0.35-0.16,0.58-0.16
				c0.27,0,0.48,0.08,0.63,0.23c0.14,0.15,0.22,0.38,0.24,0.67l0.01,0.32H688c0.19,0,0.33-0.03,0.42-0.09s0.13-0.15,0.13-0.27
				c0-0.08-0.02-0.17-0.05-0.26c-0.03-0.09-0.08-0.18-0.13-0.28l0.37-0.13c0.07,0.11,0.12,0.22,0.16,0.34S688.95,83.29,688.95,83.43
				z M687.51,83.72l-0.01-0.24c-0.01-0.19-0.06-0.33-0.14-0.41c-0.09-0.08-0.21-0.13-0.38-0.13c-0.15,0-0.26,0.03-0.33,0.08
				c-0.07,0.05-0.11,0.13-0.11,0.23c0,0.14,0.06,0.25,0.18,0.34c0.12,0.08,0.3,0.13,0.52,0.13H687.51z"/>
			<path d="M686.15,85.54c0-0.3,0.11-0.52,0.34-0.68c0.23-0.16,0.58-0.24,1.04-0.24c0.45,0,0.8,0.08,1.04,0.24
				c0.25,0.16,0.37,0.39,0.37,0.7c0,0.11-0.01,0.21-0.04,0.31s-0.06,0.18-0.11,0.25l-0.4-0.13c0.04-0.07,0.07-0.14,0.09-0.21
				c0.02-0.07,0.03-0.13,0.03-0.2c0-0.34-0.33-0.5-0.99-0.5c-0.64,0-0.96,0.17-0.96,0.5c0,0.09,0.01,0.18,0.04,0.26
				c0.03,0.08,0.07,0.16,0.11,0.24h-0.42C686.21,85.92,686.15,85.74,686.15,85.54z"/>
			<path d="M690,86.93h-1.01c-0.08,0-0.16,0-0.24-0.01c-0.08,0-0.15-0.01-0.21-0.03v0.03c0.13,0.06,0.23,0.14,0.3,0.24
				s0.1,0.22,0.1,0.34c0,0.46-0.32,0.69-0.95,0.69h-1.8v-0.44h1.7c0.22,0,0.37-0.03,0.47-0.08c0.1-0.06,0.15-0.14,0.15-0.27
				c0-0.18-0.08-0.31-0.24-0.38c-0.16-0.07-0.4-0.11-0.71-0.11h-1.37v-0.44h3.8V86.93z"/>
			<path d="M686.58,89.49c0,0.04,0.01,0.09,0.02,0.14c0.01,0.05,0.03,0.09,0.04,0.13h-0.39c-0.06-0.11-0.09-0.24-0.09-0.4
				c0-0.18,0.06-0.32,0.18-0.42s0.32-0.15,0.6-0.15h1.56v-0.26h0.25l0.15,0.28l0.59,0.13v0.29h-0.59v0.5h-0.41v-0.5h-1.53
				C686.71,89.24,686.58,89.32,686.58,89.49z"/>
			<path d="M689.38,92.16c0-0.17-0.06-0.31-0.18-0.43c-0.12-0.11-0.29-0.2-0.5-0.25s-0.45-0.08-0.71-0.08
				c-0.43,0-0.77,0.07-1.02,0.2c-0.24,0.14-0.36,0.33-0.36,0.58c0,0.1,0.01,0.21,0.04,0.3c0.03,0.1,0.06,0.19,0.11,0.28h-0.45
				c-0.05-0.09-0.09-0.19-0.11-0.29c-0.02-0.1-0.04-0.22-0.04-0.35c0-0.39,0.16-0.68,0.49-0.89s0.77-0.31,1.35-0.31
				c0.35,0,0.66,0.05,0.94,0.14c0.28,0.09,0.5,0.23,0.66,0.41s0.24,0.41,0.24,0.68c0,0.26-0.07,0.5-0.2,0.71l-0.42-0.15
				c0.05-0.08,0.1-0.17,0.13-0.26S689.38,92.26,689.38,92.16z"/>
			<path d="M686.2,93.68v-0.44h3.8v0.44H686.2z"/>
			<path d="M688.9,95.96h-2.7v-0.36l0.36-0.05v-0.03c-0.14-0.06-0.24-0.14-0.31-0.25c-0.07-0.11-0.1-0.22-0.1-0.35
				c0-0.24,0.08-0.41,0.25-0.52c0.17-0.11,0.41-0.17,0.73-0.17h1.77v0.45h-1.67c-0.44,0-0.66,0.11-0.66,0.34
				c0,0.19,0.08,0.31,0.23,0.38c0.15,0.07,0.38,0.11,0.68,0.11h1.41V95.96z"/>
			<path d="M690,96.98h-1c-0.07,0-0.14,0-0.22-0.01c-0.08,0-0.15-0.01-0.23-0.01v0.02c0.13,0.07,0.23,0.15,0.29,0.25
				c0.07,0.1,0.11,0.21,0.11,0.34c0,0.25-0.12,0.44-0.36,0.58s-0.58,0.21-1.04,0.21c-0.45,0-0.8-0.07-1.04-0.21
				c-0.24-0.14-0.36-0.33-0.36-0.58c0-0.13,0.03-0.25,0.09-0.35c0.06-0.1,0.16-0.18,0.28-0.25v-0.03l-0.33-0.07v-0.35h3.8V96.98z
				 M688.53,97.46c0-0.19-0.08-0.31-0.25-0.38c-0.17-0.07-0.39-0.1-0.68-0.1h-0.08c-0.31,0-0.55,0.04-0.71,0.11
				c-0.16,0.07-0.24,0.2-0.24,0.37c0,0.29,0.33,0.44,1,0.44C688.21,97.9,688.53,97.76,688.53,97.46z"/>
			<path d="M682.69,73.68c-0.21,0-0.39-0.04-0.54-0.12c-0.16-0.08-0.28-0.19-0.37-0.33c-0.09-0.14-0.13-0.31-0.13-0.51
				c0-0.29,0.06-0.54,0.17-0.75h0.51c-0.07,0.11-0.12,0.23-0.16,0.37s-0.06,0.26-0.06,0.38c0,0.17,0.05,0.29,0.15,0.38
				s0.23,0.13,0.38,0.13c0.1,0,0.19-0.02,0.27-0.05c0.07-0.03,0.14-0.09,0.21-0.17c0.06-0.08,0.13-0.19,0.21-0.33
				s0.15-0.26,0.24-0.36c0.09-0.1,0.2-0.18,0.32-0.23s0.28-0.08,0.47-0.08s0.36,0.04,0.5,0.11c0.14,0.08,0.26,0.18,0.33,0.32
				c0.08,0.14,0.12,0.3,0.12,0.48c0,0.14-0.02,0.27-0.05,0.4c-0.04,0.13-0.08,0.24-0.14,0.35l-0.45-0.14c0.06-0.1,0.1-0.2,0.13-0.3
				s0.05-0.2,0.05-0.29c0-0.14-0.04-0.25-0.13-0.33s-0.2-0.12-0.34-0.12c-0.11,0-0.2,0.02-0.27,0.05s-0.14,0.09-0.2,0.17
				s-0.13,0.19-0.21,0.32c-0.12,0.22-0.26,0.39-0.42,0.51C683.14,73.62,682.94,73.68,682.69,73.68z"/>
			<path d="M684.4,75.83h-2.7v-0.36l0.36-0.05v-0.03c-0.14-0.06-0.24-0.14-0.31-0.25c-0.07-0.11-0.1-0.22-0.1-0.35
				c0-0.24,0.08-0.41,0.25-0.52c0.17-0.11,0.41-0.17,0.73-0.17h1.77v0.45h-1.67c-0.44,0-0.66,0.11-0.66,0.34
				c0,0.19,0.08,0.31,0.23,0.38c0.15,0.07,0.38,0.11,0.68,0.11h1.41V75.83z"/>
			<path d="M684.45,77.44c0,0.22-0.08,0.39-0.23,0.51c-0.16,0.12-0.39,0.18-0.72,0.18h-1.8v-0.44h1.7c0.21,0,0.36-0.03,0.47-0.08
				c0.11-0.06,0.16-0.15,0.16-0.27c0-0.18-0.08-0.3-0.23-0.37s-0.39-0.11-0.72-0.11h-1.37V76.4h2.7v0.35l-0.36,0.05v0.03
				c0.13,0.06,0.24,0.14,0.3,0.25C684.42,77.19,684.45,77.31,684.45,77.44z"/>
			<path d="M681.65,79.36c0-0.25,0.12-0.44,0.36-0.58c0.24-0.14,0.58-0.21,1.04-0.21s0.8,0.07,1.04,0.21
				c0.24,0.14,0.36,0.33,0.36,0.58c0,0.13-0.04,0.25-0.11,0.35c-0.07,0.1-0.17,0.18-0.29,0.25v0.02c0.07,0,0.15-0.01,0.22-0.01
				c0.07,0,0.14-0.01,0.19-0.01h1.04v0.44h-3.8v-0.35l0.33-0.07v-0.02c-0.12-0.07-0.22-0.15-0.29-0.24
				C681.69,79.61,681.65,79.5,681.65,79.36z M682.07,79.47c0,0.32,0.29,0.49,0.88,0.49h0.13c0.32,0,0.56-0.04,0.71-0.11
				c0.16-0.08,0.24-0.2,0.24-0.38c0-0.15-0.08-0.26-0.25-0.33c-0.17-0.07-0.41-0.11-0.73-0.11
				C682.39,79.02,682.07,79.17,682.07,79.47z"/>
			<path d="M684.45,81.75c0,0.18-0.05,0.34-0.15,0.46s-0.24,0.22-0.42,0.29c-0.18,0.06-0.39,0.1-0.63,0.1h-0.3v-1.3
				c-0.59,0.01-0.88,0.2-0.88,0.58c0,0.11,0.01,0.22,0.04,0.31c0.03,0.1,0.08,0.2,0.14,0.3h-0.42c-0.12-0.19-0.17-0.41-0.17-0.66
				c0-0.33,0.13-0.58,0.38-0.74c0.25-0.16,0.59-0.24,1-0.24c0.45,0,0.8,0.08,1.05,0.23C684.32,81.24,684.45,81.46,684.45,81.75z
				 M684.06,81.75c0-0.13-0.06-0.23-0.19-0.31s-0.31-0.12-0.56-0.13v0.87c0.21,0,0.39-0.03,0.53-0.1S684.06,81.89,684.06,81.75z"/>
			<path d="M681.65,83.85c0-0.3,0.11-0.52,0.34-0.68c0.23-0.16,0.58-0.24,1.04-0.24c0.45,0,0.8,0.08,1.04,0.24
				c0.25,0.16,0.37,0.39,0.37,0.7c0,0.11-0.01,0.21-0.04,0.31s-0.06,0.18-0.11,0.25l-0.4-0.13c0.04-0.07,0.07-0.14,0.09-0.21
				c0.02-0.07,0.03-0.13,0.03-0.2c0-0.34-0.33-0.5-0.99-0.5c-0.64,0-0.96,0.17-0.96,0.5c0,0.09,0.01,0.18,0.04,0.26
				c0.03,0.08,0.07,0.16,0.11,0.24h-0.42C681.71,84.24,681.65,84.06,681.65,83.85z"/>
			<path d="M685.5,85.24h-1.84c-0.09,0-0.18,0-0.28-0.01c-0.09,0-0.19-0.01-0.27-0.02v0.01c0.05,0.03,0.11,0.06,0.18,0.1
				c0.06,0.04,0.12,0.07,0.17,0.1l0.94,0.59v0.49l-1.09-0.72l-1.61,0.76v-0.5l1.25-0.57l-0.29-0.25h-0.96V84.8h3.8V85.24z"/>
			<path d="M685.32,88.51c0,0.21-0.07,0.37-0.2,0.49c-0.14,0.12-0.32,0.17-0.57,0.17c-0.2,0-0.38-0.04-0.53-0.13s-0.3-0.2-0.43-0.35
				l-0.8,0.54c0.09,0.05,0.19,0.09,0.31,0.11s0.24,0.05,0.38,0.07v0.46c-0.18-0.02-0.37-0.07-0.57-0.13
				c-0.19-0.06-0.37-0.14-0.51-0.23l-0.7,0.5v-0.56l0.35-0.23c-0.13-0.11-0.22-0.24-0.29-0.37c-0.07-0.13-0.1-0.29-0.1-0.47
				c0-0.27,0.09-0.47,0.27-0.61c0.18-0.14,0.42-0.21,0.71-0.21c0.22,0,0.42,0.05,0.58,0.14c0.16,0.09,0.31,0.23,0.45,0.41
				c0.15-0.09,0.3-0.17,0.43-0.22s0.29-0.08,0.47-0.08c0.24,0,0.42,0.06,0.56,0.18S685.32,88.3,685.32,88.51z M683.34,88.34
				c-0.1-0.11-0.2-0.19-0.3-0.25c-0.1-0.05-0.23-0.08-0.38-0.08c-0.17,0-0.31,0.04-0.41,0.11s-0.15,0.18-0.15,0.3
				c0,0.11,0.03,0.21,0.08,0.29c0.05,0.09,0.13,0.17,0.24,0.24L683.34,88.34z M684.93,88.5c0-0.08-0.03-0.14-0.1-0.18
				c-0.07-0.05-0.16-0.07-0.29-0.07c-0.1,0-0.21,0.02-0.33,0.05c-0.11,0.04-0.22,0.09-0.31,0.16c0.09,0.1,0.18,0.18,0.29,0.23
				c0.11,0.05,0.23,0.07,0.36,0.07c0.12,0,0.22-0.02,0.28-0.07C684.9,88.64,684.93,88.58,684.93,88.5z"/>
			<path d="M685.27,91.92c0,0.35-0.09,0.61-0.27,0.77c-0.18,0.17-0.45,0.25-0.8,0.25c-0.35,0-0.62-0.08-0.83-0.25
				c-0.21-0.17-0.31-0.43-0.31-0.8v-0.24h-1.36v-0.46h3.57V91.92z M684.83,91.89v-0.24h-1.33v0.19c0,0.22,0.05,0.38,0.16,0.48
				s0.29,0.15,0.54,0.15c0.22,0,0.39-0.05,0.49-0.14S684.83,92.09,684.83,91.89z"/>
			<path d="M683.06,95.12c-0.28,0-0.53-0.04-0.74-0.11c-0.21-0.07-0.38-0.17-0.49-0.31c-0.12-0.14-0.17-0.31-0.17-0.52
				c0-0.2,0.06-0.37,0.17-0.5c0.12-0.14,0.28-0.24,0.49-0.32c0.21-0.07,0.46-0.11,0.74-0.11c0.44,0,0.78,0.08,1.02,0.23
				c0.25,0.16,0.37,0.39,0.37,0.7c0,0.29-0.12,0.51-0.36,0.68C683.86,95.04,683.51,95.12,683.06,95.12z M683.05,93.71
				c-0.32,0-0.56,0.04-0.73,0.12c-0.17,0.08-0.25,0.2-0.25,0.37s0.08,0.29,0.25,0.37c0.17,0.08,0.41,0.11,0.74,0.11
				c0.32,0,0.56-0.04,0.73-0.11c0.17-0.08,0.25-0.2,0.25-0.37s-0.08-0.29-0.25-0.37C683.62,93.75,683.38,93.71,683.05,93.71z"/>
			<path d="M683.06,97.34c-0.28,0-0.53-0.04-0.74-0.11c-0.21-0.07-0.38-0.17-0.49-0.31c-0.12-0.14-0.17-0.31-0.17-0.52
				c0-0.2,0.06-0.37,0.17-0.5c0.12-0.14,0.28-0.24,0.49-0.32c0.21-0.07,0.46-0.11,0.74-0.11c0.44,0,0.78,0.08,1.02,0.23
				c0.25,0.16,0.37,0.39,0.37,0.7c0,0.29-0.12,0.51-0.36,0.68C683.86,97.26,683.51,97.34,683.06,97.34z M683.05,95.93
				c-0.32,0-0.56,0.04-0.73,0.12c-0.17,0.08-0.25,0.2-0.25,0.37s0.08,0.29,0.25,0.37c0.17,0.08,0.41,0.11,0.74,0.11
				c0.32,0,0.56-0.04,0.73-0.11c0.17-0.08,0.25-0.2,0.25-0.37s-0.08-0.29-0.25-0.37C683.62,95.96,683.38,95.93,683.05,95.93z"/>
			<path d="M681.7,98.24V97.8h3.8v0.44H681.7z"/>
		</g>
	</g>
	<g>
	</g>
	<g>
	</g>
	<g>
	</g>
	<g>
	</g>
	<g>
	</g>
	<g>
	</g>
</g>
</svg>
