<?xml version="1.0" encoding="utf-8"?>
<!-- Generator: Adobe Illustrator 25.2.0, SVG Export Plug-In . SVG Version: 6.00 Build 0)  -->
<svg version="1.1" xmlns="http://www.w3.org/2000/svg" xmlns:xlink="http://www.w3.org/1999/xlink" x="0px" y="0px"
	 viewBox="0 0 850.39 170.08" enable-background="new 0 0 850.39 170.08" xml:space="preserve">
<g id="ingombro">
	<rect x="0" y="0" fill="none" width="850.39" height="170.08"/>
</g>
<g id="strokes" display="none">
	
		<rect id="stroke1201" x="719.92" y="57.5" transform="matrix(-1.836970e-16 1 -1 -1.836970e-16 792.5591 -669.5728)" display="inline" fill="none" stroke="#000000" stroke-width="0.6" stroke-miterlimit="3.8637" width="22.3" height="7.99"/>
	
		<rect id="stroke1203" x="717.21" y="76.26" display="inline" fill="none" stroke="#000000" stroke-width="0.6" stroke-miterlimit="3.8637" width="21.76" height="8.77"/>
	
		<rect id="stroke1204" x="717.21" y="85.04" display="inline" fill="none" stroke="#000000" stroke-width="0.6" stroke-miterlimit="3.8637" width="21.76" height="8.77"/>
	
		<rect id="stroke1205" x="711.93" y="57.5" transform="matrix(-1.836970e-16 1 -1 -1.836970e-16 784.5739 -661.5876)" display="inline" fill="none" stroke="#000000" stroke-width="0.6" stroke-miterlimit="3.8637" width="22.3" height="7.99"/>
	
		<rect id="stroke1207" x="703.95" y="57.5" transform="matrix(-1.836970e-16 1 -1 -1.836970e-16 776.5887 -653.6024)" display="inline" fill="none" stroke="#000000" stroke-width="0.6" stroke-miterlimit="3.8637" width="22.3" height="7.99"/>
	
		<rect id="stroke1209" x="695.96" y="57.5" transform="matrix(-1.836970e-16 1 -1 -1.836970e-16 768.6035 -645.6172)" display="inline" fill="none" stroke="#000000" stroke-width="0.6" stroke-miterlimit="3.8637" width="22.3" height="7.99"/>
	
		<rect id="stroke1211" x="687.98" y="57.5" transform="matrix(-1.836970e-16 1 -1 -1.836970e-16 760.6183 -637.632)" display="inline" fill="none" stroke="#000000" stroke-width="0.6" stroke-miterlimit="3.8637" width="22.3" height="7.99"/>
	
		<rect id="stroke1215" x="679.99" y="57.5" transform="matrix(-1.836970e-16 1 -1 -1.836970e-16 752.6331 -629.6468)" display="inline" fill="none" stroke="#000000" stroke-width="0.6" stroke-miterlimit="3.8637" width="22.3" height="7.99"/>
	
		<rect id="stroke1217" x="672.01" y="57.5" transform="matrix(-1.836970e-16 1 -1 -1.836970e-16 744.6479 -621.6616)" display="inline" fill="none" stroke="#000000" stroke-width="0.6" stroke-miterlimit="3.8637" width="22.3" height="7.99"/>
	
		<rect id="stroke1219" x="664.02" y="57.5" transform="matrix(-1.836970e-16 1 -1 -1.836970e-16 736.6627 -613.6764)" display="inline" fill="none" stroke="#000000" stroke-width="0.6" stroke-miterlimit="3.8637" width="22.3" height="7.99"/>
	
		<rect id="stroke1221" x="656.04" y="57.5" transform="matrix(-1.836970e-16 1 -1 -1.836970e-16 728.6775 -605.6912)" display="inline" fill="none" stroke="#000000" stroke-width="0.6" stroke-miterlimit="3.8637" width="22.3" height="7.99"/>
	
		<rect id="stroke1223" x="648.05" y="57.5" transform="matrix(-1.836970e-16 1 -1 -1.836970e-16 720.6923 -597.706)" display="inline" fill="none" stroke="#000000" stroke-width="0.6" stroke-miterlimit="3.8637" width="22.3" height="7.99"/>
	
		<rect id="stroke1225" x="640.07" y="57.5" transform="matrix(-1.836970e-16 1 -1 -1.836970e-16 712.7071 -589.7208)" display="inline" fill="none" stroke="#000000" stroke-width="0.6" stroke-miterlimit="3.8637" width="22.3" height="7.99"/>
	
		<rect id="stroke1227" x="632.08" y="57.5" transform="matrix(-1.836970e-16 1 -1 -1.836970e-16 704.7219 -581.7357)" display="inline" fill="none" stroke="#000000" stroke-width="0.6" stroke-miterlimit="3.8637" width="22.3" height="7.99"/>
	
		<rect id="stroke1229" x="624.1" y="57.5" transform="matrix(-1.836970e-16 1 -1 -1.836970e-16 696.7368 -573.7504)" display="inline" fill="none" stroke="#000000" stroke-width="0.6" stroke-miterlimit="3.8637" width="22.3" height="7.99"/>
	
		<rect id="stroke1202" x="719.92" y="104.63" transform="matrix(6.123234e-17 -1 1 6.123234e-17 622.4403 839.6916)" display="inline" fill="none" stroke="#000000" stroke-width="0.6" stroke-miterlimit="3.8637" width="22.3" height="7.99"/>
	
		<rect id="stroke1206" x="711.93" y="104.63" transform="matrix(6.123234e-17 -1 1 6.123234e-17 614.4551 831.7064)" display="inline" fill="none" stroke="#000000" stroke-width="0.6" stroke-miterlimit="3.8637" width="22.3" height="7.99"/>
	
		<rect id="stroke1208" x="703.95" y="104.63" transform="matrix(6.123234e-17 -1 1 6.123234e-17 606.4699 823.7212)" display="inline" fill="none" stroke="#000000" stroke-width="0.6" stroke-miterlimit="3.8637" width="22.3" height="7.99"/>
	
		<rect id="stroke1210" x="695.96" y="104.63" transform="matrix(6.123234e-17 -1 1 6.123234e-17 598.4847 815.736)" display="inline" fill="none" stroke="#000000" stroke-width="0.6" stroke-miterlimit="3.8637" width="22.3" height="7.99"/>
	
		<rect id="stroke1212" x="687.98" y="104.63" transform="matrix(6.123234e-17 -1 1 6.123234e-17 590.4995 807.7508)" display="inline" fill="none" stroke="#000000" stroke-width="0.6" stroke-miterlimit="3.8637" width="22.3" height="7.99"/>
	
		<rect id="stroke1214" x="679.99" y="104.63" transform="matrix(6.123234e-17 -1 1 6.123234e-17 582.5143 799.7656)" display="inline" fill="none" stroke="#000000" stroke-width="0.6" stroke-miterlimit="3.8637" width="22.3" height="7.99"/>
	
		<rect id="stroke1216" x="672.01" y="104.63" transform="matrix(6.123234e-17 -1 1 6.123234e-17 574.5291 791.7804)" display="inline" fill="none" stroke="#000000" stroke-width="0.6" stroke-miterlimit="3.8637" width="22.3" height="7.99"/>
	
		<rect id="stroke1218" x="664.02" y="104.63" transform="matrix(6.123234e-17 -1 1 6.123234e-17 566.5439 783.7952)" display="inline" fill="none" stroke="#000000" stroke-width="0.6" stroke-miterlimit="3.8637" width="22.3" height="7.99"/>
	
		<rect id="stroke1220" x="656.04" y="104.63" transform="matrix(6.123234e-17 -1 1 6.123234e-17 558.5587 775.81)" display="inline" fill="none" stroke="#000000" stroke-width="0.6" stroke-miterlimit="3.8637" width="22.3" height="7.99"/>
	
		<rect id="stroke1222" x="648.05" y="104.63" transform="matrix(6.123234e-17 -1 1 6.123234e-17 550.5735 767.8248)" display="inline" fill="none" stroke="#000000" stroke-width="0.6" stroke-miterlimit="3.8637" width="22.3" height="7.99"/>
	
		<rect id="stroke1224" x="640.07" y="104.63" transform="matrix(6.123234e-17 -1 1 6.123234e-17 542.5883 759.8396)" display="inline" fill="none" stroke="#000000" stroke-width="0.6" stroke-miterlimit="3.8637" width="22.3" height="7.99"/>
	
		<rect id="stroke1226" x="632.08" y="104.63" transform="matrix(6.123234e-17 -1 1 6.123234e-17 534.6031 751.8544)" display="inline" fill="none" stroke="#000000" stroke-width="0.6" stroke-miterlimit="3.8637" width="22.3" height="7.99"/>
	
		<rect id="stroke1228" x="624.1" y="104.63" transform="matrix(6.123234e-17 -1 1 6.123234e-17 526.6179 743.8692)" display="inline" fill="none" stroke="#000000" stroke-width="0.6" stroke-miterlimit="3.8637" width="22.3" height="7.99"/>
</g>
<g id="balcony">
</g>
<g id="cabins">
	
		<rect id="cabin1201" x="719.92" y="57.5" transform="matrix(-1.836970e-16 1 -1 -1.836970e-16 792.5591 -669.5728)" fill="#FAC86C" width="22.3" height="7.99"/>
	<rect id="cabin1203" x="717.21" y="76.26" fill="#FAC86C" width="21.76" height="8.77"/>
	<rect id="cabin1204" x="717.21" y="85.04" fill="#FAC86C" width="21.76" height="8.77"/>
	
		<rect id="cabin1205" x="711.93" y="57.5" transform="matrix(-1.836970e-16 1 -1 -1.836970e-16 784.5739 -661.5876)" fill="#FAC86C" width="22.3" height="7.99"/>
	
		<rect id="cabin1207" x="703.95" y="57.5" transform="matrix(-1.836970e-16 1 -1 -1.836970e-16 776.5887 -653.6024)" fill="#FAC86C" width="22.3" height="7.99"/>
	
		<rect id="cabin1209" x="695.96" y="57.5" transform="matrix(-1.836970e-16 1 -1 -1.836970e-16 768.6035 -645.6172)" fill="#FAC86C" width="22.3" height="7.99"/>
	
		<rect id="cabin1211" x="687.98" y="57.5" transform="matrix(-1.836970e-16 1 -1 -1.836970e-16 760.6183 -637.632)" fill="#FAC86C" width="22.3" height="7.99"/>
	
		<rect id="cabin1215" x="679.99" y="57.5" transform="matrix(-1.836970e-16 1 -1 -1.836970e-16 752.6331 -629.6468)" fill="#FAC86C" width="22.3" height="7.99"/>
	
		<rect id="cabin1217" x="672.01" y="57.5" transform="matrix(-1.836970e-16 1 -1 -1.836970e-16 744.6479 -621.6616)" fill="#FAC86C" width="22.3" height="7.99"/>
	
		<rect id="cabin1219" x="664.02" y="57.5" transform="matrix(-1.836970e-16 1 -1 -1.836970e-16 736.6627 -613.6764)" fill="#FAC86C" width="22.3" height="7.99"/>
	
		<rect id="cabin1221" x="656.04" y="57.5" transform="matrix(-1.836970e-16 1 -1 -1.836970e-16 728.6775 -605.6912)" fill="#FAC86C" width="22.3" height="7.99"/>
	
		<rect id="cabin1223" x="648.05" y="57.5" transform="matrix(-1.836970e-16 1 -1 -1.836970e-16 720.6923 -597.706)" fill="#FAC86C" width="22.3" height="7.99"/>
	
		<rect id="cabin1225" x="640.07" y="57.5" transform="matrix(-1.836970e-16 1 -1 -1.836970e-16 712.7071 -589.7208)" fill="#FAC86C" width="22.3" height="7.99"/>
	
		<rect id="cabin1227" x="632.08" y="57.5" transform="matrix(-1.836970e-16 1 -1 -1.836970e-16 704.7219 -581.7357)" fill="#FAC86C" width="22.3" height="7.99"/>
	
		<rect id="cabin1229" x="624.1" y="57.5" transform="matrix(-1.836970e-16 1 -1 -1.836970e-16 696.7368 -573.7504)" fill="#FAC86C" width="22.3" height="7.99"/>
	
		<rect id="cabin1202" x="719.92" y="104.63" transform="matrix(6.123234e-17 -1 1 6.123234e-17 622.4403 839.6916)" fill="#FAC86C" width="22.3" height="7.99"/>
	
		<rect id="cabin1206" x="711.93" y="104.63" transform="matrix(6.123234e-17 -1 1 6.123234e-17 614.4551 831.7064)" fill="#FAC86C" width="22.3" height="7.99"/>
	
		<rect id="cabin1208" x="703.95" y="104.63" transform="matrix(6.123234e-17 -1 1 6.123234e-17 606.4699 823.7212)" fill="#FAC86C" width="22.3" height="7.99"/>
	
		<rect id="cabin1210" x="695.96" y="104.63" transform="matrix(6.123234e-17 -1 1 6.123234e-17 598.4847 815.736)" fill="#FAC86C" width="22.3" height="7.99"/>
	
		<rect id="cabin1212" x="687.98" y="104.63" transform="matrix(6.123234e-17 -1 1 6.123234e-17 590.4995 807.7508)" fill="#FAC86C" width="22.3" height="7.99"/>
	
		<rect id="cabin1214" x="679.99" y="104.63" transform="matrix(6.123234e-17 -1 1 6.123234e-17 582.5143 799.7656)" fill="#FAC86C" width="22.3" height="7.99"/>
	
		<rect id="cabin1216" x="672.01" y="104.63" transform="matrix(6.123234e-17 -1 1 6.123234e-17 574.5291 791.7804)" fill="#FAC86C" width="22.3" height="7.99"/>
	
		<rect id="cabin1218" x="664.02" y="104.63" transform="matrix(6.123234e-17 -1 1 6.123234e-17 566.5439 783.7952)" fill="#FAC86C" width="22.3" height="7.99"/>
	
		<rect id="cabin1220" x="656.04" y="104.63" transform="matrix(6.123234e-17 -1 1 6.123234e-17 558.5587 775.81)" fill="#FAC86C" width="22.3" height="7.99"/>
	
		<rect id="cabin1222" x="648.05" y="104.63" transform="matrix(6.123234e-17 -1 1 6.123234e-17 550.5735 767.8248)" fill="#FAC86C" width="22.3" height="7.99"/>
	
		<rect id="cabin1224" x="640.07" y="104.63" transform="matrix(6.123234e-17 -1 1 6.123234e-17 542.5883 759.8396)" fill="#FAC86C" width="22.3" height="7.99"/>
	
		<rect id="cabin1226" x="632.08" y="104.63" transform="matrix(6.123234e-17 -1 1 6.123234e-17 534.6031 751.8544)" fill="#FAC86C" width="22.3" height="7.99"/>
	
		<rect id="cabin1228" x="624.1" y="104.63" transform="matrix(6.123234e-17 -1 1 6.123234e-17 526.6179 743.8692)" fill="#FAC86C" width="22.3" height="7.99"/>
</g>
<g id="ship">
	<path fill="none" stroke="#000000" stroke-width="0.4" stroke-miterlimit="3.8637" d="M123.41,85.05V59.92
		c0-5.42,4.49-9.6,9.77-9.6c3.49,0,3.78,0,3.78,0v-4.43H746.7c0,0,5.87,16.74,5.87,39.2c0,22.46-5.87,39.15-5.87,39.15H136.96v-4.52
		c0,0-1.81,0-3.78,0c-4.18,0-9.77-2.91-9.77-9.83C123.41,99.6,123.41,85.05,123.41,85.05z"/>
	<polyline fill="none" stroke="#000000" stroke-width="0.2" stroke-miterlimit="3.8637" points="145.21,124.19 145.21,119.49 
		136.47,109.39 129.44,109.39 129.44,60.69 136.47,60.69 145.21,50.59 145.21,45.89 	"/>
	
		<line fill="none" stroke="#000000" stroke-width="0.2" stroke-miterlimit="3.8637" x1="224.93" y1="45.89" x2="224.93" y2="80.75"/>
	
		<line fill="none" stroke="#000000" stroke-width="0.2" stroke-miterlimit="3.8637" x1="224.93" y1="89.36" x2="224.93" y2="124.23"/>
	<g>
		<path fill="none" stroke="#000000" stroke-width="0.2" stroke-miterlimit="3.8637" d="M151.71,56.79
			c-2.24,0.24-4.29,1.11-5.98,2.42l0.84,1.08c1.49-1.16,3.31-1.92,5.29-2.14L151.71,56.79z"/>
		<path fill="none" stroke="#000000" stroke-width="0.2" stroke-miterlimit="3.8637" d="M142.61,67.18
			c0.26-1.97,1.05-3.77,2.25-5.24l-1.06-0.87c-1.35,1.66-2.25,3.69-2.55,5.92L142.61,67.18z"/>
		<g>
			<path fill="none" stroke="#000000" stroke-width="0.2" stroke-miterlimit="3.8637" d="M144.8,75.07
				c-1.17-1.47-1.96-3.27-2.2-5.24l-1.36,0.16c0.27,2.22,1.16,4.26,2.49,5.92L144.8,75.07z"/>
			<path fill="none" stroke="#000000" stroke-width="0.2" stroke-miterlimit="3.8637" d="M164.73,67.21
				c-0.25-2.23-1.12-4.27-2.43-5.94l-1.07,0.85c1.16,1.48,1.92,3.28,2.15,5.25L164.73,67.21z"/>
		</g>
		<g>
			<path fill="none" stroke="#000000" stroke-width="0.2" stroke-miterlimit="3.8637" d="M160.26,59.22
				c-1.68-1.31-3.73-2.18-5.96-2.43l-0.15,1.36c1.98,0.22,3.79,0.99,5.27,2.15L160.26,59.22z"/>
			<path fill="none" stroke="#000000" stroke-width="0.2" stroke-miterlimit="3.8637" d="M151.83,78.94
				c-1.95-0.21-3.74-0.96-5.21-2.09l-0.84,1.08c1.67,1.29,3.69,2.13,5.9,2.37L151.83,78.94z"/>
		</g>
	</g>
	<path fill="none" stroke="#000000" stroke-width="0.2" stroke-miterlimit="3.8637" d="M164.8,68.55c0,6.53-5.29,11.82-11.82,11.82
		c-6.53,0-11.82-5.29-11.82-11.82c0-6.53,5.29-11.82,11.82-11.82C159.51,56.73,164.8,62.02,164.8,68.55z"/>
	<g>
		<circle fill="none" stroke="#000000" stroke-width="0.2" stroke-miterlimit="3.8637" cx="152.98" cy="57.46" r="0.72"/>
		<path fill="none" stroke="#000000" stroke-width="0.2" stroke-miterlimit="3.8637" d="M153.71,79.63c0,0.4-0.32,0.73-0.73,0.73
			c-0.4,0-0.73-0.33-0.73-0.73c0-0.4,0.32-0.72,0.73-0.72C153.39,78.91,153.71,79.23,153.71,79.63z"/>
	</g>
	<g>
		<path fill="none" stroke="#000000" stroke-width="0.2" stroke-miterlimit="3.8637" d="M145.73,60.13
			c0.28,0.29,0.28,0.74-0.01,1.02c-0.29,0.28-0.75,0.28-1.03-0.01c-0.28-0.29-0.28-0.74,0.01-1.03
			C144.99,59.84,145.45,59.85,145.73,60.13z"/>
		<path fill="none" stroke="#000000" stroke-width="0.2" stroke-miterlimit="3.8637" d="M161.27,75.95
			c0.28,0.29,0.28,0.75-0.01,1.02c-0.29,0.28-0.75,0.28-1.03-0.01c-0.28-0.29-0.28-0.75,0.01-1.03
			C160.53,75.66,160.99,75.66,161.27,75.95z"/>
	</g>
	<g>
		<path fill="none" stroke="#000000" stroke-width="0.2" stroke-miterlimit="3.8637" d="M141.89,67.92c0.4,0,0.73,0.32,0.73,0.72
			c0,0.4-0.32,0.73-0.72,0.73c-0.4,0-0.73-0.32-0.73-0.72C141.17,68.25,141.49,67.92,141.89,67.92z"/>
		<path fill="none" stroke="#000000" stroke-width="0.2" stroke-miterlimit="3.8637" d="M164.07,67.73c0.4,0,0.73,0.32,0.73,0.72
			c0,0.4-0.32,0.73-0.72,0.73c-0.4,0-0.73-0.32-0.73-0.72C163.34,68.06,163.67,67.73,164.07,67.73z"/>
	</g>
	<g>
		<path fill="none" stroke="#000000" stroke-width="0.2" stroke-miterlimit="3.8637" d="M144.7,75.95c0.28-0.29,0.74-0.29,1.02-0.01
			c0.29,0.28,0.29,0.74,0.01,1.03c-0.28,0.29-0.74,0.29-1.03,0.01C144.42,76.69,144.42,76.23,144.7,75.95z"/>
		<path fill="none" stroke="#000000" stroke-width="0.2" stroke-miterlimit="3.8637" d="M160.24,60.13
			c0.28-0.29,0.74-0.29,1.03-0.01c0.29,0.28,0.29,0.74,0.01,1.03c-0.28,0.29-0.74,0.29-1.03,0.01
			C159.96,60.88,159.96,60.42,160.24,60.13z"/>
	</g>
	<polyline fill="none" stroke="#000000" stroke-width="0.2" stroke-miterlimit="3.8637" points="191.55,46.05 191.55,48.39 
		195.36,48.39 195.36,61.14 191.82,61.14 192.69,65 199.4,63.57 199.4,61.84 	"/>
	<polyline fill="none" stroke="#000000" stroke-width="0.2" stroke-miterlimit="3.8637" points="224.93,56.72 224.32,56.72 
		224.32,47.25 198.56,47.25 198.56,61.84 224.32,61.84 224.32,61.41 224.93,61.41 	"/>
	<line fill="none" stroke="#000000" stroke-width="0.2" stroke-miterlimit="3.8637" x1="199.4" y1="63.57" x2="224.93" y2="63.57"/>
	<path fill="none" stroke="#000000" stroke-width="0.2" stroke-miterlimit="3.8637" d="M189.3,124.23v-13.19h-0.38
		c0,0-2.8,1.68-4.16,2.17c-1.37,0.5-4.91,1.18-4.91,1.18l0.21,1.48c0,0-3.45,0.78-7.81-0.17c-8.21-1.79-19.92-7.98-19.92-24.9
		c0-4.64,0-10.29,0-10.29"/>
	<path fill="none" stroke="#000000" stroke-width="0.2" stroke-miterlimit="3.8637" d="M162.7,61.47l4.16-2.95
		c0,0,1.5,1.86,2.2,4.19c0.7,2.33,0.97,4,0.97,4l-5.28,0.51"/>
	<polyline fill="none" stroke="#000000" stroke-width="0.2" stroke-miterlimit="3.8637" points="172.57,93.82 172.57,93.49 
		172.55,93.49 172.55,84.87 171.44,83.77 172.35,82.67 172.36,74.71 191.68,70.69 191.75,71.12 172.8,75.03 172.8,76.64 
		184.56,76.64 184.56,78.02 182.93,78.02 182.31,80.69 184.56,80.69 184.56,88.98 188.98,88.98 188.98,89.67 177.07,89.67 
		177.07,93.89 172.57,93.89 172.57,97.83 176.72,99.21 185.56,99.21 	"/>
	<polyline fill="none" stroke="#000000" stroke-width="0.2" stroke-miterlimit="3.8637" points="176.67,76.66 176.67,93.49 
		172.55,93.49 	"/>
	
		<rect x="172.8" y="77.06" fill="none" stroke="#000000" stroke-width="0.2" stroke-miterlimit="3.8637" width="3.54" height="7.85"/>
	
		<rect x="172.8" y="85.3" fill="none" stroke="#000000" stroke-width="0.2" stroke-miterlimit="3.8637" width="3.54" height="7.85"/>
	<polyline fill="none" stroke="#000000" stroke-width="0.2" stroke-miterlimit="3.8637" points="184.22,78.02 184.22,76.96 
		177.07,76.96 177.07,86.87 184.22,86.87 184.22,80.69 	"/>
	<polyline fill="none" stroke="#000000" stroke-width="0.2" stroke-miterlimit="3.8637" points="176.67,84.58 179.94,84.58 
		179.94,86.92 	"/>
	
		<line fill="none" stroke="#000000" stroke-width="0.1" stroke-miterlimit="3.8637" x1="183.01" y1="78.02" x2="183.01" y2="80.69"/>
	
		<line fill="none" stroke="#000000" stroke-width="0.1" stroke-miterlimit="3.8637" x1="183.58" y1="78.02" x2="183.58" y2="80.69"/>
	
		<line fill="none" stroke="#000000" stroke-width="0.1" stroke-miterlimit="3.8637" x1="184.16" y1="80.69" x2="184.16" y2="78.02"/>
	<line fill="none" stroke="#000000" stroke-width="0.2" stroke-miterlimit="3.8637" x1="188.7" y1="88.88" x2="188.7" y2="80.88"/>
	<polygon fill="none" stroke="#000000" stroke-width="0.2" stroke-miterlimit="3.8637" points="191.95,80.84 191.95,76.34 
		209.8,76.34 209.8,74.8 210.41,74.8 210.41,76.26 216.49,76.26 216.49,71.51 216.76,71.51 216.76,77.65 200.79,77.65 200.79,92.47 
		216.69,92.47 216.69,98.61 216.49,98.61 216.49,93.86 204.48,93.86 204.48,101.35 210.37,101.35 210.37,99.03 211.25,99.03 
		211.25,101.29 216.49,101.29 216.49,101.06 216.76,101.06 216.76,102.58 216.49,102.58 216.49,102.2 213.56,102.2 213.56,102.58 
		207.75,102.58 204.8,104.3 203.92,104.3 203.92,93.86 188.98,93.86 188.98,106.57 184.75,106.57 184.75,103.85 185.29,103.85 
		185.29,106.03 188.52,106.03 188.52,101.13 188.17,101.13 188.17,99.21 188.6,99.21 188.6,92.65 188.98,92.65 188.98,93.29 
		192.45,93.29 192.45,91.28 193.27,91.28 193.27,92.23 197.01,92.23 197.01,87.88 193.47,87.88 193.47,88.85 192.45,88.85 
		192.45,85.13 193.47,85.13 193.47,86.08 197.01,86.08 197.01,81.73 193.47,81.73 193.47,82.68 192.45,82.68 192.45,80.84 	"/>
	
		<line fill="none" stroke="#000000" stroke-width="0.2" stroke-miterlimit="3.8637" x1="192.45" y1="80.84" x2="200.34" y2="80.84"/>
	
		<line fill="none" stroke="#000000" stroke-width="0.2" stroke-miterlimit="3.8637" x1="200.34" y1="76.46" x2="200.34" y2="93.22"/>
	<polyline fill="none" stroke="#000000" stroke-width="0.2" stroke-miterlimit="3.8637" points="205.1,76.26 205.1,68.83 
		209.86,68.83 209.86,70.36 210.48,70.36 210.48,68.9 216.76,68.9 216.76,67.54 216.11,67.54 216.11,68.02 212.71,68.02 
		212.71,67.61 211.75,67.61 211.75,67.87 205.07,67.87 199.5,69.07 199.57,69.43 204.29,68.47 204.29,76.2 	"/>
	
		<rect x="195.39" y="69.77" transform="matrix(0.9794 -0.2019 0.2019 0.9794 -10.0825 41.0415)" fill="none" stroke="#000000" stroke-width="0.2" stroke-miterlimit="3.8637" width="1.54" height="0.37"/>
	
		<line fill="none" stroke="#000000" stroke-width="0.2" stroke-miterlimit="3.8637" x1="198.37" y1="80.84" x2="198.37" y2="93.29"/>
	
		<line fill="none" stroke="#000000" stroke-width="0.2" stroke-miterlimit="3.8637" x1="192.45" y1="93.29" x2="216.76" y2="93.29"/>
	<path fill="none" stroke="#000000" stroke-width="0.2" stroke-miterlimit="3.8637" d="M163.21,91.73c0-5.94,3.84-10.97,9.16-12.79
		v-1.46c-6.1,1.86-10.55,7.53-10.55,14.25c0,8.21,6.37,14.83,14.58,14.86v-1.38C168.96,105.17,163.21,99.17,163.21,91.73z"/>
	<g>
		<path fill="none" stroke="#000000" stroke-width="0.2" stroke-miterlimit="3.8637" d="M163.91,85.61c-0.89,1.85-1.4,3.92-1.4,6.12
			c0,7.74,6.19,14.02,13.89,14.2h8.36"/>
	</g>
	
		<line fill="none" stroke="#000000" stroke-width="0.2" stroke-miterlimit="3.8637" x1="176.4" y1="106.58" x2="184.75" y2="106.58"/>
	<line fill="none" stroke="#000000" stroke-width="0.2" stroke-miterlimit="3.8637" x1="176.4" y1="105.2" x2="184.66" y2="105.2"/>
	
		<line fill="none" stroke="#000000" stroke-width="0.1" stroke-miterlimit="3.8637" x1="163.31" y1="85.26" x2="165.74" y2="86.49"/>
	<polyline fill="none" stroke="#000000" stroke-width="0.1" stroke-miterlimit="3.8637" points="172.32,80.15 169.93,81.38 
		167.03,83.86 165.46,86.21 	"/>
	<polyline fill="none" stroke="#000000" stroke-width="0.1" stroke-miterlimit="3.8637" points="166.25,83.11 167.03,83.86 
		167.85,81.93 169.93,81.38 169.15,80.45 	"/>
	<path fill="none" stroke="#000000" stroke-width="0.1" stroke-miterlimit="3.8637" d="M162.77,85.93c0,0.47-0.38,0.85-0.85,0.85
		c-0.47,0-0.85-0.38-0.85-0.85c0-0.47,0.38-0.85,0.85-0.85C162.4,85.08,162.77,85.46,162.77,85.93z"/>
	<path fill="none" stroke="#000000" stroke-width="0.1" stroke-miterlimit="3.8637" d="M162.02,88.61c0,0.47-0.38,0.85-0.85,0.85
		c-0.47,0-0.85-0.38-0.85-0.85c0-0.47,0.38-0.85,0.85-0.85C161.64,87.77,162.02,88.15,162.02,88.61z"/>
	<path fill="none" stroke="#000000" stroke-width="0.1" stroke-miterlimit="3.8637" d="M161.72,91.67c0,0.47-0.38,0.85-0.85,0.85
		c-0.47,0-0.85-0.38-0.85-0.85c0-0.47,0.38-0.85,0.85-0.85C161.34,90.83,161.72,91.2,161.72,91.67z"/>
	<path fill="none" stroke="#000000" stroke-width="0.1" stroke-miterlimit="3.8637" d="M162.07,94.79c0,0.47-0.38,0.85-0.85,0.85
		s-0.85-0.38-0.85-0.85c0-0.47,0.38-0.85,0.85-0.85S162.07,94.32,162.07,94.79z"/>
	<path fill="none" stroke="#000000" stroke-width="0.1" stroke-miterlimit="3.8637" d="M162.73,97.28c0,0.47-0.38,0.85-0.85,0.85
		s-0.85-0.38-0.85-0.85c0-0.47,0.38-0.85,0.85-0.85S162.73,96.81,162.73,97.28z"/>
	<path fill="none" stroke="#000000" stroke-width="0.1" stroke-miterlimit="3.8637" d="M163.82,99.84c0,0.47-0.38,0.85-0.85,0.85
		c-0.47,0-0.85-0.38-0.85-0.85c0-0.47,0.38-0.85,0.85-0.85C163.44,98.99,163.82,99.37,163.82,99.84z"/>
	<path fill="none" stroke="#000000" stroke-width="0.1" stroke-miterlimit="3.8637" d="M165.37,101.78c0,0.47-0.38,0.85-0.85,0.85
		c-0.47,0-0.85-0.38-0.85-0.85c0-0.47,0.38-0.85,0.85-0.85C164.99,100.93,165.37,101.31,165.37,101.78z"/>
	
		<ellipse transform="matrix(1 -2.379225e-03 2.379225e-03 1 -0.2465 0.3964)" fill="none" stroke="#000000" stroke-width="0.1" stroke-miterlimit="3.8637" cx="166.5" cy="103.82" rx="0.85" ry="0.85"/>
	<path fill="none" stroke="#000000" stroke-width="0.1" stroke-miterlimit="3.8637" d="M170.33,105.81c0,0.47-0.38,0.85-0.85,0.85
		s-0.85-0.38-0.85-0.85c0-0.47,0.38-0.85,0.85-0.85S170.33,105.35,170.33,105.81z"/>
	<path fill="none" stroke="#000000" stroke-width="0.1" stroke-miterlimit="3.8637" d="M172.79,106.79c0,0.47-0.38,0.85-0.85,0.85
		c-0.47,0-0.85-0.38-0.85-0.85c0-0.47,0.38-0.85,0.85-0.85C172.41,105.94,172.79,106.32,172.79,106.79z"/>
	<path fill="none" stroke="#000000" stroke-width="0.1" stroke-miterlimit="3.8637" d="M175.39,107.38c0,0.47-0.38,0.85-0.85,0.85
		s-0.85-0.38-0.85-0.85c0-0.47,0.38-0.85,0.85-0.85S175.39,106.92,175.39,107.38z"/>
	<path fill="none" stroke="#000000" stroke-width="0.1" stroke-miterlimit="3.8637" d="M170.44,67.46c0,0.31-0.25,0.56-0.56,0.56
		s-0.56-0.25-0.56-0.56c0-0.31,0.25-0.56,0.56-0.56S170.44,67.15,170.44,67.46z"/>
	<path fill="none" stroke="#000000" stroke-width="0.1" stroke-miterlimit="3.8637" d="M176.03,66.27c0,0.31-0.25,0.56-0.56,0.56
		s-0.56-0.25-0.56-0.56c0-0.31,0.25-0.56,0.56-0.56S176.03,65.96,176.03,66.27z"/>
	<path fill="none" stroke="#000000" stroke-width="0.1" stroke-miterlimit="3.8637" d="M181.73,65.1c0,0.31-0.25,0.56-0.56,0.56
		c-0.31,0-0.56-0.25-0.56-0.56c0-0.31,0.25-0.56,0.56-0.56C181.48,64.54,181.73,64.79,181.73,65.1z"/>
	<path fill="none" stroke="#000000" stroke-width="0.1" stroke-miterlimit="3.8637" d="M187.36,63.99c0,0.31-0.25,0.56-0.56,0.56
		s-0.56-0.25-0.56-0.56s0.25-0.56,0.56-0.56S187.36,63.68,187.36,63.99z"/>
	<line fill="none" stroke="#000000" stroke-width="0.2" stroke-miterlimit="3.8637" x1="136.96" y1="47.1" x2="131.91" y2="47.1"/>
	<line fill="none" stroke="#000000" stroke-width="0.1" stroke-miterlimit="3.8637" x1="136.31" y1="47.1" x2="136.31" y2="50.32"/>
	<line fill="none" stroke="#000000" stroke-width="0.1" stroke-miterlimit="3.8637" x1="135.67" y1="47.1" x2="135.67" y2="50.32"/>
	<line fill="none" stroke="#000000" stroke-width="0.1" stroke-miterlimit="3.8637" x1="135.02" y1="47.1" x2="135.02" y2="50.35"/>
	<line fill="none" stroke="#000000" stroke-width="0.1" stroke-miterlimit="3.8637" x1="134.38" y1="47.1" x2="134.38" y2="50.35"/>
	<line fill="none" stroke="#000000" stroke-width="0.1" stroke-miterlimit="3.8637" x1="133.73" y1="47.1" x2="133.73" y2="50.35"/>
	<line fill="none" stroke="#000000" stroke-width="0.1" stroke-miterlimit="3.8637" x1="133.09" y1="47.1" x2="133.09" y2="50.35"/>
	<line fill="none" stroke="#000000" stroke-width="0.1" stroke-miterlimit="3.8637" x1="132.44" y1="47.1" x2="132.44" y2="50.35"/>
	
		<line fill="none" stroke="#000000" stroke-width="0.2" stroke-miterlimit="3.8637" x1="136.96" y1="123.01" x2="131.91" y2="123.01"/>
	
		<line fill="none" stroke="#000000" stroke-width="0.1" stroke-miterlimit="3.8637" x1="136.31" y1="123.01" x2="136.31" y2="119.76"/>
	
		<line fill="none" stroke="#000000" stroke-width="0.1" stroke-miterlimit="3.8637" x1="135.67" y1="123.01" x2="135.67" y2="119.76"/>
	
		<line fill="none" stroke="#000000" stroke-width="0.1" stroke-miterlimit="3.8637" x1="135.02" y1="123.01" x2="135.02" y2="119.76"/>
	
		<line fill="none" stroke="#000000" stroke-width="0.1" stroke-miterlimit="3.8637" x1="134.38" y1="123.01" x2="134.38" y2="119.76"/>
	
		<line fill="none" stroke="#000000" stroke-width="0.1" stroke-miterlimit="3.8637" x1="133.73" y1="123.01" x2="133.73" y2="119.76"/>
	
		<line fill="none" stroke="#000000" stroke-width="0.1" stroke-miterlimit="3.8637" x1="133.09" y1="123.01" x2="133.09" y2="119.76"/>
	
		<line fill="none" stroke="#000000" stroke-width="0.1" stroke-miterlimit="3.8637" x1="132.44" y1="123.01" x2="132.44" y2="119.76"/>
	<g>
		<polyline fill="none" stroke="#000000" stroke-width="0.1" stroke-miterlimit="3.8637" points="185.56,99.48 176.67,99.48 
			174.47,99.18 172.33,98.25 170.67,96.72 169.48,94.84 168.87,92.55 169.05,90.35 169.97,88.06 168.39,87.27 168.14,87.76 
			169.73,88.52 		"/>
		<polyline fill="none" stroke="#000000" stroke-width="0.1" stroke-miterlimit="3.8637" points="185.01,99.49 185.01,101.13 
			185.56,101.13 185.56,99.21 		"/>
		<polyline fill="none" stroke="#000000" stroke-width="0.1" stroke-miterlimit="3.8637" points="182.75,99.51 182.75,101.13 
			182.23,101.13 182.23,99.48 		"/>
		<polyline fill="none" stroke="#000000" stroke-width="0.1" stroke-miterlimit="3.8637" points="179.9,99.51 179.9,101.13 
			179.38,101.13 179.38,99.48 		"/>
		<polyline fill="none" stroke="#000000" stroke-width="0.1" stroke-miterlimit="3.8637" points="176.93,99.51 176.93,101.13 
			176.41,101.13 176.41,99.48 		"/>
		<polyline fill="none" stroke="#000000" stroke-width="0.1" stroke-miterlimit="3.8637" points="174.71,99.27 174.23,100.83 
			173.72,100.64 174.21,99.07 		"/>
		<polyline fill="none" stroke="#000000" stroke-width="0.1" stroke-miterlimit="3.8637" points="172.59,98.36 171.69,99.74 
			171.25,99.48 172.17,98.13 		"/>
		<polyline fill="none" stroke="#000000" stroke-width="0.1" stroke-miterlimit="3.8637" points="170.53,96.52 169.21,97.56 
			169.55,97.98 170.81,96.91 		"/>
		<polyline fill="none" stroke="#000000" stroke-width="0.1" stroke-miterlimit="3.8637" points="169.64,95.11 168.11,95.79 
			167.89,95.29 169.45,94.63 		"/>
		<polyline fill="none" stroke="#000000" stroke-width="0.1" stroke-miterlimit="3.8637" points="168.92,92.72 167.31,93.03 
			167.24,92.49 168.84,92.26 		"/>
		<polyline fill="none" stroke="#000000" stroke-width="0.1" stroke-miterlimit="3.8637" points="169.07,90.59 167.37,90.34 
			167.48,89.8 169.07,90.11 		"/>
		
			<line fill="none" stroke="#000000" stroke-width="0.1" stroke-miterlimit="3.8637" x1="169.11" y1="88.17" x2="168.49" y2="89.88"/>
		
			<line fill="none" stroke="#000000" stroke-width="0.1" stroke-miterlimit="3.8637" x1="168.37" y1="90.54" x2="168.33" y2="92.33"/>
		
			<line fill="none" stroke="#000000" stroke-width="0.1" stroke-miterlimit="3.8637" x1="168.37" y1="92.9" x2="168.85" y2="94.82"/>
		
			<line fill="none" stroke="#000000" stroke-width="0.1" stroke-miterlimit="3.8637" x1="169.04" y1="95.38" x2="170.03" y2="96.84"/>
		
			<line fill="none" stroke="#000000" stroke-width="0.1" stroke-miterlimit="3.8637" x1="170.44" y1="97.29" x2="171.84" y2="98.52"/>
		
			<line fill="none" stroke="#000000" stroke-width="0.1" stroke-miterlimit="3.8637" x1="172.29" y1="98.88" x2="174.01" y2="99.68"/>
		
			<line fill="none" stroke="#000000" stroke-width="0.1" stroke-miterlimit="3.8637" x1="174.63" y1="99.84" x2="176.33" y2="100.1"/>
		<line fill="none" stroke="#000000" stroke-width="0.1" stroke-miterlimit="3.8637" x1="177" y1="100.1" x2="179.35" y2="100.1"/>
		
			<line fill="none" stroke="#000000" stroke-width="0.1" stroke-miterlimit="3.8637" x1="179.95" y1="100.1" x2="182.23" y2="100.1"/>
		
			<line fill="none" stroke="#000000" stroke-width="0.1" stroke-miterlimit="3.8637" x1="182.77" y1="100.1" x2="185.01" y2="100.1"/>
		
			<line fill="none" stroke="#000000" stroke-width="0.1" stroke-miterlimit="3.8637" x1="185.01" y1="100.97" x2="182.7" y2="100.97"/>
		
			<line fill="none" stroke="#000000" stroke-width="0.1" stroke-miterlimit="3.8637" x1="182.21" y1="100.97" x2="179.91" y2="100.97"/>
		
			<line fill="none" stroke="#000000" stroke-width="0.1" stroke-miterlimit="3.8637" x1="179.35" y1="100.97" x2="176.93" y2="100.97"/>
		
			<line fill="none" stroke="#000000" stroke-width="0.1" stroke-miterlimit="3.8637" x1="176.37" y1="100.97" x2="174.31" y2="100.7"/>
		
			<line fill="none" stroke="#000000" stroke-width="0.1" stroke-miterlimit="3.8637" x1="173.74" y1="100.59" x2="171.77" y2="99.62"/>
		
			<line fill="none" stroke="#000000" stroke-width="0.1" stroke-miterlimit="3.8637" x1="171.29" y1="99.32" x2="169.65" y2="97.86"/>
		
			<line fill="none" stroke="#000000" stroke-width="0.1" stroke-miterlimit="3.8637" x1="169.31" y1="97.43" x2="168.25" y2="95.72"/>
		
			<line fill="none" stroke="#000000" stroke-width="0.1" stroke-miterlimit="3.8637" x1="167.98" y1="95.21" x2="167.38" y2="93.03"/>
		
			<line fill="none" stroke="#000000" stroke-width="0.1" stroke-miterlimit="3.8637" x1="167.32" y1="92.48" x2="167.43" y2="90.4"/>
		
			<line fill="none" stroke="#000000" stroke-width="0.1" stroke-miterlimit="3.8637" x1="167.55" y1="89.79" x2="168.24" y2="87.86"/>
	</g>
	<polyline fill="none" stroke="#000000" stroke-width="0.2" stroke-miterlimit="3.8637" points="188.98,106.57 188.98,111.04 
		188.17,111.04 188.17,108.94 188.92,108.94 	"/>
	<path fill="none" stroke="#000000" stroke-width="0.2" stroke-miterlimit="3.8637" d="M188.98,110.06c0,0,0.96,0.12,2.12-0.14
		c1.16-0.26,1.52-0.45,1.52-0.45l0.19,0.51c0,0-0.87,0.26-1.62,0.44c-0.75,0.18-1.89,0.13-1.89,0.13v0.46"/>
	<path fill="none" stroke="#000000" stroke-width="0.2" stroke-miterlimit="3.8637" d="M203.92,103.75c0,0-0.37-0.02-0.97,0.06
		c-0.59,0.08-0.95,0.15-0.95,0.15l0.1,0.52c0,0,0.49-0.08,0.91-0.15c0.42-0.08,0.91-0.03,0.91-0.03"/>
	<path fill="none" stroke="#000000" stroke-width="0.2" stroke-miterlimit="3.8637" d="M224.93,108.02h-8.24v-1.09h-0.2v0.45h-2.92
		v-0.45h-1.33l-4.45,2.54l-0.75,1.11l0.82,0.57l1.17-1.64l2.3,1.62l-1.07,1.63l0.69,0.49c0,0,2.01-3.07,6.11-3.07
		c2.59,0,4.16,1.32,4.16,1.32l1.02-1.12l1.16,0l0.88,0.97l0.07,1.15l-1.14,1.04c0,0,0.82,1.06,1.03,2.52
		c0.27,1.88,0.13,3.02,0.13,3.02h0.55"/>
	<path fill="none" stroke="#000000" stroke-width="0.2" stroke-miterlimit="3.8637" d="M221.11,117.53c0,2.25-1.83,4.08-4.08,4.08
		c-2.25,0-4.08-1.83-4.08-4.08c0-2.25,1.83-4.08,4.08-4.08C219.29,113.45,221.11,115.28,221.11,117.53z"/>
	<path fill="none" stroke="#000000" stroke-width="0.2" stroke-miterlimit="3.8637" d="M212.8,114.23c0.99-1.26,2.51-2.09,4.23-2.09
		c2.98,0,5.39,2.41,5.39,5.39c0,0.39-0.12,1.13-0.12,1.13l1.4,0.29c0.1-0.46,0.15-0.93,0.15-1.42c0-3.77-3.06-6.83-6.83-6.83
		c-2.19,0-4.13,1.04-5.38,2.64L212.8,114.23z"/>
	<path fill="none" stroke="#000000" stroke-width="0.2" stroke-miterlimit="3.8637" d="M211,113.32c1.33-1.9,3.54-3.15,6.04-3.15
		c4.07,0,7.36,3.3,7.36,7.36c0,0.54-0.06,1.06-0.17,1.57"/>
	
		<line fill="none" stroke="#000000" stroke-width="0.2" stroke-miterlimit="3.8637" x1="214.06" y1="112.97" x2="212.98" y2="111.37"/>
	
		<line fill="none" stroke="#000000" stroke-width="0.2" stroke-miterlimit="3.8637" x1="211.14" y1="112.96" x2="212.8" y2="114.23"/>
	
		<line fill="none" stroke="#000000" stroke-width="0.2" stroke-miterlimit="3.8637" x1="224.19" y1="119.03" x2="222.31" y2="118.66"/>
	
		<line fill="none" stroke="#000000" stroke-width="0.2" stroke-miterlimit="3.8637" x1="215.75" y1="112.3" x2="215.26" y2="110.39"/>
	
		<line fill="none" stroke="#000000" stroke-width="0.2" stroke-miterlimit="3.8637" x1="217.57" y1="112.12" x2="217.75" y2="110.24"/>
	
		<line fill="none" stroke="#000000" stroke-width="0.2" stroke-miterlimit="3.8637" x1="219.26" y1="112.57" x2="220.05" y2="110.82"/>
	
		<line fill="none" stroke="#000000" stroke-width="0.2" stroke-miterlimit="3.8637" x1="220.76" y1="113.64" x2="222.12" y2="112.21"/>
	
		<line fill="none" stroke="#000000" stroke-width="0.2" stroke-miterlimit="3.8637" x1="221.88" y1="115.06" x2="223.62" y2="114.2"/>
	
		<line fill="none" stroke="#000000" stroke-width="0.2" stroke-miterlimit="3.8637" x1="222.42" y1="116.81" x2="224.31" y2="116.54"/>
	
		<line fill="none" stroke="#000000" stroke-width="0.1" stroke-miterlimit="3.8637" x1="212.23" y1="77.58" x2="212.23" y2="81.32"/>
	
		<line fill="none" stroke="#000000" stroke-width="0.1" stroke-miterlimit="3.8637" x1="211.57" y1="77.58" x2="211.57" y2="81.32"/>
	
		<line fill="none" stroke="#000000" stroke-width="0.1" stroke-miterlimit="3.8637" x1="210.91" y1="77.58" x2="210.91" y2="81.32"/>
	
		<line fill="none" stroke="#000000" stroke-width="0.1" stroke-miterlimit="3.8637" x1="210.25" y1="77.58" x2="210.25" y2="81.32"/>
	
		<line fill="none" stroke="#000000" stroke-width="0.1" stroke-miterlimit="3.8637" x1="209.59" y1="80.06" x2="209.59" y2="81.32"/>
	<polyline fill="none" stroke="#000000" stroke-width="0.2" stroke-miterlimit="3.8637" points="210.23,77.65 209.23,81.32 
		212.23,81.32 212.23,88.8 209.23,88.8 210.23,92.47 	"/>
	<line fill="none" stroke="#000000" stroke-width="0.1" stroke-miterlimit="3.8637" x1="212.23" y1="92.54" x2="212.23" y2="88.8"/>
	<line fill="none" stroke="#000000" stroke-width="0.1" stroke-miterlimit="3.8637" x1="211.57" y1="92.54" x2="211.57" y2="88.8"/>
	<line fill="none" stroke="#000000" stroke-width="0.1" stroke-miterlimit="3.8637" x1="210.91" y1="92.54" x2="210.91" y2="88.8"/>
	<line fill="none" stroke="#000000" stroke-width="0.1" stroke-miterlimit="3.8637" x1="210.25" y1="92.54" x2="210.25" y2="88.8"/>
	<line fill="none" stroke="#000000" stroke-width="0.1" stroke-miterlimit="3.8637" x1="209.59" y1="90.06" x2="209.59" y2="88.8"/>
	<path fill="none" stroke="#000000" stroke-width="0.2" stroke-miterlimit="3.8637" d="M224.93,102.51h-2.18V91.23h0.95v-1.88h2.42
		v1.16h4.35v-4.76h-4.35v1.16h-1.59v-0.88c0,0-0.43-0.27-0.43-0.97s0.5-0.98,0.5-0.98v-0.75h1.52v1.03h4.35v-4.76h-4.35v1.16h-2.42
		v-1.88h-0.88V67.54h2.11"/>
	<polyline fill="none" stroke="#000000" stroke-width="0.2" stroke-miterlimit="3.8637" points="225.01,76.58 233.42,76.58 
		233.42,93.49 224.93,93.49 	"/>
	
		<line fill="none" stroke="#000000" stroke-width="0.2" stroke-miterlimit="3.8637" x1="224.93" y1="91.79" x2="233.42" y2="91.79"/>
	
		<line fill="none" stroke="#000000" stroke-width="0.2" stroke-miterlimit="3.8637" x1="224.93" y1="78.33" x2="233.42" y2="78.33"/>
	<polyline fill="none" stroke="#000000" stroke-width="0.2" stroke-miterlimit="3.8637" points="233.42,85.1 236.28,85.1 
		236.28,93.49 233.42,93.49 	"/>
	<path fill="none" stroke="#000000" stroke-width="0.2" stroke-miterlimit="3.8637" d="M224.93,101.68h51.31
		c0,0,8.16-0.78,8.16-8.16c0-7.38,0-8.43,0-8.43v-0.03c0,0,0-1.05,0-8.43c0-7.38-8.16-8.16-8.16-8.16h-51.31"/>
	<line fill="none" stroke="#000000" stroke-width="0.2" stroke-miterlimit="3.8637" x1="248.9" y1="68.44" x2="248.9" y2="101.56"/>
	<path fill="none" stroke="#000000" stroke-width="0.2" stroke-miterlimit="3.8637" d="M248.9,76.52c0,0,26.17,0,28.83,0
		c3.83,0,6.67,4.09,6.67,5.83s0,2.71,0,2.71"/>
	<path fill="none" stroke="#000000" stroke-width="0.2" stroke-miterlimit="3.8637" d="M248.9,93.6c0,0,26.17,0,28.83,0
		c3.83,0,6.67-4.09,6.67-5.83c0-1.74,0-2.71,0-2.71"/>
	<g>
		<polyline fill="none" stroke="#000000" stroke-width="0.2" stroke-miterlimit="3.8637" points="230.09,52.05 235.87,52.05 
			235.87,52.28 230.01,52.28 		"/>
		<polyline fill="none" stroke="#000000" stroke-width="0.2" stroke-miterlimit="3.8637" points="228.88,55.5 235.87,55.5 
			235.87,55.27 228.97,55.27 		"/>
		<line fill="none" stroke="#000000" stroke-width="0.1" stroke-miterlimit="3.8637" x1="235.6" y1="52.28" x2="235.6" y2="55.27"/>
		
			<line fill="none" stroke="#000000" stroke-width="0.1" stroke-miterlimit="3.8637" x1="234.92" y1="52.28" x2="234.92" y2="55.27"/>
		
			<line fill="none" stroke="#000000" stroke-width="0.1" stroke-miterlimit="3.8637" x1="234.25" y1="52.28" x2="234.25" y2="55.27"/>
		
			<line fill="none" stroke="#000000" stroke-width="0.1" stroke-miterlimit="3.8637" x1="233.57" y1="52.28" x2="233.57" y2="55.27"/>
		<line fill="none" stroke="#000000" stroke-width="0.1" stroke-miterlimit="3.8637" x1="232.9" y1="52.28" x2="232.9" y2="55.27"/>
		
			<line fill="none" stroke="#000000" stroke-width="0.1" stroke-miterlimit="3.8637" x1="232.22" y1="52.28" x2="232.22" y2="55.27"/>
		
			<line fill="none" stroke="#000000" stroke-width="0.1" stroke-miterlimit="3.8637" x1="231.55" y1="52.28" x2="231.55" y2="55.27"/>
		
			<line fill="none" stroke="#000000" stroke-width="0.1" stroke-miterlimit="3.8637" x1="230.87" y1="52.28" x2="230.87" y2="55.27"/>
		<line fill="none" stroke="#000000" stroke-width="0.1" stroke-miterlimit="3.8637" x1="230.2" y1="52.28" x2="230.2" y2="55.27"/>
		
			<line fill="none" stroke="#000000" stroke-width="0.1" stroke-miterlimit="3.8637" x1="229.52" y1="53.77" x2="229.52" y2="55.27"/>
		
			<line fill="none" stroke="#000000" stroke-width="0.2" stroke-miterlimit="3.8637" x1="228.73" y1="55.78" x2="230.26" y2="51.66"/>
	</g>
	<g>
		<polyline fill="none" stroke="#000000" stroke-width="0.2" stroke-miterlimit="3.8637" points="230.09,118.04 235.87,118.04 
			235.87,117.81 230.01,117.81 		"/>
		<polyline fill="none" stroke="#000000" stroke-width="0.2" stroke-miterlimit="3.8637" points="228.88,114.58 235.87,114.58 
			235.87,114.81 228.97,114.81 		"/>
		
			<line fill="none" stroke="#000000" stroke-width="0.1" stroke-miterlimit="3.8637" x1="235.6" y1="117.81" x2="235.6" y2="114.81"/>
		
			<line fill="none" stroke="#000000" stroke-width="0.1" stroke-miterlimit="3.8637" x1="234.92" y1="117.81" x2="234.92" y2="114.81"/>
		
			<line fill="none" stroke="#000000" stroke-width="0.1" stroke-miterlimit="3.8637" x1="234.25" y1="117.81" x2="234.25" y2="114.81"/>
		
			<line fill="none" stroke="#000000" stroke-width="0.1" stroke-miterlimit="3.8637" x1="233.57" y1="117.81" x2="233.57" y2="114.81"/>
		
			<line fill="none" stroke="#000000" stroke-width="0.1" stroke-miterlimit="3.8637" x1="232.9" y1="117.81" x2="232.9" y2="114.81"/>
		
			<line fill="none" stroke="#000000" stroke-width="0.1" stroke-miterlimit="3.8637" x1="232.22" y1="117.81" x2="232.22" y2="114.81"/>
		
			<line fill="none" stroke="#000000" stroke-width="0.1" stroke-miterlimit="3.8637" x1="231.55" y1="117.81" x2="231.55" y2="114.81"/>
		
			<line fill="none" stroke="#000000" stroke-width="0.1" stroke-miterlimit="3.8637" x1="230.87" y1="117.81" x2="230.87" y2="114.81"/>
		
			<line fill="none" stroke="#000000" stroke-width="0.1" stroke-miterlimit="3.8637" x1="230.2" y1="117.81" x2="230.2" y2="114.81"/>
		
			<line fill="none" stroke="#000000" stroke-width="0.1" stroke-miterlimit="3.8637" x1="229.52" y1="116.31" x2="229.52" y2="114.81"/>
		
			<line fill="none" stroke="#000000" stroke-width="0.2" stroke-miterlimit="3.8637" x1="228.73" y1="114.31" x2="230.26" y2="118.42"/>
	</g>
	<path fill="none" stroke="#000000" stroke-width="0.2" stroke-miterlimit="3.8637" d="M280.43,69.88c0,0,0-4.31,0-8.39
		c0-4.08,3.42-6.6,7.1-6.6s38.61,0,38.61,0s0.11,1.95,1.12,2.84c1,0.9,2.32,0.9,2.32,0.9h3.11"/>
	
		<line fill="none" stroke="#000000" stroke-width="0.1" stroke-miterlimit="3.8637" x1="329.54" y1="55.64" x2="329.54" y2="58.63"/>
	
		<line fill="none" stroke="#000000" stroke-width="0.1" stroke-miterlimit="3.8637" x1="330.21" y1="55.64" x2="330.21" y2="58.63"/>
	
		<line fill="none" stroke="#000000" stroke-width="0.1" stroke-miterlimit="3.8637" x1="330.87" y1="55.64" x2="330.87" y2="58.63"/>
	
		<line fill="none" stroke="#000000" stroke-width="0.1" stroke-miterlimit="3.8637" x1="331.54" y1="55.64" x2="331.54" y2="58.63"/>
	<line fill="none" stroke="#000000" stroke-width="0.1" stroke-miterlimit="3.8637" x1="332.2" y1="55.64" x2="332.2" y2="58.63"/>
	
		<line fill="none" stroke="#000000" stroke-width="0.1" stroke-miterlimit="3.8637" x1="332.86" y1="55.64" x2="332.86" y2="57.99"/>
	<line fill="none" stroke="#000000" stroke-width="0.1" stroke-miterlimit="3.8637" x1="333.53" y1="55.64" x2="333.53" y2="56.1"/>
	
		<line fill="none" stroke="#000000" stroke-width="0.2" stroke-miterlimit="3.8637" x1="332.52" y1="58.98" x2="333.82" y2="55.27"/>
	<g>
		<path fill="none" stroke="#000000" stroke-width="0.2" stroke-miterlimit="3.8637" d="M280.43,100.22c0,0,0,4.31,0,8.39
			c0,4.08,3.42,6.6,7.1,6.6s38.61,0,38.61,0s0.11-1.95,1.12-2.84c1-0.9,2.32-0.9,2.32-0.9h3.11"/>
		<path fill="none" stroke="#000000" stroke-width="0.2" stroke-miterlimit="3.8637" d="M333.64,114.46h-4.35v0.73h14.95V96.68
			c0,0-8.19-2.7-8.19-11.64v0.02c0-8.94,8.19-11.64,8.19-11.64V54.9h-14.95v0.73h4.35"/>
		
			<line fill="none" stroke="#000000" stroke-width="0.1" stroke-miterlimit="3.8637" x1="329.54" y1="114.46" x2="329.54" y2="111.47"/>
		
			<line fill="none" stroke="#000000" stroke-width="0.1" stroke-miterlimit="3.8637" x1="330.21" y1="114.46" x2="330.21" y2="111.47"/>
		
			<line fill="none" stroke="#000000" stroke-width="0.1" stroke-miterlimit="3.8637" x1="330.87" y1="114.46" x2="330.87" y2="111.47"/>
		
			<line fill="none" stroke="#000000" stroke-width="0.1" stroke-miterlimit="3.8637" x1="331.54" y1="114.46" x2="331.54" y2="111.47"/>
		
			<line fill="none" stroke="#000000" stroke-width="0.1" stroke-miterlimit="3.8637" x1="332.2" y1="114.46" x2="332.2" y2="111.47"/>
		
			<line fill="none" stroke="#000000" stroke-width="0.1" stroke-miterlimit="3.8637" x1="332.86" y1="114.46" x2="332.86" y2="112.11"/>
		
			<line fill="none" stroke="#000000" stroke-width="0.1" stroke-miterlimit="3.8637" x1="333.53" y1="114.46" x2="333.53" y2="114"/>
		
			<line fill="none" stroke="#000000" stroke-width="0.2" stroke-miterlimit="3.8637" x1="332.52" y1="111.12" x2="333.82" y2="114.83"/>
	</g>
	<path fill="none" stroke="#000000" stroke-width="0.2" stroke-miterlimit="3.8637" d="M619.48,61.98h3.81c0,0,0.03-0.88-0.39-1.45
		c-0.89-1.24-2.66-2.66-6.66-2.66h-265.9v14.99c0,0,10.53,2.24,10.53,12.2"/>
	<path fill="none" stroke="#000000" stroke-width="0.2" stroke-miterlimit="3.8637" d="M620.6,104.65h2.7c0,0,0.53-3.01-3.2-3.01
		c-1.66,0-13.64,0.04-16.41,0.04c-3.29,0-7.61-3.15-7.61-3.15l5.6-4.32c-1.94-2.51-3.11-5.77-3.11-9.18l0,0c0-0.03,0,0.03,0,0
		c0-3.41,1.17-6.66,3.11-9.16l-5.6-4.32c0,0,4.32-3.15,7.61-3.15c2.77,0,14.75,0.04,16.41,0.04c3.73,0,3.2-3.01,3.2-3.01h-2.7"/>
	<path fill="none" stroke="#000000" stroke-width="0.2" stroke-miterlimit="3.8637" d="M619.48,108.11h3.81c0,0,0.03,0.88-0.39,1.45
		c-0.89,1.24-2.66,2.66-6.66,2.66h-265.9V97.23c0,0,10.53-2.24,10.53-12.2"/>
	<g>
		
			<line fill="none" stroke="#000000" stroke-width="0.1" stroke-miterlimit="3.8637" x1="623.01" y1="61.98" x2="623.01" y2="65.43"/>
		
			<line fill="none" stroke="#000000" stroke-width="0.1" stroke-miterlimit="3.8637" x1="622.36" y1="61.98" x2="622.36" y2="65.43"/>
		
			<line fill="none" stroke="#000000" stroke-width="0.1" stroke-miterlimit="3.8637" x1="621.71" y1="61.98" x2="621.71" y2="65.43"/>
		
			<line fill="none" stroke="#000000" stroke-width="0.1" stroke-miterlimit="3.8637" x1="621.06" y1="61.98" x2="621.06" y2="65.43"/>
		
			<line fill="none" stroke="#000000" stroke-width="0.1" stroke-miterlimit="3.8637" x1="620.41" y1="61.98" x2="620.41" y2="64.86"/>
		
			<line fill="none" stroke="#000000" stroke-width="0.1" stroke-miterlimit="3.8637" x1="619.76" y1="61.98" x2="619.76" y2="62.94"/>
		
			<line fill="none" stroke="#000000" stroke-width="0.2" stroke-miterlimit="3.8637" x1="619.39" y1="61.69" x2="620.69" y2="65.75"/>
	</g>
	<g>
		
			<line fill="none" stroke="#000000" stroke-width="0.1" stroke-miterlimit="3.8637" x1="623.01" y1="108.13" x2="623.01" y2="104.67"/>
		
			<line fill="none" stroke="#000000" stroke-width="0.1" stroke-miterlimit="3.8637" x1="622.36" y1="108.13" x2="622.36" y2="104.67"/>
		
			<line fill="none" stroke="#000000" stroke-width="0.1" stroke-miterlimit="3.8637" x1="621.71" y1="108.13" x2="621.71" y2="104.67"/>
		
			<line fill="none" stroke="#000000" stroke-width="0.1" stroke-miterlimit="3.8637" x1="621.06" y1="108.13" x2="621.06" y2="104.67"/>
		
			<line fill="none" stroke="#000000" stroke-width="0.1" stroke-miterlimit="3.8637" x1="620.41" y1="108.13" x2="620.41" y2="105.25"/>
		
			<line fill="none" stroke="#000000" stroke-width="0.1" stroke-miterlimit="3.8637" x1="619.76" y1="108.13" x2="619.76" y2="107.17"/>
		
			<line fill="none" stroke="#000000" stroke-width="0.2" stroke-miterlimit="3.8637" x1="619.39" y1="108.41" x2="620.69" y2="104.36"/>
	</g>
	<line fill="none" stroke="#000000" stroke-width="0.1" stroke-miterlimit="3.8637" x1="344.24" y1="71.5" x2="350.34" y2="71.5"/>
	
		<line fill="none" stroke="#000000" stroke-width="0.1" stroke-miterlimit="3.8637" x1="344.24" y1="70.26" x2="350.34" y2="70.26"/>
	
		<line fill="none" stroke="#000000" stroke-width="0.1" stroke-miterlimit="3.8637" x1="344.24" y1="69.02" x2="350.34" y2="69.02"/>
	
		<line fill="none" stroke="#000000" stroke-width="0.1" stroke-miterlimit="3.8637" x1="344.24" y1="67.78" x2="350.34" y2="67.78"/>
	
		<line fill="none" stroke="#000000" stroke-width="0.1" stroke-miterlimit="3.8637" x1="344.24" y1="66.55" x2="350.34" y2="66.55"/>
	
		<line fill="none" stroke="#000000" stroke-width="0.1" stroke-miterlimit="3.8637" x1="344.24" y1="65.31" x2="350.34" y2="65.31"/>
	
		<line fill="none" stroke="#000000" stroke-width="0.1" stroke-miterlimit="3.8637" x1="344.24" y1="64.07" x2="350.34" y2="64.07"/>
	
		<line fill="none" stroke="#000000" stroke-width="0.1" stroke-miterlimit="3.8637" x1="344.24" y1="62.83" x2="350.34" y2="62.83"/>
	
		<line fill="none" stroke="#000000" stroke-width="0.1" stroke-miterlimit="3.8637" x1="344.24" y1="61.59" x2="350.34" y2="61.59"/>
	
		<line fill="none" stroke="#000000" stroke-width="0.1" stroke-miterlimit="3.8637" x1="344.24" y1="60.35" x2="350.34" y2="60.35"/>
	
		<line fill="none" stroke="#000000" stroke-width="0.1" stroke-miterlimit="3.8637" x1="344.24" y1="59.12" x2="350.34" y2="59.12"/>
	
		<line fill="none" stroke="#000000" stroke-width="0.1" stroke-miterlimit="3.8637" x1="350.34" y1="57.88" x2="344.24" y2="57.88"/>
	
		<line fill="none" stroke="#000000" stroke-width="0.1" stroke-miterlimit="3.8637" x1="344.24" y1="56.64" x2="350.34" y2="56.64"/>
	<line fill="none" stroke="#000000" stroke-width="0.1" stroke-miterlimit="3.8637" x1="344.24" y1="55.4" x2="350.34" y2="55.4"/>
	
		<line fill="none" stroke="#000000" stroke-width="0.1" stroke-miterlimit="3.8637" x1="344.24" y1="114.72" x2="350.34" y2="114.72"/>
	
		<line fill="none" stroke="#000000" stroke-width="0.1" stroke-miterlimit="3.8637" x1="344.24" y1="113.48" x2="350.34" y2="113.48"/>
	
		<line fill="none" stroke="#000000" stroke-width="0.1" stroke-miterlimit="3.8637" x1="350.34" y1="112.24" x2="344.24" y2="112.24"/>
	<line fill="none" stroke="#000000" stroke-width="0.1" stroke-miterlimit="3.8637" x1="344.24" y1="111" x2="350.34" y2="111"/>
	
		<line fill="none" stroke="#000000" stroke-width="0.1" stroke-miterlimit="3.8637" x1="344.24" y1="109.77" x2="350.34" y2="109.77"/>
	
		<line fill="none" stroke="#000000" stroke-width="0.1" stroke-miterlimit="3.8637" x1="344.24" y1="108.53" x2="350.34" y2="108.53"/>
	
		<line fill="none" stroke="#000000" stroke-width="0.1" stroke-miterlimit="3.8637" x1="344.24" y1="107.29" x2="350.34" y2="107.29"/>
	
		<line fill="none" stroke="#000000" stroke-width="0.1" stroke-miterlimit="3.8637" x1="344.24" y1="106.05" x2="350.34" y2="106.05"/>
	
		<line fill="none" stroke="#000000" stroke-width="0.1" stroke-miterlimit="3.8637" x1="344.24" y1="104.81" x2="350.34" y2="104.81"/>
	
		<line fill="none" stroke="#000000" stroke-width="0.1" stroke-miterlimit="3.8637" x1="344.24" y1="103.58" x2="350.34" y2="103.58"/>
	
		<line fill="none" stroke="#000000" stroke-width="0.1" stroke-miterlimit="3.8637" x1="344.24" y1="102.34" x2="350.34" y2="102.34"/>
	
		<line fill="none" stroke="#000000" stroke-width="0.1" stroke-miterlimit="3.8637" x1="350.34" y1="101.1" x2="344.24" y2="101.1"/>
	
		<line fill="none" stroke="#000000" stroke-width="0.1" stroke-miterlimit="3.8637" x1="344.24" y1="99.86" x2="350.34" y2="99.86"/>
	
		<line fill="none" stroke="#000000" stroke-width="0.1" stroke-miterlimit="3.8637" x1="344.24" y1="98.62" x2="350.34" y2="98.62"/>
	
		<line fill="none" stroke="#000000" stroke-width="0.2" stroke-miterlimit="3.8637" x1="350.34" y1="112.08" x2="350.34" y2="115.07"/>
	
		<line fill="none" stroke="#000000" stroke-width="0.2" stroke-miterlimit="3.8637" x1="350.34" y1="55.03" x2="350.34" y2="57.88"/>
	<g>
		<path fill="none" stroke="#000000" stroke-width="0.1" stroke-miterlimit="3.8637" d="M501.38,81.81c-1.79,0-3.25,1.45-3.25,3.25
			c0,1.79,1.45,3.24,3.25,3.24c1.79,0,3.24-1.45,3.24-3.24C504.62,83.26,503.17,81.81,501.38,81.81z M501.38,87.78
			c-1.5,0-2.72-1.22-2.72-2.72c0-1.5,1.22-2.72,2.72-2.72c1.5,0,2.72,1.22,2.72,2.72C504.1,86.56,502.88,87.78,501.38,87.78z"/>
		<path fill="none" stroke="#000000" stroke-width="0.1" stroke-miterlimit="3.8637" d="M494.67,71.18c0,0.44-0.36,0.79-0.79,0.79
			c-0.44,0-0.79-0.35-0.79-0.79c0-0.44,0.36-0.79,0.79-0.79C494.32,70.39,494.67,70.74,494.67,71.18z"/>
		<path fill="none" stroke="#000000" stroke-width="0.1" stroke-miterlimit="3.8637" d="M509.64,71.18c0,0.44-0.36,0.79-0.79,0.79
			c-0.44,0-0.79-0.35-0.79-0.79c0-0.44,0.36-0.79,0.79-0.79C509.28,70.39,509.64,70.74,509.64,71.18z"/>
		<path fill="none" stroke="#000000" stroke-width="0.1" stroke-miterlimit="3.8637" d="M494.67,98.93c0,0.44-0.36,0.79-0.79,0.79
			c-0.44,0-0.79-0.36-0.79-0.79c0-0.44,0.36-0.79,0.79-0.79C494.32,98.14,494.67,98.5,494.67,98.93z"/>
		<path fill="none" stroke="#000000" stroke-width="0.1" stroke-miterlimit="3.8637" d="M509.64,98.93c0,0.44-0.36,0.79-0.79,0.79
			c-0.44,0-0.79-0.36-0.79-0.79c0-0.44,0.36-0.79,0.79-0.79C509.28,98.14,509.64,98.5,509.64,98.93z"/>
		<g>
			<path fill="#FFFFFF" stroke="#000000" stroke-width="0.1" stroke-miterlimit="3.8637" d="M503.03,87.74
				c-0.04-0.07-0.12-0.1-0.19-0.06l-0.16,0.09c-0.07,0.04-0.1,0.12-0.06,0.19l3.28,6.07c-1.36,0.69-2.89,1.09-4.52,1.09
				c-1.64,0-3.18-0.41-4.54-1.11l3.27-6.05c0.04-0.07,0.01-0.15-0.06-0.19l-0.16-0.09c-0.07-0.04-0.16-0.01-0.19,0.06l-3.28,6.07
				c-0.01-0.01-0.02-0.01-0.03-0.02c-0.03,0.09-0.07,0.17-0.1,0.26c0,0,0,0,0,0l-2.66,4.92c-0.04,0.07-0.01,0.15,0.06,0.19
				l0.16,0.09c0.07,0.04,0.16,0.01,0.19-0.06l0.88-1.63c1.94,1,4.13,1.57,6.46,1.57c2.32,0,4.51-0.57,6.43-1.56l0.88,1.62
				c0.04,0.07,0.12,0.09,0.19,0.06l0.16-0.09c0.07-0.04,0.1-0.12,0.06-0.19L503.03,87.74z M501.38,98.83
				c-2.28,0-4.42-0.56-6.31-1.54l1.64-3.04c1.4,0.72,2.98,1.14,4.67,1.14c1.68,0,3.25-0.42,4.65-1.13l1.64,3.03
				C505.78,98.27,503.64,98.83,501.38,98.83z"/>
			<path fill="#FFFFFF" stroke="#000000" stroke-width="0.1" stroke-miterlimit="3.8637" d="M499.69,82.43
				c0.04,0.07,0.12,0.1,0.19,0.06l0.16-0.09c0.07-0.04,0.1-0.12,0.06-0.19l-3.29-6.1c1.37-0.7,2.92-1.12,4.57-1.12
				c1.64,0,3.18,0.41,4.54,1.1l-3.3,6.11c-0.04,0.07-0.01,0.15,0.06,0.19l0.16,0.09c0.07,0.04,0.16,0.01,0.19-0.06l6.06-11.23
				c0.04-0.07,0.01-0.16-0.06-0.19l-0.16-0.09c-0.07-0.04-0.16-0.01-0.19,0.06l-0.86,1.59c-1.93-1-4.12-1.58-6.45-1.58
				c-2.34,0-4.54,0.58-6.48,1.58l-0.86-1.59c-0.04-0.07-0.12-0.09-0.19-0.06l-0.16,0.09c-0.07,0.04-0.1,0.12-0.06,0.19L499.69,82.43
				z M501.38,71.28c2.28,0,4.42,0.56,6.31,1.54l-1.63,3.03c-1.41-0.72-2.99-1.13-4.68-1.13c-1.7,0-3.28,0.43-4.7,1.15l-1.64-3.03
				C496.94,71.85,499.09,71.28,501.38,71.28z"/>
		</g>
	</g>
	<g>
		<path fill="none" stroke="#000000" stroke-width="0.1" stroke-miterlimit="3.8637" d="M557.42,85.01c0,5.2-1.84,8.76-1.84,8.76
			l11.88,5.29c0,0,3.01-5.93,3.01-14.05v0.04c0-8.12-3.01-14.05-3.01-14.05l-11.88,5.29c0,0,1.84,3.56,1.84,8.76V85.01z"/>
		<line fill="none" stroke="#000000" stroke-width="0.1" stroke-miterlimit="3.8637" x1="556.42" y1="78.5" x2="568.8" y2="74.41"/>
		
			<line fill="none" stroke="#000000" stroke-width="0.1" stroke-miterlimit="3.8637" x1="556.97" y1="80.62" x2="569.68" y2="77.89"/>
		
			<line fill="none" stroke="#000000" stroke-width="0.1" stroke-miterlimit="3.8637" x1="557.34" y1="82.8" x2="570.28" y2="81.48"/>
		
			<line fill="none" stroke="#000000" stroke-width="0.1" stroke-miterlimit="3.8637" x1="556.42" y1="91.51" x2="568.8" y2="95.59"/>
		
			<line fill="none" stroke="#000000" stroke-width="0.1" stroke-miterlimit="3.8637" x1="556.97" y1="89.38" x2="569.68" y2="92.11"/>
		
			<line fill="none" stroke="#000000" stroke-width="0.1" stroke-miterlimit="3.8637" x1="557.34" y1="87.2" x2="570.28" y2="88.52"/>
		
			<line fill="none" stroke="#000000" stroke-width="0.1" stroke-miterlimit="3.8637" x1="557.42" y1="85.05" x2="570.46" y2="85.05"/>
	</g>
	<g>
		<polyline fill="none" stroke="#000000" stroke-width="0.2" stroke-miterlimit="3.8637" points="587.28,45.89 587.28,48.82 
			626.53,48.82 627.64,52.28 631.25,52.28 		"/>
		
			<line fill="none" stroke="#000000" stroke-width="0.2" stroke-miterlimit="3.8637" x1="621.13" y1="52.28" x2="627.64" y2="52.28"/>
		
			<line fill="none" stroke="#000000" stroke-width="0.1" stroke-miterlimit="3.8637" x1="621.84" y1="52.28" x2="621.84" y2="48.83"/>
		
			<line fill="none" stroke="#000000" stroke-width="0.1" stroke-miterlimit="3.8637" x1="622.49" y1="52.28" x2="622.49" y2="48.83"/>
		
			<line fill="none" stroke="#000000" stroke-width="0.1" stroke-miterlimit="3.8637" x1="623.15" y1="52.28" x2="623.15" y2="48.83"/>
		
			<line fill="none" stroke="#000000" stroke-width="0.1" stroke-miterlimit="3.8637" x1="623.81" y1="52.28" x2="623.81" y2="48.83"/>
		
			<line fill="none" stroke="#000000" stroke-width="0.1" stroke-miterlimit="3.8637" x1="624.46" y1="52.28" x2="624.46" y2="48.83"/>
		
			<line fill="none" stroke="#000000" stroke-width="0.1" stroke-miterlimit="3.8637" x1="625.12" y1="52.28" x2="625.12" y2="48.83"/>
		
			<line fill="none" stroke="#000000" stroke-width="0.1" stroke-miterlimit="3.8637" x1="625.78" y1="52.28" x2="625.78" y2="48.83"/>
		
			<line fill="none" stroke="#000000" stroke-width="0.1" stroke-miterlimit="3.8637" x1="626.43" y1="52.28" x2="626.43" y2="48.83"/>
		
			<line fill="none" stroke="#000000" stroke-width="0.1" stroke-miterlimit="3.8637" x1="627.09" y1="52.28" x2="627.09" y2="50.56"/>
		
			<line fill="none" stroke="#000000" stroke-width="0.1" stroke-miterlimit="3.8637" x1="621.18" y1="52.28" x2="621.18" y2="48.83"/>
	</g>
	<g>
		<polyline fill="none" stroke="#000000" stroke-width="0.2" stroke-miterlimit="3.8637" points="587.28,124.23 587.28,121.29 
			626.53,121.29 627.64,117.84 631.25,117.84 		"/>
		
			<line fill="none" stroke="#000000" stroke-width="0.2" stroke-miterlimit="3.8637" x1="621.13" y1="117.84" x2="627.64" y2="117.84"/>
		
			<line fill="none" stroke="#000000" stroke-width="0.1" stroke-miterlimit="3.8637" x1="621.84" y1="117.84" x2="621.84" y2="121.29"/>
		
			<line fill="none" stroke="#000000" stroke-width="0.1" stroke-miterlimit="3.8637" x1="622.49" y1="117.84" x2="622.49" y2="121.29"/>
		
			<line fill="none" stroke="#000000" stroke-width="0.1" stroke-miterlimit="3.8637" x1="623.15" y1="117.84" x2="623.15" y2="121.29"/>
		
			<line fill="none" stroke="#000000" stroke-width="0.1" stroke-miterlimit="3.8637" x1="623.81" y1="117.84" x2="623.81" y2="121.29"/>
		
			<line fill="none" stroke="#000000" stroke-width="0.1" stroke-miterlimit="3.8637" x1="624.46" y1="117.84" x2="624.46" y2="121.29"/>
		
			<line fill="none" stroke="#000000" stroke-width="0.1" stroke-miterlimit="3.8637" x1="625.12" y1="117.84" x2="625.12" y2="121.29"/>
		
			<line fill="none" stroke="#000000" stroke-width="0.1" stroke-miterlimit="3.8637" x1="625.78" y1="117.84" x2="625.78" y2="121.29"/>
		
			<line fill="none" stroke="#000000" stroke-width="0.1" stroke-miterlimit="3.8637" x1="626.43" y1="117.84" x2="626.43" y2="121.29"/>
		
			<line fill="none" stroke="#000000" stroke-width="0.1" stroke-miterlimit="3.8637" x1="627.09" y1="117.84" x2="627.09" y2="119.56"/>
		
			<line fill="none" stroke="#000000" stroke-width="0.1" stroke-miterlimit="3.8637" x1="621.18" y1="117.84" x2="621.18" y2="121.29"/>
	</g>
	<polyline fill="none" stroke="#000000" stroke-width="0.2" stroke-miterlimit="3.8637" points="588.57,45.89 588.57,47.33 
		629.37,47.33 629.37,45.89 	"/>
	<polyline fill="none" stroke="#000000" stroke-width="0.2" stroke-miterlimit="3.8637" points="588.57,124.23 588.57,122.79 
		629.37,122.79 629.37,124.23 	"/>
	<path fill="none" stroke="#000000" stroke-width="0.2" stroke-miterlimit="3.8637" d="M601.33,76.35h31.35v2.19h-1.32V78h-5.44v3.4
		h5.44v-0.61h1.32v0.41c0,0,0.5,0.4,0.5,1.32c0,0.92-0.5,1.02-0.5,1.02v0.44h-1.32v-0.61h-5.44v3.4h5.44v-0.61h1.32v0.44
		c0,0,0.62,0.38,0.62,1.16c0,0.78-0.62,1.18-0.62,1.18v0.41h-1.32v-0.61h-5.44v3.4h5.44v-0.61h1.32v2.26l-31.35-0.04"/>
	
		<line fill="none" stroke="#000000" stroke-width="0.2" stroke-miterlimit="3.8637" x1="624.18" y1="76.39" x2="624.18" y2="93.78"/>
	<path fill="none" stroke="#000000" stroke-width="0.2" stroke-miterlimit="3.8637" d="M631.25,50.35h105.28
		c0,0,1.93,7.25,2.49,10.23c0.56,2.98,1.65,12.06,1.65,12.06H631.25V45.89"/>
	
		<line fill="none" stroke="#000000" stroke-width="0.2" stroke-miterlimit="3.8637" x1="639.24" y1="45.89" x2="639.24" y2="72.67"/>
	
		<line fill="none" stroke="#000000" stroke-width="0.2" stroke-miterlimit="3.8637" x1="647.22" y1="45.87" x2="647.22" y2="72.65"/>
	
		<line fill="none" stroke="#000000" stroke-width="0.2" stroke-miterlimit="3.8637" x1="655.21" y1="45.89" x2="655.21" y2="72.67"/>
	
		<line fill="none" stroke="#000000" stroke-width="0.2" stroke-miterlimit="3.8637" x1="663.19" y1="45.98" x2="663.19" y2="72.76"/>
	
		<line fill="none" stroke="#000000" stroke-width="0.2" stroke-miterlimit="3.8637" x1="671.18" y1="45.89" x2="671.18" y2="72.67"/>
	
		<line fill="none" stroke="#000000" stroke-width="0.2" stroke-miterlimit="3.8637" x1="679.16" y1="45.89" x2="679.16" y2="72.67"/>
	
		<line fill="none" stroke="#000000" stroke-width="0.2" stroke-miterlimit="3.8637" x1="687.15" y1="45.89" x2="687.15" y2="72.67"/>
	
		<line fill="none" stroke="#000000" stroke-width="0.2" stroke-miterlimit="3.8637" x1="695.13" y1="45.89" x2="695.13" y2="72.67"/>
	
		<line fill="none" stroke="#000000" stroke-width="0.2" stroke-miterlimit="3.8637" x1="703.12" y1="45.89" x2="703.12" y2="72.67"/>
	<line fill="none" stroke="#000000" stroke-width="0.2" stroke-miterlimit="3.8637" x1="711.1" y1="45.89" x2="711.1" y2="72.67"/>
	
		<line fill="none" stroke="#000000" stroke-width="0.2" stroke-miterlimit="3.8637" x1="719.09" y1="45.89" x2="719.09" y2="72.67"/>
	
		<line fill="none" stroke="#000000" stroke-width="0.2" stroke-miterlimit="3.8637" x1="727.07" y1="45.89" x2="727.07" y2="72.67"/>
	
		<line fill="none" stroke="#000000" stroke-width="0.2" stroke-miterlimit="3.8637" x1="735.06" y1="45.89" x2="735.06" y2="72.67"/>
	<path fill="none" stroke="#000000" stroke-width="0.2" stroke-miterlimit="3.8637" d="M631.25,119.77h105.28
		c0,0,1.93-7.25,2.49-10.23c0.56-2.98,1.65-12.06,1.65-12.06H631.25v26.75"/>
	
		<line fill="none" stroke="#000000" stroke-width="0.2" stroke-miterlimit="3.8637" x1="639.24" y1="124.23" x2="639.24" y2="97.45"/>
	
		<line fill="none" stroke="#000000" stroke-width="0.2" stroke-miterlimit="3.8637" x1="647.22" y1="124.23" x2="647.22" y2="97.46"/>
	
		<line fill="none" stroke="#000000" stroke-width="0.2" stroke-miterlimit="3.8637" x1="655.21" y1="124.23" x2="655.21" y2="97.45"/>
	
		<line fill="none" stroke="#000000" stroke-width="0.2" stroke-miterlimit="3.8637" x1="663.19" y1="124.23" x2="663.19" y2="97.36"/>
	
		<line fill="none" stroke="#000000" stroke-width="0.2" stroke-miterlimit="3.8637" x1="671.18" y1="124.23" x2="671.18" y2="97.45"/>
	
		<line fill="none" stroke="#000000" stroke-width="0.2" stroke-miterlimit="3.8637" x1="679.16" y1="124.23" x2="679.16" y2="97.45"/>
	
		<line fill="none" stroke="#000000" stroke-width="0.2" stroke-miterlimit="3.8637" x1="687.15" y1="124.23" x2="687.15" y2="97.45"/>
	
		<line fill="none" stroke="#000000" stroke-width="0.2" stroke-miterlimit="3.8637" x1="695.13" y1="124.23" x2="695.13" y2="97.45"/>
	
		<line fill="none" stroke="#000000" stroke-width="0.2" stroke-miterlimit="3.8637" x1="703.12" y1="124.23" x2="703.12" y2="97.45"/>
	<line fill="none" stroke="#000000" stroke-width="0.2" stroke-miterlimit="3.8637" x1="711.1" y1="124.23" x2="711.1" y2="97.45"/>
	
		<line fill="none" stroke="#000000" stroke-width="0.2" stroke-miterlimit="3.8637" x1="719.09" y1="124.23" x2="719.09" y2="97.45"/>
	
		<line fill="none" stroke="#000000" stroke-width="0.2" stroke-miterlimit="3.8637" x1="727.07" y1="124.23" x2="727.07" y2="97.45"/>
	
		<line fill="none" stroke="#000000" stroke-width="0.2" stroke-miterlimit="3.8637" x1="735.06" y1="124.23" x2="735.06" y2="97.45"/>
	<polygon fill="none" stroke="#000000" stroke-width="0.2" stroke-miterlimit="3.8637" points="636.77,76.35 636.77,77.58 
		651.91,77.58 651.91,92.54 636.65,92.54 636.65,93.86 660.52,93.86 660.52,91.73 654.24,91.73 654.24,90.16 652.39,90.16 
		652.39,79.16 660.09,79.16 660.09,76.35 	"/>
	<polyline fill="none" stroke="#000000" stroke-width="0.2" stroke-miterlimit="3.8637" points="659.09,79.11 659.09,86.5 
		655.41,86.5 	"/>
	
		<line fill="none" stroke="#000000" stroke-width="0.2" stroke-miterlimit="3.8637" x1="655.41" y1="86.97" x2="655.41" y2="84.95"/>
	
		<line fill="none" stroke="#000000" stroke-width="0.2" stroke-miterlimit="3.8637" x1="652.93" y1="86.97" x2="652.93" y2="84.32"/>
	<line fill="none" stroke="#000000" stroke-width="0.2" stroke-miterlimit="3.8637" x1="652.96" y1="86.5" x2="652.47" y2="86.5"/>
	
		<line fill="none" stroke="#000000" stroke-width="0.1" stroke-miterlimit="3.8637" x1="652.93" y1="86.15" x2="655.41" y2="86.15"/>
	<line fill="none" stroke="#000000" stroke-width="0.1" stroke-miterlimit="3.8637" x1="652.93" y1="85.6" x2="655.41" y2="85.6"/>
	
		<line fill="none" stroke="#000000" stroke-width="0.1" stroke-miterlimit="3.8637" x1="652.93" y1="85.06" x2="655.41" y2="85.06"/>
	
		<line fill="none" stroke="#000000" stroke-width="0.2" stroke-miterlimit="3.8637" x1="652.66" y1="84.27" x2="655.74" y2="85.06"/>
	<polyline fill="none" stroke="#000000" stroke-width="0.2" stroke-miterlimit="3.8637" points="669.59,76.3 669.59,88.92 
		663.68,88.92 	"/>
	<path fill="none" stroke="#000000" stroke-width="0.2" stroke-miterlimit="3.8637" d="M713.2,93.49"/>
	<polyline fill="none" stroke="#000000" stroke-width="0.2" stroke-miterlimit="3.8637" points="681.94,93.86 667.41,93.86 
		667.41,93.48 669.59,93.48 669.59,89.28 664.03,89.28 664.03,93.5 664.67,93.5 664.68,93.86 663.66,93.86 663.66,87.25 
		665.26,87.25 665.26,87.66 668.52,87.66 668.52,84.39 665.26,84.39 665.26,84.8 663.74,84.8 663.74,81.1 665.26,81.1 665.26,81.51 
		668.52,81.51 668.52,78.25 665.26,78.25 665.26,78.65 663.79,78.65 663.79,76.3 713.34,76.3 713.34,77.31 705.82,77.31 
		705.82,92.75 713.2,92.75 713.2,93.86 684.67,93.86 	"/>
	<polyline fill="none" stroke="#000000" stroke-width="0.2" stroke-miterlimit="3.8637" points="640.56,77.58 640.56,77.92 
		642.56,77.92 	"/>
	<polyline fill="none" stroke="#000000" stroke-width="0.2" stroke-miterlimit="3.8637" points="643.44,81.18 640.56,81.18 
		640.56,88.94 643.48,88.94 	"/>
	<polyline fill="none" stroke="#000000" stroke-width="0.2" stroke-miterlimit="3.8637" points="642.56,92.2 640.56,92.2 
		640.56,92.52 	"/>
	
		<line fill="none" stroke="#000000" stroke-width="0.2" stroke-miterlimit="3.8637" x1="643.51" y1="81.46" x2="642.48" y2="77.58"/>
	
		<line fill="none" stroke="#000000" stroke-width="0.2" stroke-miterlimit="3.8637" x1="643.51" y1="88.67" x2="642.45" y2="92.52"/>
	
		<line fill="none" stroke="#000000" stroke-width="0.1" stroke-miterlimit="3.8637" x1="640.56" y1="77.92" x2="640.56" y2="81.18"/>
	
		<line fill="none" stroke="#000000" stroke-width="0.1" stroke-miterlimit="3.8637" x1="641.01" y1="77.92" x2="641.01" y2="81.18"/>
	
		<line fill="none" stroke="#000000" stroke-width="0.1" stroke-miterlimit="3.8637" x1="641.72" y1="77.92" x2="641.72" y2="81.18"/>
	
		<line fill="none" stroke="#000000" stroke-width="0.1" stroke-miterlimit="3.8637" x1="642.42" y1="77.92" x2="642.42" y2="81.18"/>
	<line fill="none" stroke="#000000" stroke-width="0.1" stroke-miterlimit="3.8637" x1="641.01" y1="88.94" x2="641.01" y2="92.2"/>
	
		<line fill="none" stroke="#000000" stroke-width="0.1" stroke-miterlimit="3.8637" x1="640.56" y1="88.96" x2="640.56" y2="92.22"/>
	<line fill="none" stroke="#000000" stroke-width="0.1" stroke-miterlimit="3.8637" x1="641.72" y1="88.94" x2="641.72" y2="92.2"/>
	<line fill="none" stroke="#000000" stroke-width="0.1" stroke-miterlimit="3.8637" x1="642.42" y1="88.94" x2="642.42" y2="92.2"/>
	<line fill="none" stroke="#000000" stroke-width="0.2" stroke-miterlimit="3.8637" x1="713.2" y1="92.75" x2="713.2" y2="80.26"/>
	<polyline fill="none" stroke="#000000" stroke-width="0.2" stroke-miterlimit="3.8637" points="747.9,93.81 717.21,93.81 
		717.21,76.26 747.9,76.26 	"/>
	<line fill="none" stroke="#000000" stroke-width="0.2" stroke-miterlimit="3.8637" x1="717.21" y1="85.04" x2="748.2" y2="85.04"/>
	<polyline fill="none" stroke="#000000" stroke-width="0.2" stroke-miterlimit="3.8637" points="144.03,45.89 139.52,50.32 
		136.96,50.32 	"/>
	<path fill="none" stroke="#000000" stroke-width="0.2" stroke-miterlimit="3.8637" d="M741.34,124.19c0,0,5.97-17.16,5.97-39.15
		v-0.01c0-21.99-5.97-39.15-5.97-39.15"/>
	<path fill="none" stroke="#000000" stroke-width="0.2" stroke-miterlimit="3.8637" d="M742.33,124.19c0,0,5.87-17.08,5.87-39.06
		v-0.18c0-21.99-5.87-39.06-5.87-39.06"/>
	
		<line fill="none" stroke="#000000" stroke-width="0.2" stroke-miterlimit="3.8637" x1="738.98" y1="72.64" x2="738.98" y2="97.43"/>
	<polyline fill="none" stroke="#000000" stroke-width="0.2" stroke-miterlimit="3.8637" points="144.03,124.22 139.52,119.79 
		136.96,119.79 	"/>
	<path fill="none" stroke="#000000" stroke-width="0.2" stroke-miterlimit="3.8637" d="M137.58,119.81c0,0-10.25,0.37-10.25-10.78
		c0-3.37,0-23.98,0-23.98v0.01c0,0,0-20.62,0-23.98c0-11.15,10.25-10.78,10.25-10.78"/>
	<path fill="none" stroke="#000000" stroke-width="0.2" stroke-miterlimit="3.8637" d="M136.31,119.76c0,0-11.12,1-11.12-10.76
		c0-3.9,0-23.95,0-23.95v0.01c0,0,0-20.05,0-23.95c0-11.76,11.12-10.76,11.12-10.76"/>
	<g>
		<g>
			<path fill="none" stroke="#000000" stroke-width="0.1" stroke-miterlimit="3.8637" d="M596.07,71.55c0,0-1.04,0.36-1.64,1.32
				c-0.6,0.96-0.56,2.18-0.56,2.18l6.29,3.2c0,0,0.42-0.78,0.68-1.19c0.26-0.41,0.83-1.2,0.83-1.2L596.07,71.55z"/>
			
				<line fill="none" stroke="#000000" stroke-width="0.1" stroke-miterlimit="3.8637" x1="599.05" y1="73.8" x2="597.18" y2="76.71"/>
			
				<line fill="none" stroke="#000000" stroke-width="0.1" stroke-miterlimit="3.8637" x1="596.67" y1="72.01" x2="594.5" y2="75.38"/>
			
				<line fill="none" stroke="#000000" stroke-width="0.1" stroke-miterlimit="3.8637" x1="601.4" y1="75.67" x2="599.84" y2="78.09"/>
		</g>
		<g>
			<path fill="none" stroke="#000000" stroke-width="0.1" stroke-miterlimit="3.8637" d="M593.87,75.05c0,0-1,0.58-1.41,1.64
				c-0.42,1.05-0.15,2.23-0.15,2.23l6.8,1.96c0,0,0.24-0.8,0.42-1.25c0.18-0.45,0.63-1.37,0.63-1.37L593.87,75.05z"/>
			
				<line fill="none" stroke="#000000" stroke-width="0.1" stroke-miterlimit="3.8637" x1="597.18" y1="76.71" x2="595.87" y2="79.93"/>
			
				<line fill="none" stroke="#000000" stroke-width="0.1" stroke-miterlimit="3.8637" x1="594.5" y1="75.38" x2="592.99" y2="79.11"/>
			
				<line fill="none" stroke="#000000" stroke-width="0.1" stroke-miterlimit="3.8637" x1="599.84" y1="78.09" x2="598.74" y2="80.78"/>
		</g>
		<g>
			<path fill="none" stroke="#000000" stroke-width="0.1" stroke-miterlimit="3.8637" d="M592.3,78.91c0,0-0.88,0.75-1.08,1.86
				c-0.21,1.11,0.3,2.2,0.3,2.2l7.07,0.62c0,0,0.11-0.81,0.21-1.29c0.09-0.48,0.31-1.43,0.31-1.43L592.3,78.91z"/>
			
				<line fill="none" stroke="#000000" stroke-width="0.1" stroke-miterlimit="3.8637" x1="595.87" y1="79.93" x2="595.2" y2="83.29"/>
			
				<line fill="none" stroke="#000000" stroke-width="0.1" stroke-miterlimit="3.8637" x1="592.99" y1="79.11" x2="592.21" y2="83.04"/>
			
				<line fill="none" stroke="#000000" stroke-width="0.1" stroke-miterlimit="3.8637" x1="598.74" y1="80.78" x2="598.17" y2="83.57"/>
		</g>
		<g>
			<path fill="none" stroke="#000000" stroke-width="0.1" stroke-miterlimit="3.8637" d="M596.07,98.54c0,0-1.04-0.37-1.64-1.32
				c-0.6-0.96-0.56-2.18-0.56-2.18l6.29-3.2c0,0,0.42,0.78,0.68,1.19c0.26,0.41,0.83,1.2,0.83,1.2L596.07,98.54z"/>
			
				<line fill="none" stroke="#000000" stroke-width="0.1" stroke-miterlimit="3.8637" x1="599.05" y1="96.28" x2="597.18" y2="93.37"/>
			
				<line fill="none" stroke="#000000" stroke-width="0.1" stroke-miterlimit="3.8637" x1="596.67" y1="98.08" x2="594.5" y2="94.71"/>
			<line fill="none" stroke="#000000" stroke-width="0.1" stroke-miterlimit="3.8637" x1="601.4" y1="94.42" x2="599.84" y2="92"/>
		</g>
		<g>
			<path fill="none" stroke="#000000" stroke-width="0.1" stroke-miterlimit="3.8637" d="M593.87,95.04c0,0-1-0.58-1.41-1.63
				c-0.42-1.05-0.15-2.23-0.15-2.23l6.8-1.96c0,0,0.24,0.8,0.42,1.26c0.18,0.45,0.63,1.37,0.63,1.37L593.87,95.04z"/>
			
				<line fill="none" stroke="#000000" stroke-width="0.1" stroke-miterlimit="3.8637" x1="597.18" y1="93.37" x2="595.87" y2="90.16"/>
			
				<line fill="none" stroke="#000000" stroke-width="0.1" stroke-miterlimit="3.8637" x1="594.5" y1="94.71" x2="592.99" y2="90.97"/>
			<line fill="none" stroke="#000000" stroke-width="0.1" stroke-miterlimit="3.8637" x1="599.84" y1="92" x2="598.74" y2="89.31"/>
		</g>
		<g>
			<path fill="none" stroke="#000000" stroke-width="0.1" stroke-miterlimit="3.8637" d="M592.3,91.17c0,0-0.88-0.75-1.08-1.86
				c-0.21-1.11,0.3-2.2,0.3-2.2l7.08-0.69c0,0,0.11,0.88,0.2,1.36c0.09,0.48,0.31,1.43,0.31,1.43L592.3,91.17z"/>
			
				<line fill="none" stroke="#000000" stroke-width="0.1" stroke-miterlimit="3.8637" x1="595.87" y1="90.16" x2="595.2" y2="86.8"/>
			
				<line fill="none" stroke="#000000" stroke-width="0.1" stroke-miterlimit="3.8637" x1="592.99" y1="90.97" x2="592.21" y2="87.05"/>
			
				<line fill="none" stroke="#000000" stroke-width="0.1" stroke-miterlimit="3.8637" x1="598.74" y1="89.31" x2="598.17" y2="86.46"/>
		</g>
		<g>
			<path fill="none" stroke="#000000" stroke-width="0.1" stroke-miterlimit="3.8637" d="M591.52,82.97c0,0-0.72,0.92-0.71,2.05
				c0.02,1.13,0.73,2.08,0.73,2.08l7.05-0.68c0,0-0.03-0.91-0.04-1.39c0-0.48,0.03-1.44,0.03-1.44L591.52,82.97z"/>
			
				<line fill="none" stroke="#000000" stroke-width="0.1" stroke-miterlimit="3.8637" x1="595.2" y1="83.29" x2="595.2" y2="86.72"/>
			
				<line fill="none" stroke="#000000" stroke-width="0.1" stroke-miterlimit="3.8637" x1="592.21" y1="83.04" x2="592.22" y2="87.04"/>
			
				<line fill="none" stroke="#000000" stroke-width="0.1" stroke-miterlimit="3.8637" x1="598.18" y1="83.56" x2="598.17" y2="86.46"/>
		</g>
	</g>
</g>
<g id="numbers">
	<text transform="matrix(0 0.95 -1 0 729.0635 58.9607)" font-family="'Univers'" font-size="5.9948px">1201</text>
	<text transform="matrix(0 0.95 -1 0 721.0923 58.9607)" font-family="'Univers'" font-size="5.9948px">1205</text>
	<text transform="matrix(0 0.95 -1 0 713.123 58.9607)" font-family="'Univers'" font-size="5.9948px">1207</text>
	<text transform="matrix(0 0.95 -1 0 705.1523 58.9607)" font-family="'Univers'" font-size="5.9948px">1209</text>
	<text transform="matrix(0 0.95 -1 0 697.1831 58.9607)" font-family="'Univers'" font-size="5.9948px">1211</text>
	<text transform="matrix(0 0.95 -1 0 689.2119 58.9607)" font-family="'Univers'" font-size="5.9948px">1215</text>
	<text transform="matrix(0 0.95 -1 0 681.2412 58.9607)" font-family="'Univers'" font-size="5.9948px">1217</text>
	<text transform="matrix(0 0.95 -1 0 673.27 58.9607)" font-family="'Univers'" font-size="5.9948px">1219</text>
	<text transform="matrix(0 0.95 -1 0 665.3003 58.9607)" font-family="'Univers'" font-size="5.9948px">1221</text>
	<text transform="matrix(0 0.95 -1 0 657.3311 58.9607)" font-family="'Univers'" font-size="5.9948px">1223</text>
	<text transform="matrix(0 0.95 -1 0 649.3594 58.9607)" font-family="'Univers'" font-size="5.9948px">1225</text>
	<text transform="matrix(0 0.95 -1 0 641.3887 58.9607)" font-family="'Univers'" font-size="5.9948px">1227</text>
	<text transform="matrix(0 0.95 -1 0 633.4194 58.9607)" font-family="'Univers'" font-size="5.9948px">1229</text>
	<text transform="matrix(0.95 0 0 1 722.0825 82.8304)" font-family="'Univers'" font-size="5.9948px">1203</text>
	<text transform="matrix(0.95 0 0 1 722.0825 91.6178)" font-family="'Univers'" font-size="5.9948px">1204</text>
	<text transform="matrix(0 0.95 -1 0 729.0635 98.0787)" font-family="'Univers'" font-size="5.9948px">1202</text>
	<text transform="matrix(0 0.95 -1 0 721.0923 98.0787)" font-family="'Univers'" font-size="5.9948px">1206</text>
	<text transform="matrix(0 0.95 -1 0 713.123 98.0787)" font-family="'Univers'" font-size="5.9948px">1208</text>
	<text transform="matrix(0 0.95 -1 0 705.1523 98.0787)" font-family="'Univers'" font-size="5.9948px">1210</text>
	<text transform="matrix(0 0.95 -1 0 697.1831 98.0787)" font-family="'Univers'" font-size="5.9948px">1212</text>
	<text transform="matrix(0 0.95 -1 0 689.2119 98.0787)" font-family="'Univers'" font-size="5.9948px">1214</text>
	<text transform="matrix(0 0.95 -1 0 681.2412 98.0787)" font-family="'Univers'" font-size="5.9948px">1216</text>
	<text transform="matrix(0 0.95 -1 0 673.27 98.0787)" font-family="'Univers'" font-size="5.9948px">1218</text>
	<text transform="matrix(0 0.95 -1 0 665.3003 98.0787)" font-family="'Univers'" font-size="5.9948px">1220</text>
	<text transform="matrix(0 0.95 -1 0 657.3311 98.0787)" font-family="'Univers'" font-size="5.9948px">1222</text>
	<text transform="matrix(0 0.95 -1 0 649.3594 98.0787)" font-family="'Univers'" font-size="5.9948px">1224</text>
	<text transform="matrix(0 0.95 -1 0 641.3887 98.0787)" font-family="'Univers'" font-size="5.9948px">1226</text>
	<text transform="matrix(0 0.95 -1 0 633.4194 98.0787)" font-family="'Univers'" font-size="5.9948px">1228</text>
</g>
<g id="icons">
	<g id="icon1201">
		<polygon id="icon12001" points="730.27,55.28 730.27,53.29 732.02,54.28 		"/>
		<g>
			<path d="M730.06,51.58h2.17v0.64c0,0.28-0.1,0.5-0.56,0.5c-0.25,0-0.43-0.1-0.48-0.29h-0.01c-0.04,0.26-0.25,0.32-0.55,0.32
				c-0.55,0-0.57-0.38-0.57-0.53V51.58z M730.4,51.94v0.2c0,0.08,0,0.25,0.31,0.25c0.19,0,0.31-0.06,0.31-0.24v-0.21H730.4z
				 M731.35,51.94v0.24c0,0.08,0.07,0.19,0.28,0.19c0.16,0,0.28-0.09,0.28-0.21v-0.22H731.35z"/>
		</g>
	</g>
	<g id="icon1205">
		<polygon id="icon12005" points="722.05,55.28 722.05,53.29 723.8,54.28 		"/>
		<g>
			<path d="M722.05,51.58h2.17v0.64c0,0.28-0.1,0.5-0.56,0.5c-0.25,0-0.43-0.1-0.48-0.29h-0.01c-0.04,0.26-0.25,0.32-0.55,0.32
				c-0.55,0-0.57-0.38-0.57-0.53V51.58z M722.38,51.94v0.2c0,0.08,0,0.25,0.31,0.25c0.19,0,0.31-0.06,0.31-0.24v-0.21H722.38z
				 M723.33,51.94v0.24c0,0.08,0.07,0.19,0.28,0.19c0.16,0,0.28-0.09,0.28-0.21v-0.22H723.33z"/>
		</g>
	</g>
	<g id="icon1209">
		<polygon id="icon12009" points="705.93,55.28 705.93,53.29 707.68,54.28 		"/>
		<g>
			<path d="M705.93,51.58h2.17v0.64c0,0.28-0.1,0.5-0.56,0.5c-0.25,0-0.43-0.1-0.48-0.29h-0.01c-0.04,0.26-0.25,0.32-0.55,0.32
				c-0.55,0-0.57-0.38-0.57-0.53V51.58z M706.26,51.94v0.2c0,0.08,0,0.25,0.31,0.25c0.19,0,0.31-0.06,0.31-0.24v-0.21H706.26z
				 M707.21,51.94v0.24c0,0.08,0.07,0.19,0.28,0.19c0.16,0,0.28-0.09,0.28-0.21v-0.22H707.21z"/>
		</g>
	</g>
	<g id="icon1207">
		<polygon id="icon12007" points="713.95,55.28 713.95,53.29 715.7,54.28 		"/>
		<g>
			<path d="M713.95,51.58h2.17v0.64c0,0.28-0.1,0.5-0.56,0.5c-0.25,0-0.43-0.1-0.48-0.29h-0.01c-0.04,0.26-0.25,0.32-0.55,0.32
				c-0.55,0-0.57-0.38-0.57-0.53V51.58z M714.28,51.94v0.2c0,0.08,0,0.25,0.31,0.25c0.19,0,0.31-0.06,0.31-0.24v-0.21H714.28z
				 M715.23,51.94v0.24c0,0.08,0.07,0.19,0.28,0.19c0.16,0,0.28-0.09,0.28-0.21v-0.22H715.23z"/>
		</g>
	</g>
	<g id="icon1211">
		<polygon id="icon12011" points="698.1,55.28 698.1,53.29 699.86,54.28 		"/>
		<g>
			<path d="M698.1,51.58h2.17v0.64c0,0.28-0.1,0.5-0.56,0.5c-0.25,0-0.43-0.1-0.48-0.29h-0.01c-0.04,0.26-0.25,0.32-0.55,0.32
				c-0.55,0-0.57-0.38-0.57-0.53V51.58z M698.44,51.94v0.2c0,0.08,0,0.25,0.31,0.25c0.19,0,0.31-0.06,0.31-0.24v-0.21H698.44z
				 M699.39,51.94v0.24c0,0.08,0.07,0.19,0.28,0.19c0.16,0,0.28-0.09,0.28-0.21v-0.22H699.39z"/>
		</g>
	</g>
	<g id="icon1215">
		<polygon id="icon12015" points="690.12,55.28 690.12,53.29 691.87,54.28 		"/>
		<g>
			<path d="M690.12,51.58h2.17v0.64c0,0.28-0.1,0.5-0.56,0.5c-0.25,0-0.43-0.1-0.48-0.29h-0.01c-0.04,0.26-0.25,0.32-0.55,0.32
				c-0.55,0-0.57-0.38-0.57-0.53V51.58z M690.46,51.94v0.2c0,0.08,0,0.25,0.31,0.25c0.19,0,0.31-0.06,0.31-0.24v-0.21H690.46z
				 M691.41,51.94v0.24c0,0.08,0.07,0.19,0.28,0.19c0.16,0,0.28-0.09,0.28-0.21v-0.22H691.41z"/>
		</g>
	</g>
	<g id="icon1217">
		<polygon id="icon12019" points="682.13,55.28 682.13,53.29 683.88,54.28 		"/>
		<g>
			<path d="M682.13,51.58h2.17v0.64c0,0.28-0.1,0.5-0.56,0.5c-0.25,0-0.43-0.1-0.48-0.29h-0.01c-0.04,0.26-0.25,0.32-0.55,0.32
				c-0.55,0-0.57-0.38-0.57-0.53V51.58z M682.46,51.94v0.2c0,0.08,0,0.25,0.31,0.25c0.19,0,0.31-0.06,0.31-0.24v-0.21H682.46z
				 M683.41,51.94v0.24c0,0.08,0.07,0.19,0.28,0.19c0.16,0,0.28-0.09,0.28-0.21v-0.22H683.41z"/>
		</g>
	</g>
	<g id="icon1219">
		<polygon id="icon12021" points="674.07,55.28 674.07,53.29 675.82,54.28 		"/>
		<g id="icon12021_1_">
			<path d="M674.07,51.58h2.17v0.64c0,0.28-0.1,0.5-0.56,0.5c-0.25,0-0.43-0.1-0.48-0.29h-0.01c-0.04,0.26-0.25,0.32-0.55,0.32
				c-0.55,0-0.57-0.38-0.57-0.53V51.58z M674.4,51.94v0.2c0,0.08,0,0.25,0.31,0.25c0.19,0,0.31-0.06,0.31-0.24v-0.21H674.4z
				 M675.35,51.94v0.24c0,0.08,0.07,0.19,0.28,0.19c0.16,0,0.28-0.09,0.28-0.21v-0.22H675.35z"/>
		</g>
	</g>
	<g id="icon1221">
		<polygon id="icon12023" points="666.09,55.28 666.09,53.29 667.85,54.28 		"/>
		<g>
			<path d="M666.09,51.58h2.17v0.64c0,0.28-0.1,0.5-0.56,0.5c-0.25,0-0.43-0.1-0.48-0.29h-0.01c-0.04,0.26-0.25,0.32-0.55,0.32
				c-0.55,0-0.57-0.38-0.57-0.53V51.58z M666.43,51.94v0.2c0,0.08,0,0.25,0.31,0.25c0.19,0,0.31-0.06,0.31-0.24v-0.21H666.43z
				 M667.38,51.94v0.24c0,0.08,0.07,0.19,0.28,0.19c0.16,0,0.28-0.09,0.28-0.21v-0.22H667.38z"/>
		</g>
	</g>
	<g id="icon1223">
		<polygon id="icon12025" points="658.15,55.28 658.15,53.29 659.91,54.28 		"/>
		<g>
			<path d="M658.15,51.58h2.17v0.64c0,0.28-0.1,0.5-0.56,0.5c-0.25,0-0.43-0.1-0.48-0.29h-0.01c-0.04,0.26-0.25,0.32-0.55,0.32
				c-0.55,0-0.57-0.38-0.57-0.53V51.58z M658.49,51.94v0.2c0,0.08,0,0.25,0.31,0.25c0.19,0,0.31-0.06,0.31-0.24v-0.21H658.49z
				 M659.44,51.94v0.24c0,0.08,0.07,0.19,0.28,0.19c0.16,0,0.28-0.09,0.28-0.21v-0.22H659.44z"/>
		</g>
	</g>
	<g id="icon1225">
		<polygon id="icon12027" points="650.29,55.28 650.29,53.29 652.04,54.28 		"/>
		<g>
			<path d="M650.29,51.58h2.17v0.64c0,0.28-0.1,0.5-0.56,0.5c-0.25,0-0.43-0.1-0.48-0.29h-0.01c-0.04,0.26-0.25,0.32-0.55,0.32
				c-0.55,0-0.57-0.38-0.57-0.53V51.58z M650.62,51.94v0.2c0,0.08,0,0.25,0.31,0.25c0.19,0,0.31-0.06,0.31-0.24v-0.21H650.62z
				 M651.57,51.94v0.24c0,0.08,0.07,0.19,0.28,0.19c0.16,0,0.28-0.09,0.28-0.21v-0.22H651.57z"/>
		</g>
	</g>
	<g id="icon1227">
		<polygon id="icon12029" points="642.37,55.28 642.37,53.29 644.12,54.28 		"/>
		<g>
			<path d="M642.37,51.58h2.17v0.64c0,0.28-0.1,0.5-0.56,0.5c-0.25,0-0.43-0.1-0.48-0.29h-0.01c-0.04,0.26-0.25,0.32-0.55,0.32
				c-0.55,0-0.57-0.38-0.57-0.53V51.58z M642.7,51.94v0.2c0,0.08,0,0.25,0.31,0.25c0.19,0,0.31-0.06,0.31-0.24v-0.21H642.7z
				 M643.65,51.94v0.24c0,0.08,0.07,0.19,0.28,0.19c0.16,0,0.28-0.09,0.28-0.21v-0.22H643.65z"/>
		</g>
	</g>
	<g id="icon1229">
		<polygon id="icon12029_1_" points="634.31,55.28 634.31,53.29 636.06,54.28 		"/>
		<g>
			<path d="M634.31,51.58h2.17v0.64c0,0.28-0.1,0.5-0.56,0.5c-0.25,0-0.43-0.1-0.48-0.29h-0.01c-0.04,0.26-0.25,0.32-0.55,0.32
				c-0.55,0-0.57-0.38-0.57-0.53V51.58z M634.64,51.94v0.2c0,0.08,0,0.25,0.31,0.25c0.19,0,0.31-0.06,0.31-0.24v-0.21H634.64z
				 M635.59,51.94v0.24c0,0.08,0.07,0.19,0.28,0.19c0.16,0,0.28-0.09,0.28-0.21v-0.22H635.59z"/>
		</g>
	</g>
	<g id="icon1202">
		<polygon id="icon12002" points="730.27,116.5 730.27,114.52 732.02,115.51 		"/>
		<g>
			<path d="M730.06,117.48h2.17v0.64c0,0.28-0.1,0.5-0.56,0.5c-0.25,0-0.43-0.1-0.48-0.29h-0.01c-0.04,0.26-0.25,0.32-0.55,0.32
				c-0.55,0-0.57-0.38-0.57-0.53V117.48z M730.4,117.84v0.2c0,0.08,0,0.25,0.31,0.25c0.19,0,0.31-0.06,0.31-0.24v-0.21H730.4z
				 M731.35,117.84v0.24c0,0.08,0.07,0.19,0.28,0.19c0.16,0,0.28-0.09,0.28-0.21v-0.22H731.35z"/>
		</g>
	</g>
	<g id="icon1206">
		<polygon id="icon12006" points="722.05,116.5 722.05,114.52 723.8,115.51 		"/>
		<g>
			<path d="M722.05,117.48h2.17v0.64c0,0.28-0.1,0.5-0.56,0.5c-0.25,0-0.43-0.1-0.48-0.29h-0.01c-0.04,0.26-0.25,0.32-0.55,0.32
				c-0.55,0-0.57-0.38-0.57-0.53V117.48z M722.38,117.84v0.2c0,0.08,0,0.25,0.31,0.25c0.19,0,0.31-0.06,0.31-0.24v-0.21H722.38z
				 M723.33,117.84v0.24c0,0.08,0.07,0.19,0.28,0.19c0.16,0,0.28-0.09,0.28-0.21v-0.22H723.33z"/>
		</g>
	</g>
	<g id="icon1210">
		<polygon id="icon12010" points="705.93,116.5 705.93,114.52 707.68,115.51 		"/>
		<g>
			<path d="M705.93,117.48h2.17v0.64c0,0.28-0.1,0.5-0.56,0.5c-0.25,0-0.43-0.1-0.48-0.29h-0.01c-0.04,0.26-0.25,0.32-0.55,0.32
				c-0.55,0-0.57-0.38-0.57-0.53V117.48z M706.26,117.84v0.2c0,0.08,0,0.25,0.31,0.25c0.19,0,0.31-0.06,0.31-0.24v-0.21H706.26z
				 M707.21,117.84v0.24c0,0.08,0.07,0.19,0.28,0.19c0.16,0,0.28-0.09,0.28-0.21v-0.22H707.21z"/>
		</g>
	</g>
	<g id="icon1208">
		<polygon id="icon12008" points="713.95,116.5 713.95,114.52 715.7,115.51 		"/>
		<g>
			<path d="M713.95,117.48h2.17v0.64c0,0.28-0.1,0.5-0.56,0.5c-0.25,0-0.43-0.1-0.48-0.29h-0.01c-0.04,0.26-0.25,0.32-0.55,0.32
				c-0.55,0-0.57-0.38-0.57-0.53V117.48z M714.28,117.84v0.2c0,0.08,0,0.25,0.31,0.25c0.19,0,0.31-0.06,0.31-0.24v-0.21H714.28z
				 M715.23,117.84v0.24c0,0.08,0.07,0.19,0.28,0.19c0.16,0,0.28-0.09,0.28-0.21v-0.22H715.23z"/>
		</g>
	</g>
	<g id="icon1212">
		<polygon id="icon12012" points="698.1,116.5 698.1,114.52 699.86,115.51 		"/>
		<g>
			<path d="M698.1,117.48h2.17v0.64c0,0.28-0.1,0.5-0.56,0.5c-0.25,0-0.43-0.1-0.48-0.29h-0.01c-0.04,0.26-0.25,0.32-0.55,0.32
				c-0.55,0-0.57-0.38-0.57-0.53V117.48z M698.44,117.84v0.2c0,0.08,0,0.25,0.31,0.25c0.19,0,0.31-0.06,0.31-0.24v-0.21H698.44z
				 M699.39,117.84v0.24c0,0.08,0.07,0.19,0.28,0.19c0.16,0,0.28-0.09,0.28-0.21v-0.22H699.39z"/>
		</g>
	</g>
	<g id="icon1214">
		<polygon id="icon12014" points="690.12,116.5 690.12,114.52 691.87,115.51 		"/>
		<g>
			<path d="M690.12,117.48h2.17v0.64c0,0.28-0.1,0.5-0.56,0.5c-0.25,0-0.43-0.1-0.48-0.29h-0.01c-0.04,0.26-0.25,0.32-0.55,0.32
				c-0.55,0-0.57-0.38-0.57-0.53V117.48z M690.46,117.84v0.2c0,0.08,0,0.25,0.31,0.25c0.19,0,0.31-0.06,0.31-0.24v-0.21H690.46z
				 M691.41,117.84v0.24c0,0.08,0.07,0.19,0.28,0.19c0.16,0,0.28-0.09,0.28-0.21v-0.22H691.41z"/>
		</g>
	</g>
	<g id="icon1216">
		<polygon id="icon12016" points="682.13,116.5 682.13,114.52 683.88,115.51 		"/>
		<g>
			<path d="M682.13,117.48h2.17v0.64c0,0.28-0.1,0.5-0.56,0.5c-0.25,0-0.43-0.1-0.48-0.29h-0.01c-0.04,0.26-0.25,0.32-0.55,0.32
				c-0.55,0-0.57-0.38-0.57-0.53V117.48z M682.46,117.84v0.2c0,0.08,0,0.25,0.31,0.25c0.19,0,0.31-0.06,0.31-0.24v-0.21H682.46z
				 M683.41,117.84v0.24c0,0.08,0.07,0.19,0.28,0.19c0.16,0,0.28-0.09,0.28-0.21v-0.22H683.41z"/>
		</g>
	</g>
	<g id="icon1218">
		<polygon id="icon12018" points="674.07,116.5 674.07,114.52 675.82,115.51 		"/>
		<g>
			<path d="M674.07,117.48h2.17v0.64c0,0.28-0.1,0.5-0.56,0.5c-0.25,0-0.43-0.1-0.48-0.29h-0.01c-0.04,0.26-0.25,0.32-0.55,0.32
				c-0.55,0-0.57-0.38-0.57-0.53V117.48z M674.4,117.84v0.2c0,0.08,0,0.25,0.31,0.25c0.19,0,0.31-0.06,0.31-0.24v-0.21H674.4z
				 M675.35,117.84v0.24c0,0.08,0.07,0.19,0.28,0.19c0.16,0,0.28-0.09,0.28-0.21v-0.22H675.35z"/>
		</g>
	</g>
	<g id="icon1220">
		<polygon id="icon12020" points="666.09,116.5 666.09,114.52 667.85,115.51 		"/>
		<g>
			<path d="M666.09,117.48h2.17v0.64c0,0.28-0.1,0.5-0.56,0.5c-0.25,0-0.43-0.1-0.48-0.29h-0.01c-0.04,0.26-0.25,0.32-0.55,0.32
				c-0.55,0-0.57-0.38-0.57-0.53V117.48z M666.43,117.84v0.2c0,0.08,0,0.25,0.31,0.25c0.19,0,0.31-0.06,0.31-0.24v-0.21H666.43z
				 M667.38,117.84v0.24c0,0.08,0.07,0.19,0.28,0.19c0.16,0,0.28-0.09,0.28-0.21v-0.22H667.38z"/>
		</g>
	</g>
	<g id="icon1222">
		<polygon id="icon12022" points="658.15,116.5 658.15,114.52 659.91,115.51 		"/>
		<g>
			<path d="M658.15,117.48h2.17v0.64c0,0.28-0.1,0.5-0.56,0.5c-0.25,0-0.43-0.1-0.48-0.29h-0.01c-0.04,0.26-0.25,0.32-0.55,0.32
				c-0.55,0-0.57-0.38-0.57-0.53V117.48z M658.49,117.84v0.2c0,0.08,0,0.25,0.31,0.25c0.19,0,0.31-0.06,0.31-0.24v-0.21H658.49z
				 M659.44,117.84v0.24c0,0.08,0.07,0.19,0.28,0.19c0.16,0,0.28-0.09,0.28-0.21v-0.22H659.44z"/>
		</g>
	</g>
	<g id="icon1224">
		<polygon id="icon12024" points="650.29,116.5 650.29,114.52 652.04,115.51 		"/>
		<g>
			<path d="M650.29,117.48h2.17v0.64c0,0.28-0.1,0.5-0.56,0.5c-0.25,0-0.43-0.1-0.48-0.29h-0.01c-0.04,0.26-0.25,0.32-0.55,0.32
				c-0.55,0-0.57-0.38-0.57-0.53V117.48z M650.62,117.84v0.2c0,0.08,0,0.25,0.31,0.25c0.19,0,0.31-0.06,0.31-0.24v-0.21H650.62z
				 M651.57,117.84v0.24c0,0.08,0.07,0.19,0.28,0.19c0.16,0,0.28-0.09,0.28-0.21v-0.22H651.57z"/>
		</g>
	</g>
	<g id="icon1226">
		<polygon id="icon12026" points="642.37,116.5 642.37,114.52 644.12,115.51 		"/>
		<g>
			<path d="M642.37,117.48h2.17v0.64c0,0.28-0.1,0.5-0.56,0.5c-0.25,0-0.43-0.1-0.48-0.29h-0.01c-0.04,0.26-0.25,0.32-0.55,0.32
				c-0.55,0-0.57-0.38-0.57-0.53V117.48z M642.7,117.84v0.2c0,0.08,0,0.25,0.31,0.25c0.19,0,0.31-0.06,0.31-0.24v-0.21H642.7z
				 M643.65,117.84v0.24c0,0.08,0.07,0.19,0.28,0.19c0.16,0,0.28-0.09,0.28-0.21v-0.22H643.65z"/>
		</g>
	</g>
	<g id="icon1228">
		<polygon id="icon12026_1_" points="634.31,116.5 634.31,114.52 636.06,115.51 		"/>
		<g>
			<path d="M634.31,117.48h2.17v0.64c0,0.28-0.1,0.5-0.56,0.5c-0.25,0-0.43-0.1-0.48-0.29h-0.01c-0.04,0.26-0.25,0.32-0.55,0.32
				c-0.55,0-0.57-0.38-0.57-0.53V117.48z M634.64,117.84v0.2c0,0.08,0,0.25,0.31,0.25c0.19,0,0.31-0.06,0.31-0.24v-0.21H634.64z
				 M635.59,117.84v0.24c0,0.08,0.07,0.19,0.28,0.19c0.16,0,0.28-0.09,0.28-0.21v-0.22H635.59z"/>
		</g>
	</g>
	<g id="icon1203">
		<polygon id="icon12003" points="719.09,81.53 719.09,79.55 720.84,80.54 		"/>
		<g>
			<path d="M736.44,81.63v-2.17h0.64c0.28,0,0.5,0.1,0.5,0.56c0,0.25-0.1,0.43-0.29,0.48v0.01c0.26,0.04,0.32,0.25,0.32,0.55
				c0,0.55-0.38,0.57-0.53,0.57H736.44z M736.8,81.29h0.2c0.08,0,0.25,0,0.25-0.31c0-0.19-0.06-0.31-0.24-0.31h-0.21V81.29z
				 M736.8,80.34h0.24c0.08,0,0.19-0.07,0.19-0.28c0-0.16-0.09-0.28-0.21-0.28h-0.22V80.34z"/>
		</g>
	</g>
	<g id="icon1204">
		<polygon id="icon12004" points="719.09,90.61 719.09,88.62 720.84,89.61 		"/>
		<g>
			<path d="M736.44,90.7v-2.17h0.64c0.28,0,0.5,0.1,0.5,0.56c0,0.25-0.1,0.43-0.29,0.48v0.01c0.26,0.04,0.32,0.25,0.32,0.55
				c0,0.55-0.38,0.57-0.53,0.57H736.44z M736.8,90.37h0.2c0.08,0,0.25,0,0.25-0.31c0-0.19-0.06-0.31-0.24-0.31h-0.21V90.37z
				 M736.8,89.42h0.24c0.08,0,0.19-0.07,0.19-0.28c0-0.16-0.09-0.28-0.21-0.28h-0.22V89.42z"/>
		</g>
	</g>
</g>
<g id="connected">
	<polygon id="connected1201-1205" points="729.92,58.29 729.92,56.41 728.46,57.2 725.7,57.2 724.23,56.41 724.23,58.29 
		725.69,57.5 728.45,57.5 	"/>
	<polygon id="connected1205-1207" points="722.03,58.29 722.03,56.41 720.57,57.2 717.81,57.2 716.34,56.41 716.34,58.29 
		717.8,57.5 720.56,57.5 	"/>
	<polygon id="connected1202-1206" points="729.92,113.57 729.92,111.69 728.45,112.48 725.69,112.48 724.23,111.69 724.23,113.57 
		725.7,112.78 728.46,112.78 	"/>
	<polygon id="connected1206-1208" points="722.03,113.57 722.03,111.69 720.56,112.48 717.8,112.48 716.34,111.69 716.34,113.57 
		717.81,112.78 720.57,112.78 	"/>
</g>
<g id="names">
	<text transform="matrix(0 0.95 -1 0 634.7744 81.5683)" font-family="'Univers-CondensedLight'" font-size="6px">Lift</text>
	<text transform="matrix(0 0.95 -1 0 132.439 69.6376)" font-family="'Univers-CondensedLight'" font-size="6px">Starlight Disco</text>
	<text transform="matrix(0 0.9 -1 0 211.9702 48.6338)"><tspan x="0" y="0" font-family="'Univers-CondensedLight'" font-size="6px">Young</tspan><tspan x="2" y="6" font-family="'Univers-CondensedLight'" font-size="6px">Club</tspan></text>
	<text transform="matrix(0 0.95 -1 0 218.6177 81.8916)" font-family="'Univers-CondensedLight'" font-size="6px">Lift</text>
	<text transform="matrix(0 0.95 -1 0 201.4361 109.4326)"><tspan x="0" y="0" font-family="'Univers-CondensedLight'" font-size="6px">Junior</tspan><tspan x="2" y="6" font-family="'Univers-CondensedLight'" font-size="6px">Club</tspan></text>
	<text transform="matrix(0.95 0 0 1 420.4819 51.2326)"><tspan x="0" y="0" font-family="'Univers-CondensedLight'" font-size="5px">Power Walking Track</tspan><tspan x="-4.05" y="4" font-family="'Univers-CondensedLight'" font-size="4px">(not marked, can be obstructed) </tspan></text>
	<text transform="matrix(0.95 0 0 1 420.4819 117.8854)"><tspan x="0" y="0" font-family="'Univers-CondensedLight'" font-size="5px">Power Walking Track</tspan><tspan x="-4.05" y="4" font-family="'Univers-CondensedLight'" font-size="4px">(not marked, can be obstructed) </tspan></text>
</g>
</svg>
